<mxfile host="app.diagrams.net" agent="Mozilla/5.0 (Windows NT 10.0; Win64; x64) AppleWebKit/537.36 (KHTML, like Gecko) Chrome/129.0.0.0 Safari/537.36" version="24.7.16">
  <diagram name="Page-1" id="ygbE7DEKyqhoS781LUSj">
    <mxGraphModel dx="2884" dy="534" grid="1" gridSize="10" guides="1" tooltips="1" connect="1" arrows="1" fold="1" page="1" pageScale="1" pageWidth="850" pageHeight="1100" math="0" shadow="0">
      <root>
        <mxCell id="0" />
        <mxCell id="1" parent="0" />
        <mxCell id="8yUd3ttRBoh8fM7PK0Zs-1" value="Vector Database" style="shape=cylinder3;whiteSpace=wrap;html=1;boundedLbl=1;backgroundOutline=1;size=15;fontStyle=1" parent="1" vertex="1">
          <mxGeometry x="649" y="390" width="190" height="370" as="geometry" />
        </mxCell>
        <mxCell id="8yUd3ttRBoh8fM7PK0Zs-2" value="&lt;div&gt;&lt;div&gt;Embedding Generation&amp;nbsp;&lt;/div&gt;&lt;div&gt;Model&lt;/div&gt;&lt;/div&gt;&lt;div&gt;&lt;br&gt;&lt;/div&gt;" style="rounded=0;whiteSpace=wrap;html=1;fontStyle=1" parent="1" vertex="1">
          <mxGeometry x="428" y="375" width="120" height="190" as="geometry" />
        </mxCell>
        <mxCell id="8yUd3ttRBoh8fM7PK0Zs-3" value="Image Loader&amp;nbsp;&lt;div&gt;&amp;amp; Page Splitter&lt;/div&gt;" style="rounded=0;whiteSpace=wrap;html=1;fontStyle=1" parent="1" vertex="1">
          <mxGeometry x="120" y="440" width="120" height="60" as="geometry" />
        </mxCell>
        <mxCell id="8yUd3ttRBoh8fM7PK0Zs-4" value="Page 1" style="rounded=0;whiteSpace=wrap;html=1;fontStyle=1" parent="1" vertex="1">
          <mxGeometry x="288" y="375" width="120" height="30" as="geometry" />
        </mxCell>
        <mxCell id="8yUd3ttRBoh8fM7PK0Zs-5" value="Page 2" style="rounded=0;whiteSpace=wrap;html=1;fontStyle=1" parent="1" vertex="1">
          <mxGeometry x="288" y="415" width="120" height="30" as="geometry" />
        </mxCell>
        <mxCell id="8yUd3ttRBoh8fM7PK0Zs-6" value="Page 3" style="rounded=0;whiteSpace=wrap;html=1;fontStyle=1" parent="1" vertex="1">
          <mxGeometry x="288" y="455" width="120" height="30" as="geometry" />
        </mxCell>
        <mxCell id="8yUd3ttRBoh8fM7PK0Zs-7" value="..." style="rounded=0;whiteSpace=wrap;html=1;fontStyle=1" parent="1" vertex="1">
          <mxGeometry x="288" y="495" width="120" height="30" as="geometry" />
        </mxCell>
        <mxCell id="8yUd3ttRBoh8fM7PK0Zs-8" value="Page 4" style="rounded=0;whiteSpace=wrap;html=1;fontStyle=1" parent="1" vertex="1">
          <mxGeometry x="288" y="535" width="120" height="30" as="geometry" />
        </mxCell>
        <mxCell id="8yUd3ttRBoh8fM7PK0Zs-10" value="" style="endArrow=classic;html=1;rounded=0;exitX=1;exitY=0.5;exitDx=0;exitDy=0;entryX=0;entryY=0.25;entryDx=0;entryDy=0;fontStyle=1" parent="1" source="8yUd3ttRBoh8fM7PK0Zs-3" target="8yUd3ttRBoh8fM7PK0Zs-4" edge="1">
          <mxGeometry width="50" height="50" relative="1" as="geometry">
            <mxPoint x="400" y="610" as="sourcePoint" />
            <mxPoint x="450" y="560" as="targetPoint" />
          </mxGeometry>
        </mxCell>
        <mxCell id="8yUd3ttRBoh8fM7PK0Zs-11" value="" style="endArrow=classic;html=1;rounded=0;exitX=1;exitY=0.5;exitDx=0;exitDy=0;entryX=0;entryY=0.5;entryDx=0;entryDy=0;fontStyle=1" parent="1" source="8yUd3ttRBoh8fM7PK0Zs-3" target="8yUd3ttRBoh8fM7PK0Zs-5" edge="1">
          <mxGeometry width="50" height="50" relative="1" as="geometry">
            <mxPoint x="250" y="542.5" as="sourcePoint" />
            <mxPoint x="298" y="455.5" as="targetPoint" />
          </mxGeometry>
        </mxCell>
        <mxCell id="8yUd3ttRBoh8fM7PK0Zs-12" value="" style="endArrow=classic;html=1;rounded=0;entryX=0.017;entryY=0.5;entryDx=0;entryDy=0;entryPerimeter=0;fontStyle=1" parent="1" target="8yUd3ttRBoh8fM7PK0Zs-6" edge="1">
          <mxGeometry width="50" height="50" relative="1" as="geometry">
            <mxPoint x="240" y="470" as="sourcePoint" />
            <mxPoint x="298" y="460" as="targetPoint" />
          </mxGeometry>
        </mxCell>
        <mxCell id="8yUd3ttRBoh8fM7PK0Zs-13" value="" style="endArrow=classic;html=1;rounded=0;entryX=0;entryY=0.5;entryDx=0;entryDy=0;exitX=1;exitY=0.5;exitDx=0;exitDy=0;fontStyle=1" parent="1" source="8yUd3ttRBoh8fM7PK0Zs-3" target="8yUd3ttRBoh8fM7PK0Zs-7" edge="1">
          <mxGeometry width="50" height="50" relative="1" as="geometry">
            <mxPoint x="250" y="495" as="sourcePoint" />
            <mxPoint x="300" y="495" as="targetPoint" />
          </mxGeometry>
        </mxCell>
        <mxCell id="8yUd3ttRBoh8fM7PK0Zs-14" value="" style="endArrow=classic;html=1;rounded=0;entryX=0;entryY=0.5;entryDx=0;entryDy=0;exitX=1;exitY=0.5;exitDx=0;exitDy=0;fontStyle=1" parent="1" source="8yUd3ttRBoh8fM7PK0Zs-3" target="8yUd3ttRBoh8fM7PK0Zs-8" edge="1">
          <mxGeometry width="50" height="50" relative="1" as="geometry">
            <mxPoint x="240" y="500" as="sourcePoint" />
            <mxPoint x="288" y="540" as="targetPoint" />
          </mxGeometry>
        </mxCell>
        <mxCell id="8yUd3ttRBoh8fM7PK0Zs-15" value="" style="endArrow=classic;html=1;rounded=0;exitX=1;exitY=0.5;exitDx=0;exitDy=0;entryX=-0.005;entryY=0.077;entryDx=0;entryDy=0;entryPerimeter=0;fontStyle=1" parent="1" source="8yUd3ttRBoh8fM7PK0Zs-4" target="8yUd3ttRBoh8fM7PK0Zs-2" edge="1">
          <mxGeometry width="50" height="50" relative="1" as="geometry">
            <mxPoint x="400" y="610" as="sourcePoint" />
            <mxPoint x="450" y="560" as="targetPoint" />
          </mxGeometry>
        </mxCell>
        <mxCell id="8yUd3ttRBoh8fM7PK0Zs-16" value="" style="endArrow=classic;html=1;rounded=0;exitX=1;exitY=0.5;exitDx=0;exitDy=0;entryX=-0.005;entryY=0.077;entryDx=0;entryDy=0;entryPerimeter=0;fontStyle=1" parent="1" edge="1">
          <mxGeometry width="50" height="50" relative="1" as="geometry">
            <mxPoint x="408" y="430.18" as="sourcePoint" />
            <mxPoint x="427" y="430.18" as="targetPoint" />
          </mxGeometry>
        </mxCell>
        <mxCell id="8yUd3ttRBoh8fM7PK0Zs-17" value="" style="endArrow=classic;html=1;rounded=0;exitX=1;exitY=0.5;exitDx=0;exitDy=0;entryX=-0.005;entryY=0.077;entryDx=0;entryDy=0;entryPerimeter=0;fontStyle=1" parent="1" edge="1">
          <mxGeometry width="50" height="50" relative="1" as="geometry">
            <mxPoint x="408" y="469.9" as="sourcePoint" />
            <mxPoint x="427" y="469.9" as="targetPoint" />
          </mxGeometry>
        </mxCell>
        <mxCell id="8yUd3ttRBoh8fM7PK0Zs-18" value="" style="endArrow=classic;html=1;rounded=0;exitX=1;exitY=0.5;exitDx=0;exitDy=0;entryX=-0.005;entryY=0.077;entryDx=0;entryDy=0;entryPerimeter=0;fontStyle=1" parent="1" edge="1">
          <mxGeometry width="50" height="50" relative="1" as="geometry">
            <mxPoint x="408" y="509.9" as="sourcePoint" />
            <mxPoint x="427" y="509.9" as="targetPoint" />
          </mxGeometry>
        </mxCell>
        <mxCell id="8yUd3ttRBoh8fM7PK0Zs-19" value="" style="endArrow=classic;html=1;rounded=0;exitX=1;exitY=0.5;exitDx=0;exitDy=0;entryX=-0.005;entryY=0.077;entryDx=0;entryDy=0;entryPerimeter=0;fontStyle=1" parent="1" edge="1">
          <mxGeometry width="50" height="50" relative="1" as="geometry">
            <mxPoint x="408" y="550" as="sourcePoint" />
            <mxPoint x="427" y="550" as="targetPoint" />
          </mxGeometry>
        </mxCell>
        <mxCell id="8yUd3ttRBoh8fM7PK0Zs-20" value="Embeddings" style="endArrow=classic;html=1;rounded=0;entryX=0.004;entryY=0.216;entryDx=0;entryDy=0;entryPerimeter=0;fontStyle=1" parent="1" target="8yUd3ttRBoh8fM7PK0Zs-1" edge="1">
          <mxGeometry x="-0.0085" y="20" width="50" height="50" relative="1" as="geometry">
            <mxPoint x="548" y="470" as="sourcePoint" />
            <mxPoint x="597.24" y="470.28999999999996" as="targetPoint" />
            <Array as="points" />
            <mxPoint as="offset" />
          </mxGeometry>
        </mxCell>
        <mxCell id="8yUd3ttRBoh8fM7PK0Zs-22" value="" style="endArrow=classic;html=1;rounded=0;entryX=0;entryY=0.5;entryDx=0;entryDy=0;" parent="1" target="8yUd3ttRBoh8fM7PK0Zs-3" edge="1">
          <mxGeometry width="50" height="50" relative="1" as="geometry">
            <mxPoint x="73.36000000000013" y="469.9966114501598" as="sourcePoint" />
            <mxPoint x="160" y="460" as="targetPoint" />
          </mxGeometry>
        </mxCell>
        <mxCell id="8yUd3ttRBoh8fM7PK0Zs-24" value="Keyword Based Prompt" style="ellipse;whiteSpace=wrap;html=1;fontStyle=1" parent="1" vertex="1">
          <mxGeometry x="130" y="616.5" width="120" height="50" as="geometry" />
        </mxCell>
        <mxCell id="8yUd3ttRBoh8fM7PK0Zs-25" value="Embedding Generation Model" style="rounded=0;whiteSpace=wrap;html=1;fontStyle=1" parent="1" vertex="1">
          <mxGeometry x="280" y="612.5" width="120" height="60" as="geometry" />
        </mxCell>
        <mxCell id="8yUd3ttRBoh8fM7PK0Zs-26" value="Query Embedding" style="rounded=0;whiteSpace=wrap;html=1;fontStyle=1" parent="1" vertex="1">
          <mxGeometry x="420" y="612.5" width="120" height="60" as="geometry" />
        </mxCell>
        <mxCell id="8yUd3ttRBoh8fM7PK0Zs-27" value="Similarity Search" style="endArrow=classic;html=1;rounded=0;exitX=1;exitY=0.5;exitDx=0;exitDy=0;entryX=0.003;entryY=0.682;entryDx=0;entryDy=0;entryPerimeter=0;fontStyle=1" parent="1" source="8yUd3ttRBoh8fM7PK0Zs-26" target="8yUd3ttRBoh8fM7PK0Zs-1" edge="1">
          <mxGeometry x="0.0807" y="12" width="50" height="50" relative="1" as="geometry">
            <mxPoint x="380" y="610" as="sourcePoint" />
            <mxPoint x="430" y="560" as="targetPoint" />
            <mxPoint as="offset" />
          </mxGeometry>
        </mxCell>
        <mxCell id="8yUd3ttRBoh8fM7PK0Zs-28" value="" style="endArrow=classic;html=1;rounded=0;exitX=1;exitY=0.5;exitDx=0;exitDy=0;entryX=0;entryY=0.5;entryDx=0;entryDy=0;" parent="1" source="8yUd3ttRBoh8fM7PK0Zs-25" target="8yUd3ttRBoh8fM7PK0Zs-26" edge="1">
          <mxGeometry width="50" height="50" relative="1" as="geometry">
            <mxPoint x="390" y="690" as="sourcePoint" />
            <mxPoint x="440" y="640" as="targetPoint" />
          </mxGeometry>
        </mxCell>
        <mxCell id="8yUd3ttRBoh8fM7PK0Zs-29" value="" style="endArrow=classic;html=1;rounded=0;exitX=1;exitY=0.5;exitDx=0;exitDy=0;entryX=-0.004;entryY=0.485;entryDx=0;entryDy=0;entryPerimeter=0;" parent="1" source="8yUd3ttRBoh8fM7PK0Zs-24" target="8yUd3ttRBoh8fM7PK0Zs-25" edge="1">
          <mxGeometry width="50" height="50" relative="1" as="geometry">
            <mxPoint x="260" y="690" as="sourcePoint" />
            <mxPoint x="310" y="640" as="targetPoint" />
          </mxGeometry>
        </mxCell>
        <mxCell id="8yUd3ttRBoh8fM7PK0Zs-30" value="" style="endArrow=classic;html=1;rounded=0;exitX=1;exitY=0.5;exitDx=0;exitDy=0;entryX=0;entryY=0.5;entryDx=0;entryDy=0;" parent="1" target="8yUd3ttRBoh8fM7PK0Zs-24" edge="1">
          <mxGeometry width="50" height="50" relative="1" as="geometry">
            <mxPoint x="64.36000000000013" y="642.5" as="sourcePoint" />
            <mxPoint x="200" y="610" as="targetPoint" />
          </mxGeometry>
        </mxCell>
        <mxCell id="8yUd3ttRBoh8fM7PK0Zs-31" value="Reranker" style="rounded=0;whiteSpace=wrap;html=1;fontStyle=1" parent="1" vertex="1">
          <mxGeometry x="420" y="690" width="120" height="60" as="geometry" />
        </mxCell>
        <mxCell id="8yUd3ttRBoh8fM7PK0Zs-33" value="Top - k Pages" style="endArrow=classic;html=1;rounded=0;exitX=-0.001;exitY=0.891;exitDx=0;exitDy=0;exitPerimeter=0;entryX=1;entryY=0.5;entryDx=0;entryDy=0;fontStyle=1" parent="1" source="8yUd3ttRBoh8fM7PK0Zs-1" target="8yUd3ttRBoh8fM7PK0Zs-31" edge="1">
          <mxGeometry x="-0.1034" y="-10" width="50" height="50" relative="1" as="geometry">
            <mxPoint x="300" y="600" as="sourcePoint" />
            <mxPoint x="350" y="550" as="targetPoint" />
            <mxPoint as="offset" />
          </mxGeometry>
        </mxCell>
        <mxCell id="8yUd3ttRBoh8fM7PK0Zs-35" value="Azure OpenAI" style="rounded=0;whiteSpace=wrap;html=1;fontStyle=1" parent="1" vertex="1">
          <mxGeometry x="184" y="700" width="120" height="40" as="geometry" />
        </mxCell>
        <mxCell id="8yUd3ttRBoh8fM7PK0Zs-36" value="Top - n Pages" style="endArrow=classic;html=1;rounded=0;exitX=0;exitY=0.5;exitDx=0;exitDy=0;entryX=1;entryY=0.5;entryDx=0;entryDy=0;fontStyle=1" parent="1" source="8yUd3ttRBoh8fM7PK0Zs-31" target="8yUd3ttRBoh8fM7PK0Zs-35" edge="1">
          <mxGeometry x="0.0588" y="-10" width="50" height="50" relative="1" as="geometry">
            <mxPoint x="310" y="690" as="sourcePoint" />
            <mxPoint x="360" y="640" as="targetPoint" />
            <mxPoint as="offset" />
          </mxGeometry>
        </mxCell>
        <mxCell id="8yUd3ttRBoh8fM7PK0Zs-37" value="Answer" style="rounded=0;whiteSpace=wrap;html=1;fontStyle=1" parent="1" vertex="1">
          <mxGeometry x="100" y="700" width="70" height="40" as="geometry" />
        </mxCell>
        <mxCell id="8yUd3ttRBoh8fM7PK0Zs-38" value="" style="endArrow=classic;html=1;rounded=0;exitX=0;exitY=0.5;exitDx=0;exitDy=0;entryX=0.953;entryY=0.677;entryDx=0;entryDy=0;entryPerimeter=0;" parent="1" source="8yUd3ttRBoh8fM7PK0Zs-37" edge="1">
          <mxGeometry width="50" height="50" relative="1" as="geometry">
            <mxPoint x="310" y="690" as="sourcePoint" />
            <mxPoint x="62.245000000000346" y="650.4650000000001" as="targetPoint" />
            <Array as="points">
              <mxPoint x="80" y="720" />
              <mxPoint x="80" y="650" />
            </Array>
          </mxGeometry>
        </mxCell>
        <mxCell id="8yUd3ttRBoh8fM7PK0Zs-39" value="&lt;b&gt;&lt;u&gt;RAG Technical Flow Diagram&lt;/u&gt;&lt;/b&gt;" style="text;html=1;align=center;verticalAlign=middle;whiteSpace=wrap;rounded=0;" parent="1" vertex="1">
          <mxGeometry x="29" y="320" width="811" height="30" as="geometry" />
        </mxCell>
        <mxCell id="8yUd3ttRBoh8fM7PK0Zs-40" value="" style="rounded=0;whiteSpace=wrap;html=1;fillColor=none;" parent="1" vertex="1">
          <mxGeometry x="-910" y="303" width="860" height="495" as="geometry" />
        </mxCell>
        <mxCell id="8yUd3ttRBoh8fM7PK0Zs-44" value="Input Image" style="text;html=1;align=center;verticalAlign=middle;whiteSpace=wrap;rounded=0;fontStyle=1" parent="1" vertex="1">
          <mxGeometry x="24.180000000000007" y="500" width="60" height="30" as="geometry" />
        </mxCell>
        <mxCell id="8yUd3ttRBoh8fM7PK0Zs-45" value="Json Extraction Output" style="text;html=1;align=center;verticalAlign=middle;whiteSpace=wrap;rounded=0;fontStyle=1" parent="1" vertex="1">
          <mxGeometry x="11.860000000000007" y="666.5" width="60" height="30" as="geometry" />
        </mxCell>
        <mxCell id="8yUd3ttRBoh8fM7PK0Zs-46" value="" style="endArrow=classic;html=1;rounded=0;exitX=0;exitY=0.5;exitDx=0;exitDy=0;entryX=1;entryY=0.5;entryDx=0;entryDy=0;" parent="1" source="8yUd3ttRBoh8fM7PK0Zs-35" target="8yUd3ttRBoh8fM7PK0Zs-37" edge="1">
          <mxGeometry width="50" height="50" relative="1" as="geometry">
            <mxPoint x="210" y="690" as="sourcePoint" />
            <mxPoint x="260" y="640" as="targetPoint" />
          </mxGeometry>
        </mxCell>
        <mxCell id="y5fP4Ej0ORhRsn5MwS3X-1" value="Prompt Store" style="rounded=0;whiteSpace=wrap;html=1;fontStyle=1" vertex="1" parent="1">
          <mxGeometry x="184" y="780" width="120" height="40" as="geometry" />
        </mxCell>
        <mxCell id="y5fP4Ej0ORhRsn5MwS3X-3" value="" style="shape=image;verticalLabelPosition=bottom;labelBackgroundColor=default;verticalAlign=top;aspect=fixed;imageAspect=0;image=data:image/png,iVBORw0KGgoAAAANSUhEUgAAAp4AAAF1CAYAAABBHepPAAAAAXNSR0IArs4c6QAAIABJREFUeF7svXuQZNld33nvzcyq7uquqq7q7nlKWklo7GBnBDEzPe8ZST0SyGFDsEiWLCOMwAIk9FisEMt6zW6wsYsdYcBeaQUWIgTiEVZYFggbMAYWjDfw+h3E/sFoWEkz0+/HTHd1vSurKjPvxvfc/GR/+0z2u7sqs/JUREVm3sd5/M7NvJ/z/f1+5+ZZ+ksWSBYYOAucOTP35lo9+9/W19e/LcuyPTQwz/NL2lqWZVar1bJOp5PpfVEU4VX/OlbbG41G1mq1sna7Hd5ruz5zbL1eD585VufqWJWr91f6U1k6Vq8qT2XoT59pA+2I23c95etYlbO5uRnqoc2Urc8qX/t1rD7rvf50vP5oD/bBbiqD9nqbOQcbuO3ZpjJok97LjjrO36t+2UjnyP6ykT6rjXpP3fEY9xtPjvFxoV3edr2nbNri46v32J/z4rKxm19b2NvHWOWoP+p7bWz8v5w5e/Yz996x/zfvueee1YH7YqUGJQskC2y7BS69i217c1IDkgWSBc6dO3fv+mbnF7Ky81fzPK+oqQtO/srNH+ADQoEOtgNYwEYMDzEYxpDmYEOd3o4YnHwEHUAdiONj4vIu1wZgygEbuASYtQ/Yo+1xH/pB3pUA8HJXJbZzeMVGtNXt7TAHrMd2idtxJfgHTvvZ72r1O5D7uMY2ZjLR73gmHYJotXt1fSN77rnnzkxPTv691sZjv374cN5K3+hkgWSBZIFLfvOTOZIFkgUGxwJlWRavnL/w4+vN5k9mWbaLm33cQkBKUOAQxvvLKVocj1IpYBA8AB6xShkrrHE7dO7Y2FhP8ZKipz9td8gS/OovqGK1Wvjf2NgIr1f666f6udpIeQ7bDq1qAyqo3qNI8l7t9f73U/SuBt6x0uv1O5j6dr3XWGD/fgBJuf2U1nj8Y8XW63IA9fF1VdtVT+zr/XIw9f2o0NovWzY3W9mf/dmfqV+vzMzM/HB7/dHfTfA5OL8vqSXJAoNggaR4DsIopDYkC1SKZn5haenpteXVz5ZleT8uzCvBX+yqjdVPYA8VEBc7LmLBAq5iVwl5D8j2Aw+gY/fu3QHoBJLj4+OXACZACJCur68HQBFwra6uBmiNXdn+GYDG3evqLW0HHgE5vfJebVS7VJ/6AuyqHLVl165dvTAD3PmAqINfDHZ8xn2tc2gr4O3lqSydg/0BYsIgUKsBUr0y/pzrymg/8MRGfr1QJ7Dv4K1xx/V/OeXUQydiG/jEAuWzLGrZ888/H+zc6XTOz87s/+Tr7r3jS294wxua6UueLJAskCwQ7iXJDMkCyQKDYYG5tbXXNecXfrMss0OxWxPoAMoczlxVA5YAL/Wsn+JH3J/ATwCm8wCdGHpiV6t/VtkCT73qH/DUe8Ee4EtsqerSdv2vra0F8LxS+cAcMEgbtV11AZXEUBI36fGswC7gqVcdp+0qg3MdpNRuh+9YCQXCUHzVHkEdsab9IBRbuOLrims85qiygOflINDPi5VLylCd8cQiBk8PF6CcfvGfDrYqQ/AOSG+0O9nXvva1rNWu4lg7nc6Jg3fc+RPPPPbQrw3Gtyy1IlkgWWC7LZDAc7tHINU/8hYoy3J8ebn5xPLq0j/aWN94SDCkG75AJr7xX0795DjgQp8BP1fwXDXjGNUDbMaq2eXiEx3M3F3s4Of1o/7FyTcomJTnip+rrXH/dJwnGMUhAt4fEnmAI/UpVpM9rtLLAiYJTUAZdPBEzaVv/cYIO6Jsuvqptsbj7NtcXdV7QJNwhiupsXECFQo5dgZ8vc9+jfiXs98xKL5MeORq//M///OsU1bj050YLO+bmvyBu+/Y/zv33Xff+sh/4ZMBkgVG3AIJPEf8Akjd334LnD8//4Otduun1tfX70TJw13s8YcoX7wCD4CCu9O1DTcqxwEtlI3KyWf2owDGrmfiMV19xJUOODqg9XNd6zjPgud4QJH9fFb5HA9EAX9ANnGrwI+7jf1cL5u+ovrRDi9Lx6PcxuAJFBMnSVviz8C9yvV92M2VUaCQsgWyKMU+RsA9bY9hHcgFuB16KRuIBMAdKoFetyMTEq4xJkYo1rR9s1MG8JTi6Yp3nuenD+4/8BN37J/6YoLP7f/NSS1IFthOCyTw3E7rp7pH3gJra2uve/mV8/9PURSvkTFIlhEsEP93NSNdDTwd7lAnHWqolzoFNLiQYxCMP+scqVqcC2ChKjrQ4e5V+Woz8Z0Osv3qIy6TmE5Xc/UeOCR8wKHVwRI76VV/Kk/ufinMJDsRogCgUTYua1csHbqBfFz/LOek8uLkK3d5+zigmAKWKkvnApaAKwBOTG0M/5RP2bQddZIxUj3YzBVltxOhAz4ZAfDd7lxDcrUrxlOKp0+QFNZQq9VOH5jZ92NPP/nYF692Taf9yQLJAjvXAgk8d+7Ypp4NsAWUSDS/svKtp4+f+KXZ2f0PttvtHIAQrJH4IjAABIjx4ziBxd69e3uwKhDRPoEUAKttqGa+9I3K8thPynZV01UxvSdWEpVMUKTyHfRw/wKEaks/VzF9cBVT5Xi8IiqfYkhVLjGZOleJSRMTE724RdqKYhmrfKh/QJwn7rDNFV8gD4CWrQA32o7aB7xyuQGdABrwDVA6bOKW93AIIM/BWGWjQGIX1Y/L3q8RYkixCePsYO5wqmtItuV4wJ4JAvCpc9RX2R2b6VjGPCRstdo9VzvASwJXdxKwMjGx5+9885v+my+mdT4H+AcqNS1Z4DZaIIHnbTRuKjpZ4HIWWFpaemBhcelzZZk9MT4+npPgI5AAPHWD142ejGyAQ2VyHEqTL4sEVOlV5+vGj3rKouq4wfUZVY2YUlQ9QePKykpvQfY4I96TkQBGXK5qH2U7eLpL10HHt3vMosOeQ7RDqMMmAIZdHFpJauIYlaH9HAv4st8z/lFJgUnvp+yicoBtoBdXs4+R3gO1QBvwiRvb3fIeY8q1BPiiysahBlwbACGvHorgwKtxBk4BWZ8QALiqf3l5OVwvnA+A0naB53PPPddTPOmv2qzrsFvG6Tv2H/hf3/L0Y1/I87xa5T/9JQskC4yMBRJ4jsxQp44OggXKsmwsLq49uLa++k/Wm82H6vV6rps4SwuhcAJFzWazB57AD2AB4MRwouNQ1RyQ1H8HM+AhdodjJ5J3iDvtZikHlRFIpb2ulHqsKXDqaivnALI+Lt4+B0Hq1CvtchdyrPI57Pm5DnVALXBEfdhJ9cj++gPUHZDVp3hJJ5amIvSA/rjLHvDUK1CoOlBXvY0eg0lZHEc7+8W40n+PEUXRJV6TMVO5hAi4OuuqMZMRjRmhA54Vz5gruUjg2e50n6KVX7p+a6NWhWbUarXzs/umf/Spxx/5Up6nReYH4bcptSFZYKsskMBzqyyd6hl5C3z9618f371n8n8usuzjZZZNA0QCAE8UkaFwa7sLFeAARoAAVyIBDmIVKRs3LUpWDKQAELGKZLrrM7GGuOdR8lyxjFU2XLkMugNb7E7nXPoaHwu0uYsZOKMe4gljCAMOaYf6RfyqzokXsXdFk3YCigAqkIv9NVb8ORQC264iAnauSsfgjx10DG0EGt2tzeQCN73a4OOq95TBRMFXHfDEIOxGP9yuOpfrCaAm9EEqptfpWe3BXmUelE6NYVCpG7UQCqLPzWbzwuzszP/4zW96wz9NbveR/3lMBhghCyTwHKHBTl3dXgucOHH6r3fKzheyLNub59XTe5rN1XBjBgxxeTpM4lpFkfP4PNQnHcOyPioDAPLYQQCHOnSuXPE6z9UvIAUwATxdSQX0UO2AR2JFcQPTLk+YIf40POmm2ezBES52FEYgUMfQFmBLx6gfcnFTJ9CNndwF74oj6p3ajtKHehiDJ/alPyiashfnUj/qImX5+qi0Bfc69gAMY/WT64HtKtsXe9d+2YXF+1Gv6VvshketJiQDtZdrBfc57ZSdiedUmcR5eqyrTxio313tYTw61bJKrp727FXLdd2f2rt3z/90+Oknfj3P8yrrK/0lCyQL7GgLJPDc0cObOjcoFjhz5syezXb2lVqRf3ulgFVqlMCTRdeBCT6729Nd1uqT3/SDstR1+wJfrkrioncYAUwBD0AHQFA5ghEBCLDnsYUOdSh7rnJSFxAGDAKXtMnL0TFACQofgOngCQQRYgBsYS/sQ1n9EokAP5Q8V1C5ZtxF7yCNEgqEAqvefxK83HbY1utElXTwZTwd5nnv1zMJU7HKyTF+TfiEAOWYkAd9pr3qE7GYJE3F46/PJI0RM4xNBJ5ktYd2FBcfyUp9qLYBgjfXNeaL01Mz3zM1UfvDQ4cOpZjPQfnRSu1IFrhNFkjgeZsMm4pNFnALvDI/f2h1cfnLjcb46wGUyu1dLd4OgPgSOYINxX7yiEkdgwtcZbi7FkXPFTXAA1cp8ZHUD7hoPyqo6vIyAEXgiraS6ONQ58cAajpfx1KXyqd+hy7ACyhyuAaMgEOgEQUWRQ6wA6rZz7JN2q5+AlK0w/sMQKl+9U3JVR4n6bGkHhIAgKls1cPTnGgbcOhudNz+PklAeQYUHbIBNiCUuFMHTx1DHQCiJxexD4VSZQCY6oPGSklthGQwGaIuktR6ymm7UtfzonpKVQyeea3BE4x6qj7KPPHLeVFmnc3WqenJ6U9M7Wn8VoLP9NuZLLCzLZDAc2ePb+rdgFhgbm7xOxYW5z8/NjZ2p+Bmc7Od1etFdbNeXw83Z93wATQAAjhzN3SsdhKHCeyhBLK+Ju5ch47YTYoCqVeWSCIEABPSFh2Dm1vH4joHVoLQVRS9Z7Djltf5DqE8rhLI7DdU9AF4RN0EtnQOiitgqr4BN/TTs7Y5V9s83hOQBK5RPFF+gXv6Sb8AWuqk/MXFxWzPnj2XPGEJu+gVO7v728equk4ufZ46iVX0BwhHIY7VT8aKjH7AmAmD+qrJzeTkZBgzwSD9wB6qi6dpaRuPOg11dr3jAs8AqZut7KvPP59pqVS1pewmFwHUHgbC9RSOaweh8+i+6akPH37myd8fkK9takayQLLAbbBAAs/bYNRUZLJAbIHz58+/t9ls/pOiKPZXLuss3OQn9uy55FnlDk++7iMQSDKMgEk3cWAVty9uend/hxt7d9F0j8lE8cNt6udwvKAE6ACCgECHOY6XQijYQinzpZw4BjAlXtCB1RNePH5Vbe0uQh4ASfCjegByd6urfJJZdAyJMLKVbEo5KMLEmeo87Vef9YoSyjnEWKouVh1QnyhPfcXdD+SjAqsOxoZz+yV6Edqg83S8li/SK21xl7naiwIeTyocYIFMkqBYPovx9LALAFHjqOOAUOJ+PRaY90wcApRubGbPffV5TT2yznX8DEj1DKDbKRd375r4m/feOfNH999/f7VIbPpLFkgW2FEWSOC5o4YzdWZQLTA3N/c9a2trP5dl2Qw36pAVPV4tjg5Q4AJ1BQu3NlAKKAKUxM4BH6ilACKudtzEHmdJfSQh4fZV2UAT2yj3csd6wo3HOwJIKsch08HH4Rh3O8dzvuoF7kjcQZUDaj021F3MQLLKJo7R24ibXnW5ysx6of2AD7hjn149cUpluRqLuxrV0cvsF8NJ3xh3leeufpXtIMh1xXeAUANCBYBUrhfswHYPt+gX16ly40XrUVjDtZJn2cZ6O3v+//uLkM3uKv3VvpeAZ9kKS1QdmZme+rEnHzv0L/I8b1/t3LQ/WSBZYLgskMBzuMYrtXZILSDwbDabP9fpdAJ49mCuU62tCXjpBk6cIfAHBHAMrlnAI45tRNUEjABGXMNuQs6lLp0jAFGbHDIIAVDduKg9i97jIHH1qx7gjsx41cd+wJa6XS2krTqPReA9HAAbAZcAI3UCee4Wpm7qpz6USGIu/TGV3m5fwF71ONjhFg+Tie4C62Sdu8ta58lWcSiFK6Qoq8T7AuJx/z2EwcGbttE+rgMmGexXuf0Wyef6Apzd9c61qrJw+wPE7awM4PnVv3g+gKeHLlzua9trd9FNaG9X6vzYWP307l27f+jwM0/+6zzPr0c8HdJfiNTsZIHRsUACz9EZ69TTbbTA+fPn372ysvILnU7ngG6sgNpmN7sddciVTmLrgD5XOKXE6bM/75zYRpWP0gaIefwnoIcL2ZVFnevgyWdiIcl+xk0N5AIruMSBN50PYOLyVfnaTwwlZWk/aiCu5aWlpfBYUFRW1D8pn2xDLQTQvM++TmcM9SQEEWuqchx0Hey1j/hHxiMGO/pKAo5iPKempnqJW8Srsq6lTwQ8BMITiuJYVT8uVroBPezhKq5s4gok7nUUYE/6AuqZYPAse5R5YJ/1OCkL8Hzu+a+GZZSo82pfu9DuoqySlDrVJCzLwnUzt3fv3k/c9/rXfvm1r33t2tXKSfuTBZIFhsMCCTyHY5xSK4fcAnNzc9/RbDY/n2XZnbhy1aX1jVaAUODMXccOnDpWUKbjUMzcFY4SBZjpJi4w4JGbQIrDq7aR0Yz6F7vhAU5XRoFale8JTCx6j5KmNilWUIqlgw5wCeThnkY1VF+BL2COOEyUYr2ScQ7g0Hb6qM8kBgFN6jOwjq08iQcIBr79cZKAKP2kncQ/0g5gkeQhJhDsJ0ZVbVH5rmiiAHK5o0hSt/qNcss4uJue84FsHzcfW+1nIkA5TAT06rG2XHt6ZcIE9HuyUlnk2eZGp6d4XtNXtsirBejLSh3H5Z61K3JtbW6cPHDw4E++5YlHfzmt83lNFk0HJQsMvAUSeA78EKUG7gQLnD179tvb7fav1Gq1u4HLoF51ujfcPO/FeqJ6AhhABDF4uMOBENnHXfXEDpLtrv0ACS5oQBU3rMrGTQzYAhWeTMRY0AcARnXiigawABbc88AnSh/PkaceIMnhG3B0WFe5xJPSHrcZbmvtw9XPq/YRZ+qxqw7LOs+hjlhUYJhxoJ3EOcaA5iozdmesmFQ49OEKB+pQHukP9RHX6eAcj6uPt9vDbYwd2QaIYmtCPOiXyuGao91ca8Gm3RhPXO3X9L0tKpd8eLi7VFlTPkP7ivC9WLz7rrs+dOjBb/lKnucp4eiaDJsOShYYXAsk8BzcsUkt20EWeOGFo+8oavmvNhqNe4BE3bxRvGKlC9iUuib4Ip4OmGENRCDRs9oFEriROT6OIVXdZMXjMgaGUFJR0rQf9Q63K8so6TPudcAS97xgBPWPjGqg0+McPTSATH53G3syEM9Od+AFfig7Plf7WRUAO3hiE6oqwIyyDKyiNgLyDnmyAyo0rnrgFvAlhMABELugSDNOnMNkAbWUyYa3zScBtN3H20MCYje87MBEQzbnKUyov+6C92WimLCoPsIhaHOr7GTrzVZQPK/V1V5yB+qCZ68f3Zx49TssN7bZOnPw4MEfPzg7+aWU7b6DfhhTV0bSAgk8R3LYU6e32gJHj558R1ErfrXRqN8jIOAGTjwgsAL0cTNHRQTugB5gzJUnAMqz2AE0lDYHXJS6WC3DfU5Sj85FhUMlJBMaUAhLQ01M9NbvdDUTlQx4AprZ7qAMiLv7XXGeLIWEOur7gUlXBtVvyu8tVK4Ywu4/QKd9uOSBd2JQ3TUNuGmpJRZYdxe7q5BMGrRf5XuMKm1UPwVU+oyirM+0BZuoDODes9Ipe3p6OkwgmGgQrwvMo9Lizlc7gXsgVttkY72qb/SVa4trR6+u+jokB0jvJhddT1Z7u+yEPhdZV/nsfjFrrA+aV674Wh5CA47X6sWHv/3Zt/7eVn9/U33JAskCt84CCTxvnS1TSckCl7XA1772wjvGd43/ar1egSegQmylTiQOk/hC4AlY1HkAFyoUCS8eEwkMAgY6hthF3Myql/hBbWO9TuAC6CADXDd/1DSUNOoB/PiMyxhgBWxRJtkPhAm86LNeWXsTsCPeEDvgVkdtBNqxJfuBexKfHFYpS20CxHhPiAPud4d2LxubxgqpK6h+QcRublzpKN/YAED3tTs5JoRndJeVYqknQT6qKwv061zKAeZ1jNqqY1CAsR3lqr2ApyeMaT8ueJRlvVJ3uP6KvJfVft2KZ9dQ8dPaq0csKDGqcsWXZbmwe8+ev1Fvr//x4cOHq8d+pb9kgWSBobJAAs+hGq7U2GG1wJEjJw7XG/VfL8vOvcTOoW4CZKiJHjcHEKDUoWDi1nV3OEqqq5zuYgWgHABxj6P2AVaAphYwF6Sg4nksKCDFPlQ2ztV2ssqBVqAMeBHwAkEqj9AC+kIyi9oOiMbqosdJOnSjEAJwqLZAp8qhLPUL0ERtdPDkHNrNJMAfjYlr3icRhEj4OLi7mmuAJZSYLADVTChwhWNjf+oT9TEejK+DN9CNHYF5Qg6YHACn2FRluGqKvWJVNPSjG+OprPZrXk4pugNdCTwv9qfx0v6Z6R99/JGHfi+t8zmsv4ip3aNsgQSeozz6qe9bZoFjx069s14vvtApy7tR1lx1c5UsjlkEAhw+dTyQ5i5hVxPdPQ7gAAwOP8AESiznuTqK8kk5AIqrYF1FqqeYOZg69AK3AB7ATZkkuaDGAeoOkgATIIVtCB8AAl2hBOrc7ex9pj76wfExKGIDtYelkbzsuC0ou0CrK7c6T20AzGmvu9W1zycGPhYo1VwD1EEfuR5clXWVk+vOYZz+Mh6uCPu1wqSFvsvVToynwPNa/i53WAygveu6G6YyNjZ2Yveu8fcdfubxf5+y3a/F0umYZIHBscC1/ToMTntTS5IFhtICR4+e/M6sKD9fr9XvAEzkAmc9Sm78/SDHoQYAAQpR+CiTG7TAA6gCfIAMhwcgS3AByHpiEsoaTwpySETNxNUOiACOxEo6kNJPBpEYV9rqiiKQrLoVe+jg2Q+41A7iU1miCrAD1lD6iBVlOSnCHNz+HOvQzFi4nQE5gJQxAf5QhHUOLmtc44wTdQCe2Afoxha4z1FjiQFGGfescx0L0MaqsKuheq96AGD6xjXGeAKv7Ke/tNkXkO9kOMmv/HW9FvB0tTjvPmyhOw6v7N2z+2/l7Sf++PDhPLndh/KXMTV6FC2QwHMURz31ecst8MKRI381L/NfrtfrdwIiPL8bMOSGTuPcdQtA4DJ196eDpQOKA6YDnycVAWaCLBKCgCEULwBM7VP9nvCCqolrHNjRZ8DTFT+V6SBKHfQ5Bmr1kycAkVmvbf3AU2W4UghoA2WqK1bvADtvE4ovmffu2ndF1evzpZnicAXGBLh0CGTC4BMPh1tfM1Tb1Ra1GdviIidUgLhM1UHSktcPFHvYAdDt6jB2JFkJG1IftvV1XG9kOaXLC6PVdSLl0xViD9koy3ZWy8tvTOza9fG3v+3pP0jK55b/rKUKkwVuyAIJPG/IbOmkZIHrs8Dx46feVWbl58qyPKAbPIAQl+Lwifv0cq52HucINPkr6qPHCgKOrEPpi6uzVJC2CS4AHk86AgpRDwEvV9mAHAAB2AKm2I5KSjyo6gVe1T6VifqJWx0lFpWUuEjUS9pBu9QHKcqAFXViTx5tCSTrPJK2ACvsEJeBrQFZB3C1m+NdoQR8Xfkk7AL7oD5yvoc20G7652CJ6oo6SQgECivtpB4UZvUPu3m7qYuxoL9MHAgHAWRDO29BjOfF70MFnmS7A5/UT3vyUgl3G+cOHjjw15954pF/l2I+r+93KR2dLLAdFkjguR1WT3WOnAVOnjzzvizPfj7LsllgA1dsbAxXvwBUlDFu9AIDXNCucgJ6gAHg4Kod9TnYkuGufQIalg0CQNwVDizGyhvgiKLrSizt1jbUNo9rVJ1AsruXPbYRtRF1ETsBnvQRCARYgS4HN8CSNuJG9jUrPbbSQRro0bkOzNjeVch4uSxPzgEySUCiXx7TqvL9iVAAJuPhmfBAGZMXjmGi4IDu24BbxpWxUtv1dCi3N3W4KtyD2ZuK8ezvmu/FdpZlUD4Fov7X6bTCovP1oji5d/fExyYnxv7VoUOHNkfuByZ1OFlgiCyQwHOIBis1dXgt8OKLR9/TGGt8tl6v73coBFK8ZwChu+AdStyVi6IGVFGeg6rKxkWuclA6BZdaukj1aLsghqV2lM0+OTkZMr09MxuXK2tLAjfAHtCi81BWaa8rfSoTxRIlU4ClLHH90S/tI+sdGwGcuOABH4/xRLnFPa/+6zyV5X3VuSw9RB90DjGUDq3Aagzx7joHurVN9lV/UG4BTSAXVVf7FeZAmILqln1ps/bx2FGVAczG1wwTAVYCUP379u3rAb1sqT6yfBXhGh7DCTyjyjMWHjMMeDuMBzW97PSWU1KMJ9fxlb61F13tl48Jdfh8ddJR9Wz3Ri2EgRyZmp760WeffuK3h/eXIrU8WWDnWyCB584f49TDAbDAyTNn3tfaaP18p9OZBQpxhwOYAJTfsAENwZDUJ8GgK5WuGupY4MKXIfK4RODP4/4AHADM2yM4Efjoz9VXXMGApiBH56OcAmzEJHr8IDCjVwEa6huKm/oUrzXJEOI6xm1NWznXYxxVNxAJcApWiVEFuFD81Eb1VWAGLKJKo4R6GIDK0n6OB4ixN7ZgvFkw3kFa/cHVzYSEkAi1XeNN7C0TCBbrp8+c523mWlKbcLsD0+qDTyyAe8Cb60gJXajY/hXya4eks7Bkla3judnuKpTdmN7b9RVEAe6px0W2OLN/9gN3zz78r++7L1+/XfWmcpMFkgVu3AIJPG/cdunMZIFrtsCFxeUPNFdXP51l2TQnAVh8BlAcplC3ADiADhUS8AQ6SAoB6siaB1JcTaU+Yh8pQ+cCM7yqfmATdzkxlO7iJV4SGKNsoExl0z9vc6xqquw40Yh6XHkEjABSj4109z2KMUk4QBZQBsiS2e9j4Kou71FkPS4S4ARWHWhJVFL/XbFkZQDaQ3lAJucxYSAWl6QfAT/qsc5F2Xa492W3HFZJGvM1QqmfsAf11+3ORINxZJ9ePav9WpdTuuYv0GUODPW229XTj3rvi+MHZqf+7q5a9uXkdr9ZC6fzkwVuvQUSeN56m6YSkwVeZYFzFy4z9oDFAAAgAElEQVR8/8rSyqdqtVoAT0/QuZy5ACxctsCHzhWoAQzAAXAFOKLOAWfufgesUNtc5XQ4RSVz5QwgRK0jBpH2AcOutAKggBTl6ljOR2nz8AMHViAnVgZxfQNFcV3AOvGiuJgBaABY292mKKOoyA6S7mYG8vVK2fSd9vsC8bIT2eAAk5dB/2kfKq7aodAIvcr2DqVcQx5ny/XAsl06xpOliNPkOiMGlHJ9zD2UwsfhkklHN8bzeh6ZebM/FX7NMRmTbccbtVN7dk9+4B2Hn/ijm60jnZ8skCxway2QwPPW2jOVlizQ1wIXLiz+wMLiwqfGxsamdEOPF38HpoAnV5I8e137SZohVhCVE4ByJZH4uH7QGQNwrHziUsVlTdKLxwaqDD3nWyAM8BKfCOh5go2OQ5XTcfqTKxkABox8KSOHYt77K+e66gWM02Zc+sR+st/DFtRPf3KSjomfTEQfXS0GfrSPEAeURWwMqGJTtQsVmTFCKeUa0HbGGgj0TH4dR/u4BogT1T7q0qvH0wK2vhQSijrw6Uqut4dy2eaJXTeS1X6zPxeXizHWs97Lsjy/b3rq/e311fR4zZs1dDo/WeAWWiCB5y00ZioqWeByFpCrfXF+/lONRmMfMEKSB+e4uucACrSQfENMpo4nUQggiFVGYMzhRscCpyh8HvvpiiMAhTqGqgQQ6Vgpanv37g0qHDGSXh/nEA+pc/XPM8R1nvqB4qj2qVzKitVYh2jqkU1wmwOT6iPrXWJjAAsXNxCNAu3JTMCpq4j97IQSiq1oL25/AJwxJbaU/vYbI7Z5qANKKXBJuVw3gCzXFzYRnKocFGqHRwdwbddnYM5tA1RTtl4ZV7UrqOA3sJzSzf5ioNbSdq6dIut0F8VvfePgnXd99C2PPfx/pXU+b9ba6fxkgVtjgQSet8aOqZRkgStaYG5u4XvnF+Y/UxTFPkASaNRnj6MDdFCsOE4gJsATUBDXBhxwvitfKJjAmQMU8OIxfH485XlyCVnYxEnqs/5x6et8gBQQQDmjHE/+id3PlKV+672AlqQeledQ7WALDGp/nKgDYMewBTh5LCv1C4hxc3tMpOrBbQ+c6TgAM46LZWw4lrKAX/rkQOrbaLuHCCjBTNcDyzixDmfcBuBcgK0kIdlS7QD26T9Kqq4b4nJRMQF5Vh3Adc81FhKKyjJc92EMtsHVTlwr/QGMtb4ndm40GmdnZya/+8lHH/1PeZ530k9VskCywPZaIIHn9to/1T4iFrhwYeH7FpeWlFy0jxs4yhiAQRydK5/EU3KDRSV1MHSlD5AEbgE0AANFyEHOFUUHNK/DXcvApLfX4Yg6BTsscg6coEa6oocrn31qD+56jqO9wCd1AL1cRsR7OmSzDzUPYGa7xzLiasft7W5q4lJVN65yT8xx1zbwjD0ZP+CVbHupka7WAuw+Th4mwBJVlA/UAlyMPysUMBFQv3qA2I0P9euPR28C1monT9bC9g6ZlMU29W87kouYdKC6Yj8pnh7bW6/Xj0/PzPzgWx57+I/TIvMj8qObujmwFkjgObBDkxq2kywg8FxZXft0WXYCeApiyBx2AOKG7ook6zjioiWbHLUtzmQXBDhAOEziRheQqBxc5O6yBO6AOPYJagAt4iFVNwkvlK3jPPGF9jmoukJLopT3GTcugBVDuau49JWYV8rRKwugk8HtiqyWFJqamuqpm2qTw5bsRkgAcan+tCPahNoIeAKtHieJm1zbgGodp/eyqbu8UUZRTHWuP1Ne+9UvXyMUONQrtnW1VtvJ8id2VX3lIQQo6NhVfeKpVbSD5aCwATZRfdu1nBIqN2PF9aIYTyZk2icbl1n2jdl9+37o8DNP/Nud9NuS+pIsMGwWSOA5bCOW2juUFpibW3j/6trqZzqdzozDFFCI6obb3T/jMuQmi0vcH3kJbDoMaBtPIEIB5Vxfpon4TcDRXfnEZaLA6bNn5Dswqc0oeYIVf6pPrES6kivYQcnz7bh4gQoSgwAqQNOhFDVS5wjqiPF0VTOOdxSAyh2Nq1z1oNYCL7ifUU1xM7ui7OCMOqqyWfzdYyzpA6ojirIDpLYxyegped2wDMaRMdar6mFyoHN5AhWL8jOG9AEYZ2KhMnHdsw9g9vhR7Cf7oiwHtbq7judzz381a3Uq9/t2/8nljm2DOptn8xO7dr+rVm7+6eHDh1vb3b5Uf7LAKFpg+38ZRtHqqc8jZ4Hz5+ffs7q2+tmyLPd7XCCuUqAPiBLooLaRvOJudMAD9zTuesoOrs92O8CUtuk9bm/c05Tr8MPAcLOOIQ+AQ2UEwDw8wGGa9tE/1FRAGIhlO1DjsZ0qrx/s0i+AjzbHiUbAqMMt56gMnoDksC+FUZ+lxuImdyURQAauSPgCsNVm1tx0RZQ62O+JR4AvZaCcEnPqyzqhbOpYAN3H0+NDiav16w4w9i8i9mTyw1hou64dxlWvqPX0LQZPreM5COApl7v+uA67/T4yu2/2k82VC7+d4HPkfopThwfAAgk8B2AQUhN2vgXOnbvw3zXXm7+YZdlBd8leKb7TQcFv+tzsff1LlDKdw5I+YT3DrirFkkyqDwADcoFAj9cDGoAtnlDDscAYfeFcQQ5Q5vU7yAICgBZgRHtw1XOcg5/q8bhO1GOHJs7z2FHKBvj0ipqImumqKLDrKjDvUQgBe4/ZdWVZZRAyAMyhJmu7xknQy/kAJOMHzAJ97MeWTC702ScaJAn54vTAOG5zV1wdWB16/frjusF+jJ1PWqR4bm50MimeemTmIP05eHZB+sTe3WM/dPiZJ39/kNqZ2pIsMAoWSOA5CqOc+rjtFjh9+pW/1m5v/lJeFHf6Td9v9K7UocjpWFQxbUMhFQgAdkAfChmwiELmT8oBdPUq6HG10NVIXOpAUKySAiI6zjPJdYMHbjgnjvEEDMmk1mdgGAhCpaRs1F4AE0WU+rXf7aQyVRbA7HGJqLWKk5SLHcgE7gkTCHGBZRnUMpKJHNYBQ9YjZVwpD1URtdbjVoFzbKFX4ixdHfaYVL9uAD/KpjyUbZVHvCrQhU0AbGzpiiiqOP318QB8OQa1FRB3V/ugKJ6Mqbvbe8pyXs7vP7D/g0898tDv5Hm+ue0/EqkByQIjYoEEniMy0Kmb22uBo0dPfEeWZ5+v1Wp3xpnIuvHHqiNKkm7uPD7SF2IHWB2EAFMHIEAElzsgBbiixLlyRTkoZg68sqLK8m0osO5uVnn67I+KdLVU7faEFgDKVTyHrhj8gFuSbtwODn6AK+0FhrWdBdQBdVdFdTxqJFBH+4nVBNS1n9AIHQM4AnweB+tjr7b789CZFHi5jL0rygAjai+KJ65x+kOmOsDpAMq3gbFk0gKUA82yFwo0Kjiqs/rpttE6niieAxPjmee92F3s6+DdaW28OLN/+mPPPvXU76d1Prf3NzLVPjoWSOA5OmOderqNFnjp+PG/UsuKL9Rqtbs8VhO48ZsiKg03f1fCcO+66zZW1FwV7QdL/thErwvlCnDxmEPc0QCKx2A6CAEjwAmu/jhmFCUNuMStS+ILMOtQ6+pnvJ1+AOQkTDlUUjZwCITH8MVYkDgDjLkt6T+29rI9TAHgB9j1iuucpZtQEnG5oxD7ygCU42poDKoeKgBoMzbYhYQsz5inbcBtDLkeX4udPV4WOw5kcpGBJwBOH/Sq7Pd2u31menr6u9/21GP/Oa3zuY0/kqnqkbFAAs+RGerU0e20wJEjJ56t1Ytfq9fr97rS57Fy7uqOkiGCyxdoAIDclQvYAVyAGcDCsSoHJQw4wS7UCYBShurzOEgUvx5wlOHxhL3sYWAPgKG/qof39AFVFJUW1c5d6SiRDk9AWj+1lf4QQwmgxbGQ2q5yWKgeeMSVTHIQKqyr0r6EE+0CaFUOYwXUYguOdXvFkOyfAXLGMY5VZX1Onyyo3YyZj51vQ6XVsXFykgOa9x0gBlqZPHC9oHj++VefywbJ1X6l732wW97JWusbJ6YmJ//229/61L9J63xu5y9lqnsULJDAcxRGOfVx2y3wjW8cfao+VnxxrDH2OgcxwAm1CjhChdJySKy1yRI/rHvJIzRxkwMsLDvEWp063kFHdaheAagrYIAJkMlyTUCWgx+u8qAamctVdVKmL6fkKiLA50pbHJ/p7n5Ax2GP2FPUK1eRPZEGmwCA9AngVT8U6ykb6xjUPR7X6Yk/HicYwyjg7Eqj6kJdBuZ0nsZR9UgNxi70I4Z52olLmzbqeEIvSOgCnD0MYXJyMowzY8S1p3rUDq3Bqlf1jRUKXE0nDpgHF+g41iH1sgKU23JKgwKeft0D//5j0AtrCOt+tr+2Z2rfB7/tmcf/3bb/YKQGJAvsYAsk8NzBg5u6NjgWePHFE986tmvsK2Wn80ZcrNWNvlryqN+fbua4ogEilE/WWeQYnR9nRwMg2ueubm62MUgJwFg+CFBiHUqdQ1tQ/gAflcMi6IKSOCYSKOM8VDvW2IwVYHchqx3Al7azjA8AqTarTh6/iULo53lMn4M9UIKCS7ITEAzMOrzEgEifsI36ShIRLnfOie2g8nFZE3Oq8gB2h3WHacZV53vGu9rpiV5ub7VlaWkpxJSiVDIO2I7rUG3Se10LhBK40oq6CtRzrfiTiwYtq/1qvwSo/UXZnpuY2PNX5t765J+9N8/bVzsv7U8WSBa4fgsk8Lx+m6UzkgWu2wJHjpx8sF6v/0atXnsjQFMpi5Wbmps3kAIs6lUgB6C4KgcUcIxuniqTRBwAhlhFV9dw3RJHCPgINoAc3LEojYANrmQgB8BBVVR7dIw+A4j0xyHbQRaY8gXosQnQg0sXhddd8CiwDtW0g357ckw/gETpRREG8j2uMlakeRa6ylPd8ZOPuFC0z+M0VSbtkrrq7nHOIdsc0GO79wN12eMyuUZoK9eOjmGyAGRznod5ANqMiYM7bWAbIRFBAe4+q/2rf/F8cLUP0x/gmXVagvcX9s9OffjxQ4fkdk/Pdh+mgUxtHQoLDNevw1CYNDUyWeDVFjhy8uSDRaf4jVqt9kaUxipj+eJXEMBwOHO3J65uAA+l0OP/gBmBAWBKea5wOkC48uiPVRR4oIZRlrbhTqc9gBrwBdRRLrGB3NwBIpRGj/uMwZQ2yFY6TmCsYzxONYYhypctfP1R6ge2AHXgCdAEqLWf5C+OVV0cr36pTTwZiOPdZe0hBIByz71bq4WypNr62puMk9oPlHrMLhBPm3wcUDNRI5lQqB7GzvtNeIVPfLCTq7c+Rq7k8n4ngGe4btubYSI43hh7cffY2N84fPjp/5p+z5IFkgVurQUSeN5ae6bSkgX6WuDYsTMPZHn5L8qy/CbgpXK9VkoZMAG8oTqxj89xTCBubQcNlDLc0sArZTtEOmz5gu+xeukxlHQQN7+7eD3bGeWVtvXcmd0lh9iO0ugApTpY+gjlFcXOoRo1F9hEDQWk+sX1YUviXFF0BWcsX0TbY4XTAQ0bESureEmUTYdu2QmFEzWSkADsiqqt8lGqGS8PPYivA9z31Iv6rHOBVX+vmGHaiYLscMyYaB/PcXcFnDKZbJDcFGJbszIspzSMiifjqkdsBsgutQ5s7cLkxK53l+VTf3r4cJ4er5l+25MFbpEFEnjeIkOmYpIFrmSBF0+c+NaxrPGVLM/e6IktxHgCFMCGq16uArIdlVPnoZax5qLDkrulXfEDHAAfwZeghIQXykfpol1ADICDyxW3LODpLnwvg/eqX++BYFRCFm0nQQpVERUSSHL3vyuY7hZWG33t01jxRa2jHVIuyfAGHFEQgTS3A+VLFXWXu451aHY3u0O7YE025znxKocYW9Ynxc4eLuGZ/AAtoQ30Sa8onDF4kqzGtYHyHFRLQVf3SUjqg64Hrj9XUymftVCHFTzzvNbtnyaBRVbTM+fDKg1VeGe7tfmN/fv3f+yZJx79w7TOZ/qNTxa4NRZI4Hlr7JhKSRa4ogVeeOHo02Pj41+s1+uvdaWvXi+6N7qLyxG5qgVIoWy6mxpQIAbR4QPIZLkcB0zgSWXjssblS3KQjkf1Q7FDHaU+qV08tQco8ThJV+NctUNdwg6AkV7jNS21zR/3KThTWWRZexwidgMwdS6Ai8Lo7m7tpxyyzIEx1FVt9zbhptZrDNe032HN3dbAq4dM0HfZilAC9VdAqox0xhT4A8Bpl0CVPtFH+gC0Msb9XO20j9dYDfeJQgCxbuyuK8y813JKG+vt8MhMxXj6ZGpQfx4Eng6a9aLoPte9As+y087yLDs9Nb3ve9/y5KP/d1pqaVBHMrVrmCyQwHOYRiu1dWgtcPLk2W/rlJ1fKYr8nuqGXD2RaNeusV5yEWqVK3hki7v7lSV7BBJkUAN8nqSibVLxUA3d5e6Ape0onoCMu7CBEVzetBPwjJUwwNahi7qBUaAId7dvpzyVL7dwrAYDlICwjqdOIBng5BXYjUGUCwqIp13ePlcbgTwUY8VnysbYk+e/M4b6LNt6uYwfrmx/prorzawnGgCom4DmireHPwDxQC3A6IlpKsevFzLi+00asJe3LVbPadcwg2fWfaY8CifXlhaWDxOFLM+KWp6trK6cee29r/nYY4ce1OM1N4b2hyg1PFlgACyQwHMABiE1Yedb4MLS0ruaK2uf29zcPFCpZePdTPVKGXKYwjXrqhrKpccVspYlsIKq6KCCygYEerweSTJAChnZtEeQoj+pbypbSp63lYxqElg8hADI0fEAkra5K5e2Ac3AGW3FXY1Sp37SBvaxTiZACDCpHkGTwFXlA6+uIAu8FhcXQ5kCbvXTlWXWucSesZ29b3pPBj8gp3bTPu1XmxlTlcmyWqqHR2eybqvKkrvdJwuMHW5u7KWyVDYqrUM415XO0dJYqsfhmbVhueYYcx8T6vGkKOpwwGUdT2I8h0HxLMu8u9RYBZpc3wLP0MdWO1wfG5vrGouXJsbGP/z2t7/1D3f+L1bqYbLA7bNAAs/bZ9tUcrJAzwJzcwvfu7q29plOp71PG4nTwz2K6xQV00EUoAN0iG8EiNzFikKFG1iQwSLgLCSPWxcwA8YAQYGG6hQYyd0L1KAK6jy1QUqfyiIrO9ygbbFygZP6iXsY0NI2QZDqo02uiNJ3QE99YG1JT5ghLIDMddQ84BO7xcDoaq6rzIASqiIQ4uow+ziPtuKCRn118NaxDvyAtSeGsZqAzsP9r/2yLZn9fjzwie3d9Y3qK/urXWS0A4uMMwo2F2k/WwCdl1Od6UuA7a6rfZieXITiefGn6tLVk4rs0s95mV/Ys3fPdx5+5vH/mNzu6Qc+WeDGLJDA88bsls5KFrguC5yfX/zB1ZWVf1R2OlNAiYDIFTsA8pKbeXfhdk+m8bUTBR76jFtW4Kc/XO4oWd5YlFFULQDLFVOOd+XLYcvhUHUAfWTGA5dKZAHcyBh3ZRDopWwUNJQ3VDbqQ03EViQGOagD9rjV6RfwBEyhxLrSRTkOYw6VqMzEwHr2P20CdHGpcw71+H7qAeppe5zQw3GUEYMmfWMdVEIz/LrhHJWF3biWYvhkPIjz5Ryg3iGWbfGTi1yRva4vy5YeXIVpXPy7FDRxuff2d8qsVq+/NDu776OPH3pQCUdpkfktHa9U2U6wQALPnTCKqQ8Db4H5+fkPrays/WxZlnsFCQBBp/teHQAqUPdQP3Ero1SSUAMcxDAGcAGU1OUZ4RgMqOrBg7nGPXlG+1mPE0jikZ1AItDjcaaop7QZSAWUrgSersQK4lA7gTL2x4BD2SRMAX5ANPYgEz0GT7+YPI4SFzV2xc70HyXR20Vij0M740h/AFQmHIwFaiUxuq628p6xV5lk8HMeIBy76Gm3H3c5+EbdZvw9VAB7AssOnnpykfdnUL+gZV6BZ9ezflkABU87nWpVpUaj8dKuXbve9/a3PPmfB7VvqV3JAoNqgQSegzoyqV07ygLz80s/srq68jOdTmePg2eru3xNuPl1l7EhUUSuZL1naR+dhyLIMVK2cKcTA4lrGpggy1rnAEkAFckogC8KqbtrPZNa21HJePKQzvVYPwBV9QpOBS9yy9Mu3NGACTAKRNEW2st6pO4adlhjKaZYBVW7SYyK26hj1U5XBBkDB0sUTU/Aob2c6y5w+uYQqvfEdzJeuPuBP0IUaCeud8aO8rx8AJfJA8tqcSwKM/3yyQ2hDYzb5eCbaxLoBjL1inILKMeu9mFQPK8FPMN1lVexoP6I2yLP5yYnJ9/9tqcf/9OkfO6on+vUmdtsgQSet9nAqfhkAVlgYWHpIysrKz8NePbUu25Cg4Mgih4u6XhNSRQrgJMn56BA+fmUi8vas5pRNONMaH8yD+qhq1fusgXSUFN1riBKn1mT0hNsUNAAW4/ddAj25CB/+hB9BPZQ+gA5IJT2xO1GKQTGgDZgza9WHQvseggAEAb8A6AkW1GnXgFHQiAAT8ZI5wCZLFMFjLImajwGDny020MSgEolKmkMHDx9hQPGinp98gOIOnACvbSdMei1YQhjPAHP+FfqogLaedUjbR3g25vrX7v7zjs//uRjD/9Rerxm+q1PFrg2CyTwvDY7paOSBW7KAnNzCx9pNtcuAU/dwItaLZQLxODGBrAElf7YRgcM3fhZaNzd0EADsY3AlY7B9a1jBB6UrTYATmSOax9LBaFqocA6qBFPCEShbKKOAVK4mFHCgEB34TsksYC5wyagy82fQQE86aMfxz7q82Qj4Bu11MtVWQAjsB3blL6hAMZwpvM8zIDjqM9fcce7i5zrwveF68ae/sR4MTZqN2ozqi/jFYMkirCrzYAzkxbWMQXqGS8PMQgQGq3jSZtv6otzm0++Gnjm3WWVgH+/PsP3dnM9a4w1Tk7unXzPW5989D8l+LzNA5aK3xEWSOC5I4YxdWLQLTA3N/fhZrP5M51Othf3rV43W62e61p9iJNq9JnscKAFMPAbv4MJYIfq54oZIOMqlyfbAEqhbZubPXcqoMOxADCKI25f1Db2s44lAISKyKMWgVba7y77frGcADZQRHuoH2jDFQ8IukqFHQlNAEyBSlf0pBoKuFwFBvyYJPg+77/q8RhPJgTUB5AC6NRLuQ45rtQCkTqfFQsYY+yHiuoTDR3v9qIeV7xdQRVgauLhkyJsx0TEJw1xctFOAE8fg2r8qlwixkOvrfZGVsvy07Mz+z40O7XnD+6///60zueg/yCn9m2rBRJ4bqv5U+WjYoH5+fkPrqys/OOyzKcAl6C8dZfPkR1Q9rhho06xDJHHzOkmKJDgEZOeMCOQwMUKmAhEVF+cWe6u6FjNcQgBJAFW7UMti12vqkPlqg2Ap8oWQAvSpMbhRmb8AcR+Ty7SMb5OJcopsafYQtvjeFAUSRQ9VyBx+7POpwMYMOjwhIrKK/BB+AJxnJTjLnds5BMLoFBtxCZMPggvQGVEccXugKbKU73qA6ENgK3szXPZAUWd54qlJw/FYwzcYwMHYwdQYL+f4unK8yB+16+meDpkVpObKrnIJwIax831taxWFC/un535e08/8eiXBrGvqU3JAoNigQSegzISqR072gLnLlz4wOb65qezLJvmhg7YedYyqpS7pfUedYwbubt4XcWMFSngB4WRJxPhQo7VUc7nqTbcZF0pc/ByKHRFzUGHc91lrna58gcMATk6hzbrPWuEopDiBscuHoMpe6EqOzwBbbSNGEV91nGALOd4WAOAj7qpfWqL1iPVK/bysAbK9+e2A6f9XODYHqh0GCdBi2tGn2Ur4oCZEPhyWn6teJgB6jX9xpb0QWVgZ+xIZryDM2EK2BPwZAH5Hf2Fts4xlmGCWC8W77nrnh945KEHfjc94WhUroDUz+u1QALP67VYOj5Z4AYscOrMme9ptzo/l+f5DJCjYnC/urJGDKL2CRQdhNgHeLq7FnezK5C42wFIhyEd54/IRKkj1hMAoo2U64os58QqIG3xY105A9DctQ8coWC6oqp9KKbsB+gAKFczeypc9xnobhOUZFdD3cbqv7vPgTrK9/roZwzjwK/KQd1F4dT5hAJ4QpVfD1xibhPc59QJdPoxlE1dJEd5+7hmeFKVzndb0n+dQ9tjFR4ABs6DotyN8RymJxfdwFf5klPUb1RjxrrVap2+566Df3f60IP/7P70eM2bNXE6fwdaIIHnDhzU1KXBs8DRoye+L8uzTxdFsQ/wRNUTHMRu3ti1+qoM4u66jQ4GwA7nopgBkACTq5EcC+RpH+BJSACg41YFRPw8j8/UOah0uMldLQOQXJmkjyxzhCpKG1m+if7wGZC8JIShG4pAGe5GVt36HCdDET/q4AlgeR2AKOCKYk2fUJkZZ49H9XhSYDiGdmyr7dhCZQs0BYtMBEgqQnn0MAPZRv9ytaOIM37YmcQ0xtyvwTh+OF7pgGvrklUGRhQ8Hb5ljxD2MFY/sWfv3g89+/Tjvzd4v0apRckC22uBBJ7ba/9U+4hY4MiR4+8vasVnarVaUDxJQomX/QF0SHTRfoc7B1LBgFy97p6XOT32MYYK4ISYT8yvm6UDVZzkRHtclYtVPncR49ZG2ePm7MqZlwlg6TjUNx3rj+DENrTZYw5dYUUVBrBwLbs6iR2BUJKA/BxAmmPVRpaGkn38qVPAJjbxJCMHE+zH8fRB21EusRETBWzpYQaMF0ttoSCzXBNACKRyTRDPSvhDPM60zyctDr9cr8QUe9/aWZltrLezUXK1y77E4RLbrAlBXrY1Sbhwx8GD7201l//t4cOHq+DQ9JcskCyQJfBMF0GywBZY4KWXjn1XvV77xVq9focDjbufHdxckQM8HfQAD1Q+BxoSaYAPlDncrgCOq6WUB+ygcAF+roA5RJIZHSuDwBrnAzIOuqz1ibLnTxiKFTegkXYCk77UlMr2BCz1V6qeysK9TKyi9hGbB5xTP/bWKzZCXXQoxvXvCVeUr/57GEIM5Q7RDnlAs0MoLm+1T/t5QhEucmBZn9lHGIXsD2uPqX0AACAASURBVDjiCqYPHBvbDXVX24n/ZJKAbXDlc53onFbZydabrQCew/Lkopv96vvkh+9dULqLagK4ubH5jf13HPj40488pMdrXvo8zputPJ2fLDCkFkjgOaQDl5o9XBb4+ksvvbNR1L/QaDTudvAE4uiNbvQhS3Zzs+eqBrYcPAEi3MOutAGPOo8FzB0uAB1csLijgT2HWodM1DPKcte09nmMqMok6x6gc3c3yibPmHeg9HhL4Mfd667WeWyitwEgj93MftUAs8ATMIULn3HwZBxCAwJotVqveiykK5k6loQdHas/VwpdXfXzYkj1eFDiCXUMKqbDqrZLedOr4nd1jOAcKEU9ZWJAAhftYmxpLyor2/VKWwlVoL1SPEcNPLlGZBfGOiSQlVWyWvd7emL/1NR7nnrqMa3zqYUs0l+ywEhbIIHnSA9/6vxWWeDFF489U6sX/7Rer7+WGEpiPD0b3F3AAKqDJ/tdBQU8Yne4Q5tugMAYahrgeDnwBCjcRe119FPKAGAAhZhGoBUl0FU+lFjGgr55bKjOF0RjC7K6iY/VOa7aokT1cwmj6HEMdkC9JcbTx6Kf/Tje7c/EAdc3UEtffBF2nhzUz8XuYOhgzDJLgKfqxl6ouq4+M3bU4a5xjzF19RNgQo3n+uB6YmKDHRnTUXS1c+1wnct2YULR2ggTR8FoFz5Pz87MfN/pxw/9yXvzvFoMNP0lC4yoBRJ4jujAp25vrQWOHj36dK0+9sWiKF7rcXKeIKMblUOEx3miMsXgCQQAifoMXOBKjlU2IM3d2cAwMIFKCXSgQnocqKt4sXuW8wAady0DYSiXrsoCqGobbdI2X+KHmzkghProqmkc/4l9ADBGH/eox27SVhRNlFBULbefq8bAdnxlqU6WY/KnDPlyRN4+ztc23OSAJqELtA3V1IGX60Z9QvUmI55YVsaF/uOGV928Z3xwt5MsxeRCxwHC4RrLs2xzo5M99/xXs1bXqQy8bu23betqc8hnEhDU/qIK++CvG1v7tdmZmR9561OP/Zuta2GqKVlg8CyQwHPwxiS1aAda4NixU9+eF9mvZFl2d5wVHVxzeR7+ARluWktLS9nExEQvoxnXNC5Vj18EfIA3lERiKQE1FnV3Nz9xoLQB6PA4RsrVPr+pAiIqj38AGYAEnFwldJhWW3EJs0wQrkuUWtzzAh6Sexw+Yxe1bvbql4OtzlWfZAM9lUdtAMqwgc5jQqDydazK4PGl2A8lUu1CbfQkJfXHk7iAsDgu0MfcXeHmqu09QQrFlAmKyiTsQrYlplP2JCaUSYFfd6qH60LtwYXv7n9tly3Ub/1xnXIM/QBUa2ONrLm2mR0/eSJbWlnrJYbtwK/zNXepyCoCZ+zLsjy/a8/e75p/5vH/mJTPazZjOnCHWSCB5w4b0NSdwbTAyZNn3pcX+c+XZTmrFnJTd+UpTozhhoWSAixpOwAngMDdB6BhAbajsAKOqFocR1m8egINdQGkQKZDqKutlOnwy3uOQ50D6lQvkEU8JXBHfCO2QdUEqmOl0NulMgWZinV0CAXuBJMkJ7lrnv0eb+uKLZME6gICgTPAXHYEej3MARsChB6+4PCu90Af2z1EgXqI6USl9gmIK7o+SVHdPBELGzPGPv7EtLoS7S52AD1MYuq1EON58vSp7PyFhcH8Im5xqxw8ZcMwSWnUj85O7/vEWK383UOHDm1ucZNSdckC226BBJ7bPgSpAaNggROnT39/kRWfKstymps4Slns5pY9PGmIGDqULV+wGhc4MYWoiJThrk5gA4hDDcRV7dtR82KQBLoAIY8rROUETFBUUci67sagxDnIAlDAmT6zNA1ubj8GewBwsUpMbCxqK4+j7LdkEq5i+uVKLgCHqkjsJ0oi9XoYgquZQBvxf9gHm+qzwFiqKDZyaHRFUtsBFwdfgN1dviR56Xz9EWrBuKg9LLvEtQhsOugD1Ex8mBTw2RXZALh5lrU2y+z02TPZqTMvh3rTX2UBvodcC2NjY8f2jI9//Nm3PvHbyUbJAqNmgQSeozbiqb/bYoEjx09+sNNq/eM8z6eAKJQuQAkYA1B0g+fpMp5YI1hBJVRn3H0NPKKE4irXdmLyeBoS9epYhzKglaWB3GC0DehztbWf+uiQBIgCQMQfqnyHGQdh+uYwTjnYEaCNwQjXObGunnxEfKq7lmmHuUV7z0DHNe3uah0H3DoMu8sfOI0vOupgMsGEAfv6JIDYSiCcY+gDdROKECdc8XQqB2iBJ+WhvmsbkOrAr7bTD8DUlVDgVsspZWUtOzd3Pnvp6PHeKgfb8oUboEr9e8HkIdisyBZm989+6KlHHvqXeZ43B6jJqSnJArfVAgk8b6t5U+HJApUFXn753MfWms1/WBTFBOBAnGLshnV1D8jSDUvqnJ5Eoz9ACPAEBFGZAAPUVFQ5d9ejdgF6KGWoZ5wbj6HfSL3truzRRkBF55DxiysbOFb9PGMckKVfJOBQp7YDxEAS7QakgUmVSTIPfYohnTJob6xYAq8O2p5cRF3UDbwCYx5/CXRQFpMHt5vqp68eS4nbn6QiYDpWv6kPVZaxQ9HE9a5Xz7TH3tpGIpfqxB1Pv5gsYU/frqz2WjGWLSwtZi8eORbKT3/Vd1V/PmkL372sneWdzvEDBw78L089+vAX8zxPBksXzEhYIIHnSAxz6uR2W2B5efUTS8vL/yDLsl2Al0MZLt4Y5FDxdA7xitzEiN0EJrQdcHP3L1ClV55c5IAEnAF1wFZsM1Q5V/SkyApygCRuskCWyladhBXQVgcXnUtfiN1EEcQesdveFV3FQeKep+3YAcDCNnp1Vzyg6RBOv1ES1Tayy4nJxQ2NLQBGV4B7STfdtVkduOkfAOljB7ABm25TH1eUY4dy7KLyVA4JWiw/xRjG9bqd45UWNIZuN9ru7uNwPeVZVq+NZ2vrzezEqTPZ3NzcJUlo2/0d3I76/TsD3NOOMK6dVlZ2Oi/fcfDAjz752KF/nhaZ345RSnVutQUSeG61xVN9I2mB+fnFH1tYXPypoijGdcNhWRygjxuUx3uSRSyAYc1HAAt3KsCKagbYAVdsVz0ogw4ZqFsOUNrv2fNAlatduNDjRJR+8As4AbuumOo9gKZX75+OZ5kj2uCZ7uoPIQIAJkqvK6dAK/DkEIpiSPmeNY5CS/KOq8nef2ylMoiNdbX4cvCh411hdRc/5TvgOiTTB+IsfcICkKJWuvpJkhWudmDYl1mKJzYx4MaQzbgquUiu9lannc3NL2bHjx/vxTaO5Jf+0mz2npLttihqVZjJWFE7v3ti90cndzW+khKORvVqGZ1+J/AcnbFOPd1GC8zPL/4PC4uL/3uj0Rgnfg7VydU/QMPjHInl0w1KACmgEFh50giACRxRpj575rbKBUhcHUMR0/G4BHWc4gMFlyhtDlFAI0AHbJE8pPZKpVWbaWtcDgk7ACDgCYTqeJ2vVyAXNY+4VXdVA9cq1+M4vX6AkmWTiJ9Vf3gPiAFdJOPIlt5vlSEbqa/EYuqVdTulxrIPKGaMcNl73Kj6xhioHpZywu4owsSrcp2gzgKNeuUYwgu8njiGM3bF+7XF+HPNEVPLU42Y7IQJREcu5Cpp6usvvNQbg2386m171T6hiBuTF9UkdGJcKy9svjC5Z89//+xbn/69bW90akCywG20QALP22jcVHSyABZYXFz8seXl5Z8qy3IcpUuQs7yyFpbMcQgCFIhv5MYVW1Ngsrq6Gtb5BEz0SiIISUSoYbheAVdUQkAHZZDtgizFlKJYoq7illZ7cKmrLh1PfKrWH52amuopeiiQqlvtBQodfimXOEbAhnZpv7YB0gAnsI6yR0Y8wIqKSV2AlNoMxAJlKNE+KVhZWQl2IDkLewFgwLzq03vW7yRMQu1j0XsmBA7aAKIfp3NRhn2i4gowiU2ALCENqOFMCLTdE4y0X32SHdQvwiQY91hFxn7YhHVWuR4JQ+gpo0WlRF+YX8hOnjwZrgmukzKv9cJBPNmLZYeu9xdD7v1h/suzWjXORRleizI7t2diz3c9+5Yn9HjN9ISjYR7c1PbLWmDIv7ZpZJMFhsMCFy5c+OTy8vLfz7IsBMzhlt1sVW5tYBQI4KbszzKPFTzd6H0dRdREvVI+iqPKJUYUdQzYdfB0ly3qGdDAZ1zu+oxSCiQDQapLgIlblj6znb4AqrSZkAASiBhd1MQYwmM3trvxPfaVsAVs3S/ZBnvoGEIbeAWcAUdsDeyiZmq/Z6rTL2CN81F6aSN2B/Jxq8uehGYAgP7kJsrxGFsAUHULOIFcVGDCAVwdp82ME/t0ji+CD/TrOEAU8AcwQxxsmQW4PXL0WKgfe3Wyojcx8sSuBJ4VeOadkIR3bN/01Ec2Vpf+4PDhw63h+IVLrUwWuHYLJPC8dlulI5MFbtgCi4uLn1xaWvr7eZ6PAwYBmrKLj9UDqoBQd6/iUuWGT2wermUAJ3a1k9mNKgd0uDJKPCGQCJiS9IOy6Uk5tI1tGAZQ0nZiN3UscCtwAYZwWaO0AdE6Vsqe/vfu3dvL4OcJQyT4oFICbw6XHqqgegBd+g8ISTFWuWqT21THLy8vZ9PT0z21DmUP4OYcT+KJ1T8PgeA9gBa7s1lvFCWT/mlcXB2k/95eymRSQGgCi+cDiQ7cngjFgv2MH6q7A6becxzq8SXXcjd7OwByV/V85ZVXQpLR8spquB4IpRCAOtBe7xcLUFU5w/zH9yjLu88YbVerGow1Gi+Mj4//0Dve9vSfDHP/UtuTBfpZIIFnui6SBbbAAgsLC39naWnpHxRFsZs4vaB+1Rq9ZWc8IQYlUPBDjKS7vAUWxP+5IkkmNF2KFUGVi0vW4yhR4i5xi3ZBwmMDVR6gJxgiOYpseUCEc3B7E1eJ2xdIdGhDOevdjLvJGZ7cBIABUCh+HuvoKqHeA2O48lFFtc+z/AlRIEZVZdNX+oX7nHp1PstcEduJ0ssxjBv1M8HwfqqPgCjQJxsCyJxDGzW+jNWVJgbaRz8cToFxJh0AM3XqPB8b3jNZ8JUKqB+VNlzHRa2n4p85cyZ7+ZVzvRjY0KbOxUXVb+Trt1PAE9vJ1R7GolM93SjTlDTP5/bunfyeO/dP/8n999+/cSN2SuckCwyiBRJ4DuKopDbtOAvMzc19ZHFx8afzPN+D+hTUpEa13JD+UC+BCpRAgBTo8OQUICsGTAwI7AA2AJq2++McAU9XMnH/olb6oGifYITEGoAQCAaiHGR0PuuI4pr2eFNiSFEnWYoJwAWOvA6ePOS28z67LfUeGwJcuKjZThs4T+2kzTrHlxoCfqXiCjb12funcfXkIuoEfAkf6LmhO51wDbC0FFDCJAQAx3YxeAJ+HM8kgZhW4JUYUNmTNjD+ACnwSygBY6A2oTyTNOW276nneRFASucvLCxkZ1+ulE+dw8oEKlMxn6P8V+ZVnHReVhMJYj0FoOE67rSPTk9O/sTknl3/PGW7j/KVsrP6nsBzZ41n6s2AWmB+fv6HFxYWfjbP80lAMkBOXilDwIjH/KkruIa5yQNErpY5NIabuZRUPcKwu1wPSToob7g4dQxqGIpeDC8OaqobeAHugDkUTc53aHJQIqMeuAJMPU5QwAZk4naXy52kHWyBS9pth/sZ975/pu0AG7GPXDIqj/pQQmUrueOVhKPzecQl7wFOYlxJEFK9HuvJe8YFsFM5hCUQT0kCETYknAG1kQmBu+BRdXUO15OOBwo5B6j3uGKPteSaIZ6UMY+VZpWNreLkrQCv5cWJlD4vLC5lZ8+ezRYXF4MdezGpCTx74Bmuz7xTrSpRrTmfNeo1fRfOzEzu+8STTx76Up4LUdNfssBwWyCB53CPX2r9kFhgfn7pQyurKwLPvSh2wAqudwAE1UldAxxQrzhXgODqJC5lQJIydQzJKDHkoK6haBKDiLue410NBFABYLUHV7PDFqDDGpgk7ABVrvICO6rXgQiYQkXkHOIEfWFzYNsvB9ziuPVpO2EAKJX0AfsDfAAVLnPtRyF0tQ8VmXIZK4+79RhNAJP92BLIw3aor4Cnn9dPqeV4YNvLcWgF6pkEcB34xILrh+uP9gPkKo+xYvLABOOSiUFZJSHpfCmfUj2VdBSuqby4ZsWzzPvHcuZ6TOcQ/0nxDHbv4iSTqFp3AxO51vrGhTvuuOOTTz/5yD/L83xtiLucmp4skCXwTBdBssAWWODs2XM/stna/OmiKPbqJuxJKLqBCwKIf0SJdLhAwVNTAUFcpiwBBECwHeDSOXrPsk26meEGxlWtYwAHgELHeAY16qvKQk0LS0ItLwdFUMfzbHkgSdCh4/ljbVAUM5RO4NPhCVDEva1zwpqHExMBXnh8KOeipDmQ8x5Vj/6SoKP6SILCnexKsLugUUjpk08cpIrqM2PAPsqknyT9+IMDAHwURD6rLM9Al221j3HxeNN4cgA8E9ZBPDDXlM7VuMmWXB/aRhiH+q0+ESrAeHKNoFjTBo8bdqW9I7g0BV7w+fLLL4eyQz8V03gNCUI7FTw7iuUsiqzI8l4SW5hw5lXMZ28y2g7rxJ7cP7vvJ5964tFfTsrnFvxopypumwUSeN4206aCkwUuWuClYyc+XMvznxF4hhtLLbjQws2FBBzd5PmsY3y9RG7eumHL7ezxn8Tq6XzdqIAd3LsOdYCYu6dpJe5zVFVePVkGdROwcde7A7HHazpMUi/tcGgGigAsgaXaTia86iSrGlc1y0Wx7JQnvQjaBKi40AFZ7zuqIDZAvUQ5ZsF+HQdY4spGDcTOQCcxm4RUBEVLiSNaxaCskkf47OPBcYQCUI76r7LixejVV9kI9z3KLBMLxs2VVcYLVVt1omLSfiYVKodM+9htr/OATmCeeGMPDeA4ud4dvpXtfurUqaxWb1zyLHMlHWEf7Ke6s6LWs1/4jE13iOLZu/4iR7p03up67S63VOTzExMTP7JvYvw3U8xnusMMqwUSeA7ryKV2D5UFjhw59tEsz6V4TqBeOhA6qKGGxrGZuhGjKOom7lntDh0eMwjEAACABzduXHmxMf04QMuXQfJYRkDBXcMOWw62Qd1RbGtXYaV+YMJjEh3WcOe6GxsVEzs6uHn7AWrK87odPAEp+ota6KCIu11lscYnqilKKbbGvS2wQyHkCUj6rLEUTF4CUorzM1B1NRfYj93fKML0C3gGSAkB8Hpwx6P8ept5z7hhIyCZ8ogXVVken0rCmW/P643ewwRUriZQUlzPn5vLmhvrveWiarVGVuZ5+Iy6GsbPXO1cM2G8hvwOhqv9cuCZdyE7y6o48O41dXp6eurH75iZ+vJ99923PlQ/hKmxyQL6fUtWSBZIFrj9Fjhy5Njfzov8/yiK2hRuZr+BEhenluDuJGua41BAiZnzdS9xZwOaqHtAHjADnAAX7gZ34HFFjqxoKa2ECeiVJ/8AILiFBVr00VU+VFsPIUCpBOi0D+VM5QJvevXlfYjPVPnaThs8yQnFEJAEWvupjEAZsCZb4IIHllErHXBRYN21jppI+xkTV1od/BwI47ABwi+0HWWRrHD6x4MBVC8Ksiu3Ui3pF2Ogcwm3ABD92osVTs738lWvwFk2J/FLCrPWPqXvTKJcvcT+rVIhH61sfn4+O3/+fLayupqJsxjD0IdOpfhhu943FQW0Pewxnv3b7zGfl/w6dRMRx8bGjo/tanz0nW975ndu/69XqiFZ4NZaIIHnrbVnKi1ZoK8Fjhw5/v56o/6ZoihmAAbcuUCi4EI3XVQo3Mjuwo7VKAAQIGRtTmALaEUBdHXQgcobHSuDHvOIG99VTqDPFU+VgTIHsLlyCHgJonRe7OIGVLAV+929TSwqQKk+ACnAXOz2xi6om5Sn4zgHGxHL6aECxM/qGFRmQJSQB8BJn0mM8smCyiMZjH4BhNhFZQKSqKLEmBKmoTbIBoI+X/2A95SFfb3vbn/gXfs9oYoJAtclx3n2vye16Vwe4Yp7H6WasXf1NcBkvREAWOeF/5W1bLW5FiYTVXvGs00bG6BVrvcwLp3hTvIuWTg++tUAPHv97YY2SAG1cZzbOz357lceP/Sn702P10x3niGyQALPIRqs1NThtcCRI8e/uzHW+Fye5weJgQOKAINYUXNXs+/jJq6bPmqXLKMbuCe4uMoJnLl65OqoW5ZjtA2wRZEUECh2kPagRPk5scrq0OvKFe8BG50nUAOAaJ8vXo6CBmTSZ2AL+AN8Ue5Q7AAih9X45g6EAp5AsMO23rOOKaox/QSuHPqBWXfn0y/UQSDOFVD6y+SDdTVJHPNrBwVc20hAkp3os4c40A6V73Do4AkgEyZA6AFQTNlcxx6awPVEchrxnajZPjHoXbOddtZsbgQXvCB0IyjZ1UoCPQW1GwN68Toa7icXXQ48s27CFUlH8YSz+r61s6zTen5mZuaDb3vqsf8wvL+OqeWjZoEEnqM24qm/22KBl1469s5avf6Fosjv1o0UdzpAhIoBUDkYACQksQAdKGIoUIINwY9nksfrMcbg6dAEODlEqj3EUpJ1Daj4awxvrnI6HHED9bpQ7Dze0MsmFtLhWmUCJK7QMri+rR9sx8ovIOMuabXHlxwCvh0CUAGxu6uuxMECw4CcjtU+wNOVyHgSgrrpcEf8I+PiiVW8Ry33hCGuOZ2vNqh/JC5hN1eptY0QAqBbduKa4drykA/2A7nxJASlFfCPJyUCrrKwDO+8WmsWG262q5UNUETzIV8H9GrgKeUTSPeJZDVenay9udkpy/Zn//IbX/fj99xzz+q2/LilSpMFrtMCCTyv02Dp8GSBG7HACy8c+WuN8cYvFXlxJ8k/QIonrBAfCLiRtKHtLEUEOAB7uFy5OaOK0U4ULz67osaN/9U3tepoV/s8y96VR4e9uA7UXfoKENJ2+uUuW96zWDv2AhZxATu0oC6iNlK+u9Bj2HEgxSYArT4TuwjYuxuciYGfpz56f1FjgVoPHwBUAUpXtIFf1ObLrXkKlBIXiyoI2MbKKwoytqKvrg7Hqi7gjeJKeIM+K8aXpbWAVGJAuZ6wB2PlinOAXKl23T8l2tSKakkqZcFzjYVx73rUCV9YbVbwWa+P3cjXcWDOuQie/ZVbh85wHXXtUH2Pqmt0dXX5/73zNXe980133fXywHQsNSRZ4AoWSOCZLo9kgS2wwIsvHv3OsfGxzxdFcQfuTVUrl6KSP3AVxzdqkjZ0o+EJOrF7mzhCVDQWVgfy/GYPALCPG1usqjiQomIBfGTbA6aoT3FcpvrkcBy7ntUuloBC7aS/uqEqUUVwg7JHspXawxJLQBpD6IohYOkxjgAU6iP2jtum8lAIHdQBaLbRXpRFYmB1LuBJHai4KNOyI3Ct9hAri+qo/mosPUEHCOV60dhrv8IfVA+rHuDSdqWSvrvajGrJ2Op8bMNEZnJyMtRBopP6jiufMAniT5eWljIdT70OpoA/4xFs2alc/fqrALNador1P7FzmJDpGfDtMmTBy25KTGqF55oPr7v9WsDzkmu6XWW3X9zWzjbbG+def+drHrr33v3Ht+CnLFWRLHDTFkjgedMmTAUkC1zdAsdPnXpXvah/rtVqHeBmjascZYpSABCUS1RPV0FZwxHFzBNAUL6IQeQ8QRwwwfqUrh666xcXss7VMR4HSEIQ64/GsId7FUC+XPY9/SJbW30AtABKVDr1U/uAJ8IOKsVntff8b9nQ1/2k/apLZcmmghZ9Vpa+6vSJAEDONp3TL2seUAqQFOCnWqszdpXjbqcMYJxwC9WDO9thn2Qk7MB4sByT+qzxxD5AOQALhAoC4z+fDNB+2q5jAWWAn2MYT2ym7SyE3+8b4ICLfWLVmEXqqUtl833wSVg4LyuzWlbLOnnVRn0H5heWwwQhz6p1cdt6J0DNK8UUqJVbOrShu+4nqHoti9df/du9fUd0Oi3lWW0ePDj7l95w991Htq8lqeZkgWu3QALPa7dVOjJZ4IYtcPz4qffnRf6Zdrs9g2KhwlAJASNuwH7zB9BwG+Mi5Vx3mQIOlANYAia6sQND1IlbGUDk5q/jYre2u/mBJoDEIVHt4DMA4C5gElEAEYAN9zHQ4u5W9tE3+g2UYlcWREcx1HbaLVjTZ8Eu9scODC7w5vb1vrl73SG7n2qMqxr11ZVtoEh9RQWlHrWF0ArUQ2DV4RrbOygzCXFw85hWD1GQPQTqlO1KKWUzbj65cds5eGt7fD14OUyCAF0mNEyW1H/srnJdHQVeAeF2u8wWlpaz5sZm1m51n0tfq1crG8htX6v1JiqvBs9KKR128KwS+1udgwdnvymB5w3/PKcTt9gCCTy32OCputG0wLkLC3+rtbHxf7bb7X1YAMBzMELl9Ng/B0IgS2UATH6D5cbuS+qglukm7koiQKGycA1TFsCJC1zHetYywAWkaT9uW9zB7qq+CAtVYhXnuULINiCNJCmpasAN7l4gBBsAbyTX0DcHQ+BG5dI/b4cDJcDr63QC9QCRA7+riLQtVm2BNeAfyERVDe7konrEJGOGDbEf/fGMeJ8cMP6s9YkyzPXChIDPqMhAu4Mh4QMXVcOLEyUPH3C7YiOuF4AaJZmx1Wf666EaPlmhTa4EU05l7zxb32wFxXttvUqsK/NatdxQXl3rFycDlyqeF3+FhtdNX/Whk7XaG+vf/Ia/9JdnZnYfHc1f19TrYbNAAs9hG7HU3qG0wMLC8vsXlxY/0+l0ZlxVAgZdLeOmDsgJfnDR+pJJeu/w6qqcw4i7bQFJd2kCIySGoHTi1nbAdTgLtz3F5XUfAQmgcB6gCmAQa4qipfoEPkCWttNXlUlb3RUNhLvbl/6hcAKBgB9KnV7J4salT8IU52ALt4HDEuPFRUiYAO5hjmU/4wA4YzMgFEWUerGnLxIPyOqV8vup1PQXaNYx2IsJhbZhf/Z5+YyRyiKrP7iy7YlKOgYFGTvSHoAW8CRsJP7SUh5g7PbDVvSHZOo2DQAAIABJREFUc7n2HD4VC9pR3GdzI1tZW81amx1lKAU1s9WpFHsALfTzVY/YHG7wbLc3s83W+uIDb/5v3zy7e/exofxxTI0eOQsk8By5IU8d3g4LXLiw+P0LiwufyvN82pVAAMfBE5DzBBKdo5u8wMmhDJdlv9g4wAK1zF2wAKxDGi59ytL5rsCpjbQ3ViwdimiTtgFWrkB6eAEQgdter6hwgAeKsEOig6G73oFQkl08BpQYV8ZfyUuK8/R+xuBJeYQ5xIDkQOYAhz306i5vjkHpjTPfgTomGg6sDtKcj4scFRaw9YQslYU6C3jSLp+IoEJyTQC5nOuub1fAgUvG1Scefl3Qd1eHuZaZfNCfuM18P3ziU12DnSyv17J2q5Mtr64EAG0Hxbh2yTJE8aMpuQbIEt+O34RbUacy21dWl86/+Vvuf3D/xERKLroVRk1l3HYLJPC87SZOFSQLZNn80sqHlxcXf6Yoir26yXqsJEDHzZzPQB9gpAxwvfe4QdQojnH3rsMcQALo6QYfr9EI9AG+KIgAgyuWgKe7hx3OAA4HI49DRLHk2nBwxsXrsa16L3B0FZa+A7XeH/qusuSK1T6Ba7zWqbuT6TfluYsZwIwVTUIjgnu3+1xtoBCYUh+xk7vp3Q3Oe3ffewwtiqL672PHeDL+QB3tws640L1+JiT+/aSfPuZxzCX9jPvuNgLgY4ilvX6NuwKr/Uy4HMpd7aRPVX2EJhThCUfhGfCra1Xmd32sNyY7FTwV47m8spjAM91khsoCCTyHarhSY4fVAgsLSx9dXFr6h0VR7NHNH0XOn1UOeGo/YEpMHxAGzODGBhA8QcZdy+6+BpoABpRXYIQEJOJLKTNOUvHwAAeCy6lbaoPKcnXXk1mANrYBScRzAoLEfHrilLvc1S6WJ0K9Qy3F5Y2rnefMY2vgx8Fc2wg/6OdKB6piuAK6mATQFtXlgMmzzrkeNC6MK5MTlq7SMSi+xPl6CIbKdSURG7GN6wRbq21+bXC8xolJAP1HfcTWjCVleP9j4ORaAnIdGn3ywXvsrP5orFgmKoBk99GqDv9jjUbW7i6ppIXnNV7LK6vhtUoe4q9yqSv28xLQfpXrfbh+YfT0oub66rlH3vzwgxMT+Ynhan1q7ahaIIHnqI586veWWmBuYekjq8vLP12r1QJ4ouD5gtvcUEnWIMaTJYB043W3MtnbQBUKKeDJzRrAUYeBO5RDv+E7eHo9LJuEoghMEDfIZyBa5aDQ8YrLGNeuhwHgqiXmk3PYTr3arrb4OqWsg6q26F+PWxSs6A+FFSWO+EnAW8eyRiXqJuDJuYA1F0usfLpLX8dQB+UwJnpFrRb0osTqvSusqg84dTsAm0AfYReyuYO46gfweY/iSr9j13g/xZN+aB8xydiCV23XeGA7Jigo0Q7UHiag/nqsrMMuEy3q8NhUwJO2heu7m6SUdZOKwjWelVlzbT243pWAVMHnzgXP9Y2184ceeEjgmVztW/qrniq7UQsk8LxRy6XzkgWuwwLz80s/vLK68rOdTicsrAgsskg6Cpe2A5yodYIMAFXbUKJY09HhyNUgBwKgE9VM9U5PTwdQEoAp1hEYBeAEZbrZu+qHsuZAgBJJvF5Qlsoy9EPnuioKuAEfOodFy3WeQAyY02cd53GiqGtAKtDiT1XCvvRLbQbGUNRoIzAD7GMzj2cEmoEnbMA4EaKASu3KrNoJmKMcUh4qIHAKuNFGziOEoZ/STKiA2sRSUSjMlOtqo/Z5/Kf26foKz0bf2Mj27NkTrmq9Z71WQI8JDAoucI69Uch1bakeEqRUH25zYNjXWgVsCeXQMbjc6YNPxgD1MIa27qce6hP2ZZqgbGara2vZ6upa1miMh2WTwrWSVaszUEaRdR8FdB3f5UE6VDGezfXVMw/f/+AjSfEcpJFJbbmSBRJ4pusjWWALLHDhwuIHlpaXP93ptKdxqXu17oIENAQqKHpAHTd3j98E5oKu03Whqgx312s7z0RHqfJMecGHK5WAnbuiiet08PD6iD1UX1BWucG7W9VBjrYDfIAu7naSe1z1BLa0DzBxtzjQizqKPV35pD2APPW5u1plolSiPlIf59M+2kR5qJYovGx3e1AWgO1qnyt+PrG4RO3rLo+l86mPMQDUPDu+n9156hX9x7VPtj7tZZLjQK6nFLEIv6vgTKJ49SddOeg7oPNdcLc9oQAAv44BGrFnc22ttzxXCCPofgdCtrsmVUsr2fqm4L+K+VTSkbLde9+3IXe1awH5tebKmce+9YFHJiYmkqt9C37LUxU3b4EEnjdvw1RCssBVLTA3t/A315prP1eW5WxwEXbXGNTNlZs+AOLg6e5i4BGAAoo8AxqoVZnuxkcFQ0lCXaMtQIIDEgAJ0MZAGSc0cS5whLoWq4nukiVOEbjyWFUHM/oKfABRtE37vSzsSnkOdShquLuBKuxPHKQrY9SDesix2AQFmOMAMcC0H3gzjn6sznfXM7ZytdMnGDqWOjg3jgVFBffrjPI43/vlEKj3qJW6zqRmapKiOnnPtcZ6q1JeNRbarvKBX8phLABmH2fUTwCX8A8dy5hzrQD18XeICYOUz83Ndoj5lAJaBhd/vRsOUamjLCx/1S/wgB5QZbUvvvzmb3ng4f0JPAd0lFKzYgsk8EzXRLLAFljg/Pz8e9bX1j/b6XT26wbKzZIEGm7eugm7qx2g4Wbtz9IGJADPfkkfuKopF1cngMqzvXFFc4NHjQImdT5ADBx4VrbDCmCAeuUxhSho/eoHcpS972BH2ZTr4AJsopSyriRwRgwiiioQps/6V/9JsvI6UTjZ7yDL+OFCRgHWKzBJWz1W0uGXY3F7A6aMqfa7uupQ7Mol7QTUUMIJmwAoaWM8mXAVW/sAPWCR9tBnHnHpoI1NCa1g3HUM7fKJgcegxv3CRtSHoq7juP7iiQHXrF+rKPX1+li20W5lK8ur2cpaMys7eVYba4SYzwrqh9/VvtZceeXQAw89lFztW/BDnqq4JRZI4HlLzJgKSRa4sgXOnj//7vXV5i90Op0DukGisilujgxr1E1XfVCFiPtDoXSVKwY9V9AAWpWjOnVD9sxqVChfzJ1HNeKuB0Jw3QMU2h+7UYEQXKoOBYCUgxPxka5wEdOqdtJmAMvduLhiiZ2k3SyZRH0Ogx5f6cCIyuhtxH1OtjnQBuA4eDIu6i8QCSABwQ6eABcQFgNhDG+UCUjymTHRZ8IlcE177KT3NQ49INGL/gJ7xMayjJer9AJyrmFCGpic6JpGFUX19AQongbFdQvU89knB24f7IiNVd/axnqVqFRWCmbvX6AaJniNTNnu682NkGwk5TMco2e+yzVfDPctsLuA/Cv3P/DNDyXFM92FhsUCw/2tGxYrp3aOvAVOnTr7rnan/bmiKA4AWdxggQx3fxLTqRsv8ZIyIjdwnYM6hVuTmz3AiNFxSQI7evUEFJXlayaiwuo43+5ufwAOlYu2AzUojNRJH70NrmACadpGe2kHNlD/tB8V05VP7OHuV4CTuqmD7Q4y3m7gjvJjFRMAc3uQcAQUoVrj1geIGHP6jmIbu+oBdn8ldMHbTxiD6tEEhnYwKXDF0m3PtQHI67ryyYz6qLJUvhKOSBJjcX8mTDpHsZ6qm2uAxCGuEc/8d1VVdbtizXio7SiehHP49UafwnXbboVruVFUINkLU+n2p93BRZ+HheXXutnuPNu9M/R3wE62sdl8+fVveN3Dr9m/P8V4jvydZjgMMPRfu+Ewc2rlqFvg6NET76k36p+t1+v7HRb6uV9R33Cho6ahAOoVwHFYINnGb8A6ToqVYMDB1ePqUMgANOpzl6a72SkfFzWxpB7PSPm+1iTwgBKnfrIoPK5R+ox6htILAKsPKHSu+gFuvKoO2gwQuRqL/TxcAFUQ2EMBBESJt6QOtUm2daWQY1m6iHMcXmOFGrc/bWI/3xkHZqCLvqse/TE5AYaJbeU4+sTY0p54AtIvLIJjGC+uX8aKcATGTK+yP9tdgfcVElx9p6+on5wTX4u+X30oGmPdU7uPbu2U1eLx3VCF0O8QU13PskLrsrbCKg7NjfVwnrLdh/mvVsuzzfb6+QMHZh980733puWUhnkwR6jtCTxHaLBTV7fPAi8dO/ZdRV78YpEXd3BTBTRIysBF3E8t080UJQlYcvelbsIonTq2l2DRfUKREkHkGtW/3ut4QR9Z84Ca2uRgpbYBHoArCqRnQKvNJLVQPzDJ89hRzchQxzWOukUiCqodiq6OJ8vabQYAESagfcQsAj7qJ654V8ooh6WaPDTAY2VRDoFz+gbIYRNiK7UfhY8JAmonV18AJlsM3d3/QD3t9isWqEVFpU0+PoQuoBrSfsIjUNt9kuHt8b4zsXCYRVHmevFz1daFhYWQ6a7tura0pqoDPzGiKKqs/SqbcR244sxkwMvQcfQjq9XDREQuZ/VxvN6olkpqtcJ2lR/6Xna/H50ynCvFVjGfwYZDDJ/Kai+K4vzsgakEntv3855qvk4LJPC8ToOlw5MFbsQCR4+e/baiVv5Knuf36HxgRMkNgKQrecAW8XMoWzqGG7QnprhK5hDlLkriAbkhB1flxkYvIUZg64k9rtbxRCCVzRqP6oeOwcULxAEnQA/H4X4HZIA/la1zSAxCocSlTnnqC2opEKtjeQY7bmOUOQAtjmnEfgC+ylBdHuvogBkDH+Mfu8f9qUke/wloo1yqPg8n8BhHD1FA7UW9pH/YR+2VHQR6+sMtDaQRm4vqjN2xo9qr93KluyLOtSkX+szMTHCl6xgmHMCtTzAcxAF9v651rGwSAzCTCxRYB2I/VnXrWLWDSQjQCogy8WB86Cffgcq7UCUVBcDPyuzlV85lSkDqqdplN0Gs67qnXWS/593ll9BJtxta9SjQTqf1yoED0w/d95rXJFf7jfw4p3O23AIJPLfc5KnCUbTA0ZNn31GU5a8KPN3VKsVCN0JUT2AQaADOgFVc89xsuVFjU1zc7AfKgD8gCIgBEmK3tCcSOTiiYnKj9kXGUXIpW8c6MANSHrOKCulue8AMldcVS+8fMKP2uQsXIIqz7mMXN30hREHleBtRH6kTt6+rb0Ah8OhhC/QfNRQ3Nqqsx6M6lDLmKhMl0BVSfw9soa6SjOWudrUXdVpjw8QDewB4l06IqkmJjlFZPOHJAVP7BYJSMfVHDK6HJMShAXwOcZmNRlAeGXt3qzM5YEy0T+USUwxUui0AY53jMaveT59E6LjV5ma22lzLWq3uShN5rQLT7kLzQOuAg+fLBw5MP5zAcxTvLMPZ5wSewzluqdVDZoETJ848m+X5r+V5fi+QUbkpq3UbdaNEXWGhdxQ5sou1n+Nwqwss3VULiAKeAg5c1+6GRSHDFQmMACzEVDqoOIACJO5ydeUOUIhVTm78wA7gENyj3UQq3KsALAocZRJDCCipr2RKo4jiynWAQQHlGAdTB3rcxw6mwKCDL5CJAqlyGSvq1T6FNkiVBA7Vd20TtHldOsch1xPJHHZ5z/WgMQO8mVjIltgYe9ImHetw70+GcnWV8QZcec69x1l6iAZQiS3VX561ztfVj0HVpzzG04/xRDefZNE/wJXvhdtG7XC1m3Hy71+rkwdFV/AZvn+s85lV4RA8avMieNITngK/vTGiXcUzgeeQ3Q9GvbkJPEf9Ckj93xILHDt26lBRq305z/PX+81xbKx6nCAqURxrCfBwDjdnGu2g4h0B1lDZgCLABChRuUCfL13kiSQCDgACmAA8VScuXJKLgCnADgBwaAZo43hWYIt2uyoILANcwAc2Qo1DOcM2AIsrcexDfaQMAA43rteB+gbUA5643NV2wgNQ5FS3L0+FGhvH6zoMMdaMEdcE4IgS65OViy7hKvwBsKRcFGyWXMLFreOUbCMIVr2+igEqJvAGeJI45TZkkuDhFTxi09XcWLFWHYAqtnFV1NeZZTKBd4Driu+ETx7UP/VZoSOudPu1Es7P8mxzoxVU27X1Zni2e1GvB+DUE470pKPqrwLNi8t+JvDckh/OVMmOtEACzx05rKlTg2aBY8fOPJAX2W9lWfYmbpSV+heSA3pqGG5fVEoUQQdQbtaoh35jBYoELR6DCHgCMQ5LQInKFVSwSD0gKoAQeKpNgii9Vz2opCh1sesaaADuUD853lVW3NIkyngcKC5WIBQwoS3YAximfIdargeHRuryurE70Ec7HAb9PfGTQK2Oxz4AfawEM6YqJ17T0sFM5xF3Cryh1tJm4mMd2F0xRg0n/hNoBDx1HklAxFGiolO3x/oCd76wPhMMj7nkOIGsX+9+HTMh8MlTfI34JEbvUUAZR4dyrgMH2fg7Qv2onwJLLamkPqyE59VvhthPrfNZjXN1i+y+vOpnZbvXn08xnoP2S5/acy0WSOB5LVZKxyQL3KQFjh8/8+ZO2fmtPM+/CTVSrysrF5937TdolCdusLiJiUGM3ZruRkQt1LGocu4yB1QFD1K63BUv6BDMAK5AMVDhCSqAo6urKH2cp1cAipu+XgElVKu4/cQAkmXNOT4MKIDuMkf5I45U+1BAgTZXgR3UsRUqsNu4n6sbmI+TXNxWxO+qTp8gCABpG7DlAE3fUFz9XN7rPBJtAGX6rb5oHwokNvBJArGzZOHrGCBf7/26UPkeJ+qPJ6VsIA9YpM9ch5SpV9kOGzgcAulc71wn1EFYimyFqsm1CsiiiHPdAd9+/XFdkmwU+p6V2dpqMyw03+lkWa3RCK+DDp5Zu/XK7MGUXHSTP9Hp9C20QALPLTR2qmp0LXDk5MmHap38N/Iif0MFNrXg4m42qyVnXOGTlXRjx03oblh3J5K0IlgAzFDZuHG7wuNJJbiAcVu6okbWL8ocYOCucoc0V+lcoQWMcO/TFvUfNZK28xlXNUqWK3kOOGoT5aK+ATwoYzrXYQMA0jZ3/6KUOnDqGCDIwxJidQ4wRD0FVrEZUBmXwfjQp36QS5kAqV49QYkx97hM2qN2+vJVlIEKjV1oJ6BLHdiOCQug5u5ztY8VDrRf+wjRqCZVK+HaZmIC5NMWbMk16zZ3+/gEh3HzlQLUVsZK9esf2GQSQBsYe66VTMlT4dGZefb/s/fmwbZdd33nb+99zrnDGzU8vUFPw9OALBlLliUL2ZYHhpRDg0MKCA1JJ51UpyDQSXe6/0t1pSqBhKIbqAQchgQ72A42GBunXBQQSBlICJObTkgHmoBlWbJmS2+605n20PmutT/n/t7WfdN98r3v3ruO/HzuOWfvtdf6rXXO+uzv77d+ywp5HipbXlkJyme4KZpJnTGWs8kujOlklft2/bKpek1VvnrTkUMPp8VF29UL6bpXa4EEnldrsXR8ssAmLPDciy9+dZ7l/yqzuLiIRQtKp8QkzUIfFS/3Jyls/KQJoDABS6FE2dJkjKoHRPlURcQvAn4qg3hAn6AdYASagAqV72HDwwvuelQmlau6EcvIRO8VRhZIAZH6TJAh4NZ7Z86cCYtyaJOuBwgBI9SHFdUok+T2BPhY9KPXxKLKbizwQd0jvADlD/t4xdNDK65kcpiiNJL/VMeqD+hLQJN8ltjFL6zyiib93Q3BwGWuz/3CKg+bftzQDlRu9RcQKbv6VFoCRvUduxShoqq8paWlsMIddRT7csPBjQQ3JijaXN+3A7e5VzwBXsAz3pyNZlkf/BhhjNMfAC3KJ3XExoAuMavh/SwLY9qybOZan9ZVUD614Eiu9ih6Xtfg+aWbjqRV7Zv4WU6nbJMFEnhuk+HTZfeWBc6cWfrG4WjtA3VdH2WiZTL2yiITNS5rAAvI08QvFQkYw6WN+5KJWe8LHFixjIvVx2WqTCCj69KkjsCLd/l61zaAhuIEeNC7tM27XQED72b3YAcwAC9+QRQ2I0YRuwj8BFIshEIxpR4oYKieQK8g1ytk+tz3j1cygyrW7sVOKAAZCPQZ8A08AbO4u4FkHcvfgi+UbY7TNVCzUcK9KugBCrsDXdgOwOUGgHHhc2xyDe/e9uOPsQUszlTCNn2V7H3o0KGgerKACrujzFNvfy729TGkXNfXe90dHu0hGAaS2Sde41fjXA+Vpwc3cIxZQJNtPnV9wiSmbUooHZPleQBNgWeA7OVlGw5H4e+m9VBI8Yw3BhFEt1vxVN8tL5374hsfuv9tR/bte2Fv/aqm1u5UCyTw3Kk9l+q9oyxw9uzZb15eWfvnZnazdzF6N3VXFdTkiGLJZElCeQDIqzsYBIjTa0ALdyyubJ3nVTrABIClXFRPr3rxt8qXcgesAWYe0NQGwRlQhXqq66E26m+UOkEEwEl7VB5qrf4mNhBYxiY6z4cs6Fja27WzryMKI/ZHZVSdCUUIkJHF5OIoxdgX2NNr3L6qh9rdzX+p99lBinYDWFyXdns7e1XP18GDs/rBg7PO8Ts+qVzAE1D1KriHV9WFvgeqcfP7vKook3r2uxABnsC4z+fKGGMMc5NFWbouNxiAq2yp8lGr6Xv6hbJ8P3k7osyqP9k0IdSt/Y4AwVmbTinrxTCC5aUVm1bKtduEvd5DiEwRATVAsglCt/exsrL03OMPv/HxxcXF57e3JunqyQJXZoEEnldmp3RUssA1WeDcueVvO3/+3I8XRXET4BDiGtt4QxRB72pEifJAxeTM5AlsqHJBtWnVHKADF7ReM+kCSro+AObdx6hPKGIq26ucgAKuTn2OoojCqdc6n+0yUUK9uqa/PVhjYOoCRKlM2gsQAWXdMADqhD2BSUCasmm3Vwx5zwMR8EXdPFARFsBnAD8gC8gBQ7jTiZXF1cziHg/K3HSQxgoQoz60AxDzrmkPYeRxpS4s1sIuXsnGtt7Vj1LO+OIYQN6Xi41RwfWZV4F1LiowKipqMwp+t14o24wvPesfY9cr/sCt/y6pPK6pvwkFYZyiaBOrug69vbDYSO+PxmMbjcZRCbWoiEvx9OP/mn4cruFk2WI4XP38Yw898s59+7IXr6GodGqywJZZIIHnlpk6XWgvW+D8+ZW/srR0/v39fv8G4vLCKuG6nqloXmXibyZcJk+/KAf3MhMu4MkxTKberUy5UsJwa9IvHtIAFNQtygZaAeRu3JwHz259gBzUJ+wgOEXBAlhRxVAdKcuvtAZqAQDiLX2uSimCOhcw69YPW3XVRn+cV5X1PpCEusr19QxIqVzVQ65gYmM93KtOUvEUw+pTDgHUACU3HcC+Bz5uYKirvz71BP6og+ynsugDwBGg67YVJRBYBq4ZU7i/NZ70QGEnlKALvh7GsR/jgrGOwgok+nhZoJIbANULtdzDLHXp9isKKvXkNTZZV9sjWOq40XRio+HYxtNJ2OFIMZ8sDvQ3Gdv1+7a2uvzFtz70yNv27cuSq327OiFd96oskMDzqsyVDk4W2JwFlpZW/sfz58//08FgcBg1MriMy3Km3gAwXvFDvSJODfe43if1kQcPykC9Y4JGMVTZgjE/yQNmQAUuZdQktu9kUsZtruMpl3qiKvnXHsZUBouhBBQsklE5KFlcR2V5eCZ+EJVK5+Iq9vGT7PkObGI7YMyrn9gHQMF+eh+llWOAX6AFGFQdPFQDI7QVUOUYYNeDKKmVfGomYK8LW149Bt68EgrcoQbrNTGRHO/BFntjL8aBh1wPWF4lxwYoo96eLKqib72CzXeA/LD+ZgTw5OaG+nAzQnwmi8P8jQVjl28pi+a6NxK6flCg2x2K+nnM26lE8cGWTWM1myuYbijqoHwq5jPe/LR5ci+W4HNzPxObOmt1dfnJxx565F1J8dyU+dJJ22CBBJ7bYPR0yb1ngbNnz/+15eXlHymK4rBaj7I1nkwCFDD5oyiiRnoXJJO7V5f4XGX62D8gi/hHwIoVwqibwA+wwnEApGI4Wbzhy+e6XZXWg5uHT6AGwPAuXkADsAAMPfiwiEfvAZycp+sAadgRNzaQ5mGJOlIXbEF9/TM2p+0ewPQ3C5+8WtxVDzdSLT0UowqqPKCZRWE+FIB6ebClfb5N3X7yLnDsrjp5gPWwyXV8vOhGqrHK9eNL5wF03CRwYwEQck2Ope0+pAEVknMBfuKUufniO+Lbp3KpN3UG9Pne+cwFZRN3ThJ4RjU43ggKPIONWnVYrnUpn2urQxtN5C1o433bRUbb9Ysme6+trbzw+MOPPra4mKUYz+3qiHTdq7JAAs+rMlc6OFlgcxY4f/78X11aWvpRs/wwqlBQxFrwBDgpnUkVtZBYTdQ+Jvaua5QJHRBiJa+uFdyGo7hKV5OyBzt95mPkvDu2ey1gjBjQrgLGa7VBk7nfCUdlAQI6H0D0rnbghPoAOMCJjhXweHWLtgCerLLG1sAUYARYs2Cmq5QB5CiQgH0X/rzSB7QDSl5hpU3YEqUWJc6XDzB55Zfrcjyg6NVUxgxQie2pFzcX9I/syeIwD5uU7d3x2MeDN2OVMcl1ZBO/SMzfnBAq4aHWjyPGM+/5seBTYgHpbHYAbGNHXmMv2ZsbAG6kgiu/bqycVtbrFzEetY7fi7qqZuNUq92lcJZNHbbX1NiS210LjurrATyHK1/4qocefSK52jf325zO2noLJPDcepunK+5BC5w/f/6vra6u/khVNYeZdMME36p1xMxp0vNgKlNp0kQJQ+UjvtMrYsAmEAaICAQ0qQoAAU4WC3lo4LrAGGUzYXtVT+/5RTGAiwcoD68e0AAr7zrvqoQoVz7XJDF/+gww0XkoWIIowWpXRQPedb63PXUFtDy00B61mbhIYggZvvSVysdVrmM8DNIX+lx/048+XIE8nNhU1+RGowv1XFPnE4bANbzr3oMX/c/Nhc5TfTyAYQPO8zcX3m6+n/yNi2yAfeh3+hl119cJG1G37kp5xqeuQZwp5RDXicudmyrGL3AMxPrxT6gB9a2zmPieFExFu0pdaZbIYxrGgsXvpRYcqT5e+dxu+EwxnntwQtnhTU7gucM7MFV/Z1jg1TNn/ofh2uig+QjdAAAgAElEQVT9vV7vMDFvTL7EoQGG3g3rIZIclUCZd5XqPV5zDq5JYFXHEK+pY3FlorZ6VY5J3LuaffnevUn9VZ4gChj0YMJ7LGrSNUkUr/P96mdgS/Ul7yjX9q5dr8L5+rDoiBXzuKFR5PwiFCCJ87EtNkEx0+eyv+qqesuOWjik85UWiroCnkAXKiMubg9awC0wRMyu3lcbXn31VTt48OAsUwGLkLyrmfAEVFZiN/WaVFD6Gxv48eRDBbgxoZ2CTcAOyMc2wDjKKrGYahvt5eYAmOcmhvGkOqkvFePplVJ/DX9joONRznVdwk1QyqkT9mA8AbQ+x6fO5WaOfvc3Vf4mihsf/33R9UejiS2vrdp4oi1Zo9s9KMQWQxiU75Mbq/gLFW1D3k/2P7pmaM0zW1tZ/uJbH3xLWly0M6aCVEt9D5IVkgWSBb78FnjlzJnvGA/HP1YUxQ1eHfNXBhCIV0RpY/IEULoTPCqUytK5mgBVlndzo3QCoTrHK0fAA/XBJY2b1IMZYIi7k1yRKJIADTAAFKNMAjSUiUJ1gRIcFnrEuFUPOD69jsqRyon7nuuEab7dBUmwQvkADgoe8IPNgM2NFFBcxx7mUSqBJUIH6D8fTwt4cg3sDbDgCsYm9A395dVW4BXIRSnVNbiZQWHFpirHAyir3Am98HBJOYwnIA4lHKACALFfdywDs4wLIJGbEEEdcOzHdHB1t4t/sA9gjfrJd0P9izrK9WkrtvAw7NVXr4zyHfLv0Reqv7/hYTzquqvDiU3KaXC7h3GTFaEaAk9/A/XlAs+qqW08XH3usYceeTzFeH75f8fTFV4fCyTwfH3smEpJFrikBV4+ffpbyvH0J4uiuJlJFEDE3e1hwcMPMZFACG55va9/uJKZpAEsAJByWQjD9XFjAjWc5ydqgLWrlDFRM/Hrcw8WQCB18tCMCxOA4lwPHIQJUA6wgvLJa9qG8b271YMtEODbgx1QTrvHUx/AxtvPK6EsBNJ7qKw+1RUADmx6CJVdpPoJoPW+T//kE7JvBJ7da8gGPrWWbAioEa+J/QIctemCGH++/bwH/DPOPGT7G4Pu2FFZwKTKkjpMNgVBthLrC3oJHbgQ0mLdvIscaPY3U9w8+S1Dua7sqnEmu3KDpGcS0bOrF+3RM98jXyfGE1u/enDVOeNp3PxA22sGGLYYSy3wjMdGEF0HT0ZqVEDZAWmzP5+1NTZaW33mjQ++4e1p56LNWjGdt9UWSOC51RZP19uTFnj66ee+oW6qDxZFcdS7rwEYYASli4nTu5jJmYhi6F2uwJOOB65Cuqap1JjoVte1vEsbMABCgEkfM8fxHug82AJnKJNeXQQeUch0jCABOKJ+nOshU+95UPMgSn19nUjrhI18LB+AhVLFANQxgiHSIdFuIAgAIXzAgzEqq2xLqAFubmIpAVYAEPXRQ7iOUR3oJ2JA6X9fF9zLfjcl4mxVdsAbpxQylvgMG3LDQR5RxgU3F4QfoJrr/JBztnXZc8PEjQ39xlhFUZ4hVqs+A9K0WccTX8lNC6oqfcF44TuDisqNmezDQi0Pryi4Ok/Hon5iL8akT7dE+/hOenAm5IPvA9dq8sKqUknch7Y61M1DWCYfgFNq5JcbPLWL0nB15cnb7zr5rjuPHEkJ5Pfk7LLzGp3Ac+f1WarxDrTAc8+99DVZbh/J8/xWJlEPCcBRFzyBLFQ14IHFIbjtgSTvTgbsgq7Sps/BVU1KIh0PtHbh0k/uXhVUebymKwBeriX48KCnthIDCpwCULymrdQJlW4jtRJ3KpCEEkWbgRGABvt4xU/ndHN+AlF69tcHjlHU6AdUQq+EefgH+oBQ6u3LBrKwN8/Yj2v7GE+ASjDXBWOUQO/GVp2wlc9egO25OfHqrL+Z4KYBpZnxSpgFsNa9idGNACEHgDE24AYKIKeO+pz3gD/c/9yg+RhOlGsPvrxH2EM3TID2Uh51Y2yrffoMRZoQC8CVm5Cwg1GeheNWVlfDDkdagKQdjuIY6YWvyMXSfWbXuOOmwHM8XPuzk0dOvOfOOxN47sCpYU9WOYHnnuz21OittsAzzzzzRF70P2Zmt3n1BnUMVYxJF/hQPX0eQpQxAAD1CZXTK1/AHuCGKxG3La8BPSZp7zYFrLy9OB6ljAVLTM6cD7gAYmz/qM+ZwAEfr3rynsoXtACxQDM20vVQBgEBYF6vZTdAyqtvnK/3dD6xknqNfXWMzkeRA6iCG7V1A3tgB2xwSQOawDzX8dCFHYkf9Ood5wE/l4rxVB1VFnGo2I9xRts3qjfvAWI61qd6An69ygk0A47dGxE/dnW+3N1aJCWbyA6ECOiZsAvGImop/YhKioIJUDLWqAsqLv0GhGIDr4izql9KswdlfzPBd0bHatxyPjd82EULi1CKledzuDYKMZ9aZ9Uutfqygqdc7XU5/dyJ24+9OymeW/2rnq63WQsk8Nys5dJ5yQJXYYFnn332waI3+FRd13drgsMt64FLkykAwERPAnfiC/1EC2QCJ6h0KlNlEQ/ngYPzUaz4DAjy0Nd1OaIKeRcksW98BiSjwrESWXVEgfOQwMTvFbOueqj2ADnYDdcpbmsgmNekClJZQCFqpQdPUjB5YFedfNu5JuoYNqMOHp592UASdeN41DvajiIIbAG3KKFeZcPOAByvuwqzrqG4Sm3JSd/S9yzMUfl+RyMAinaiqnItVEhuHPQaRdnfrGA7bgZwj/uwD8DRK8aMSaCO6/IaO5KNgfK56fLt7CqjfFW5HpCJzbm2H49+rLGBATdzOj7Ur98POxyF9me6kYk7HI3HMVPD+qr1uI5dsZ/+wSr3q/gpueBQgWdTlZ8/fuPRdybFc7NWTOdttQUSeG61xdP19qQFBJ6WFZ+qqupuGUBABiSxOAI3Ma5SAJIJH8jzrkXAFagCPjURMiF7oEVt0nukM2LC1rmok8AeEzEwBugAWCxeURsAXeLnOBdo1nUIGdBnHloYFLhbgS5s4MFbCh8KIPDhFU8AT+ClVEfYgeuhgnnY9mqwd0VjTxQ0YASlVfVDleVv2VhlsKAGldODGPGrHm64hi/HQ6iuw9gBzlFkcbnrGPWrd3HrGA+PACVqMPGbKpvxBOirHd1FQKon/Y7qy7l+vGBf1ENuAlCYVQ4xnB7iAXnGGqoox6ttlKlj+P54MKa9ekYN1rPaomsR9uFDHnzcJ8op3yufygxlWjY4sH9/XFTU3kwqpnNtPLLVlbWQZF6vL1Q+X1/wtODmnzx1+Ib9Tzxw550pxnNPzi47r9EJPHden6Ua70ALPP3CC/f3Lf900zT3everhxFNhppUBSyaTKVWeaAECrtKk1fccHMChpQPQJHChnKJ+0Pt8qZVWVIEUcZIWA404j5mcgemvNtZx3q3M6vQ1Qb+Bi5Z6IELFEgAZgBG7Ad8YRfqCXRzHqDjAVE2FtAAK15lAzxXVlYCuKJuUT4ufg9QXTt61zG2xsb0l8o/fPjwDIxRkqkL0Ek7PJDpGJRjFEAAu3sd7OQVcvoQ0OczlEggTavP1U+AGMcDnCobxRbQxB3t3eWcR/gDddU49zdA/gYGKPQLqIB4FvtwQ6T3CVnQGGe8q48Z83qPMay6aQwoBAB1FPD3CisqKzYl7dVsR6s2M0CA6pDOamBZL+4QtrS8HJTPoLK6NEvRTjEGuqnKa/o1k+JpdfX04ZsOvOMNt9/+wjUVlk5OFtgiCyTw3CJDp8vsbQs8++yrtw4G9mt1Uz+A8sPqXsBLFvIQwap1r4ShSKEe+n3UmRw9wAB3uBK94ohapGsyyXv3MC5Teg6FFnclSbh1Dq7LrssVOELB9Ooq0IGyxXUowytzfIZLGRuSdN+XS/t1Dp+rrrqeXhOHKXDUe75MrzYTU6r3PPTSXu86B4CAYupD+wk1AGLpZ52H6x2wJMxC55KnFIUXqMY2uMp9n/v6erv4mxLsiXLo6804QtXUM6DKdbEZ9cEW9CXQzJihThcLafAhE9gaCJZ9COEAeIFhD+d+BTxjWmUApCqXMeuh3XsQaCffF/Kcqn2Me/o6tLVdtMV5edGPOWTr+J0YjyZhtft0WlkeyihCDKgWJYU2vQ7gmZs9e+yGmx6//fYjCTz39jSzY1qfwHPHdFWq6E62wAsvvHBzVTe/bpa9ybsnmcQ0SfnJVO/7SRvg9EqTT2qt471Lk+NRePzkiksR2ET1Aw78tYAAwAZlDzULOPWqq68LYIVCh/pG+/hcdQCiAB3grKv0oXp5dyptYOU3bnW9lqLmQRCQBwKBCurmYQywwiZeIURN9vVTe/y1ADGAFnAj3tW7+L3i5mMgsR1lUT4gBKh7FVTXwX4o0dgVW/m2eOj1NwK43H37uclAySUMgrZ7xZA6+psiIBegVF2BRgATxZXcn7i39TxTG1s3O+8xxlUPFHWe/Q2IrgEo+3HM+f57wXj3fazjvAvfQz+202p2KZ86VsrncDgKq93zrBfAlEVJ1/yblmei3xcO3bj/sftuu+35ay4vFZAssAUWSOC5BUZOl0gWePHFF4+MJuVnMrM3AZtM6n5hCICiY3zOS+8KxY3OZIgC563MMcQiArU6B6XPgx1ABLwAXHpm33B9RgJuFCFcph5WvKrlIQ6VEnXIq2KU5wEclzdKnQcuD3h+pbFsBoio7ajKuPuBTXZRwh7eNQ6Ac33OBWIAGw8lHkz4G1UN+xESgIsedz9tJ0RB19HftAO7ecBBAWW1tVdk6UviRy+mMmJrwJGxR997JdjfONA+6kUuVPqE+EnqiJ266ne3vYwHxpSe6SfZwrv8uUnYKH8rsCu1WKESOpY4UVbs811hbHnF1l+LvuY7Bhjjnmf86Fll81rgSX+VTR32dl9ZWw3A2RsMguLZrctmfiXLurJenr184qZbHj158qbnNlNGOidZYKstkMBzqy2errcnLfDss8/eaFnvN4oifxCwATCY3FCFUDVRpABVPTP5otKhOnVVN85BFfT5FnUu8Y5AiQc5Jm4AxitA3YTeqF86HxWIdqBodcujbioXtzLXAlQZJACYXlMO6huKIy5htYsYPOCaVE+sXvcuW8VYKlUOQLQReAEhvq70D9f1QIiaR/05BlWSa+g4ru/BU2Wj1tK33jZcm/I8+HjA696UdFVT+oD6MNa4Nu5/+hSVlP5G1fRg78GTuEwP29iZmyKuCeDrfeJniQVFkUQNZwwwngFK3idOWPUF7FQmN1kAOuom5/nQB/ocNZ/vKSqy2ol9JlUdMyDUcTFfljVxswa1pQ1BkfIpV/vyyopNJtNwvMAzgHeb53PTP4p5Jnf9K7fefPQtCTw3bcV04hZbIIHnFhs8XW5vWuDpp185XvSn/7bf678RpchPdhspZl4R7KqcfvJDCQR6AFtAwLsd9Z4mcQAWIPPA4UEYMPTxnbjqvWtY52zscox7VnsFD6XNK5i0X9dDfaKOwBag6UFM7/m6eQXWhyJ4JRmVS20XeHp49yof9QNSsC/He6AByABnbIHtVQb7xgMtQBDg6cMEvG2xDXbA1sAnMO2VWWwEIPrxg9JIn3OjANz7umMrrgncelWWchhvlMe1vW1QDr27vVsPAI92A5C+/WqDzvPjk7EQwC/AXRyTjD3qwTkowrQJFZXPuSlj3Hmll2PzfvtdqpvwvdJlg31D8vjcsnbf+QCaTR3yfLLDUfgeXSyz/BX+TOa9QgnkX7nj2K0JPK/QZumw7bdAAs/t74NUgz1ggZfPnbt7tLz6S0We34eqEyequLczypCHK79AwoODnwBRbFCwmPw9BHKMruN3QAJeUbMAVhRFAAsI0nW9OoViBRD4Z18PFFO9B2x341k94ACqOoak87592ErnsEUmEMZxei07+7RVKs/v1S1beyUYWENN9sDj1V8P2bSNPvH1UDv8zkLkNO0ucKFvVT8UTP2taxLP6BXOruJLHQBZ6rfRmPEQCxhyngesjfoUiGO80A4fi8y1iSsF9oBaxhxjCaj3Ma3YgHoBjl1XO98blUlICUCI8gmM+u+AB1Sdh9uc7wwgrPJJYeXDBrx6rC0zJ+OpWat0Fta63Os6fK9DOE0Imygs7/fCscvLyzaaaFFb30q2bN/kb+C0Kq2aTl9645u+4q03LS4mV/sm7ZhO21oLJPDcWnunq+1RC5w+vfzA2nDl071ecQ8TuNyEmoSIQ2PyRBH0Cy1QXzShogjxHpMnk3sXAP1ruXe9IuT3Bkd5A2RQlQBG4ulQEgEV36UekIBPv3+6Bw/FBvr4VK9oAaK4TFEJ/UIgIIp6ABDe3a33VO+ujYFXoImV7h5YSMODwsuxwBUQTjt924AOYAbbCp587CJwSy5N2YC6eAXOt9Erd9jJwyPxqsRuokDiNueGhnO9egjworaTI5OQBa6tZ3Jbyk5evVcZHrJRsAFh6oGbHADGrl7x9P3jwVN202ekYiLHLeNPdfI7EzGmsSMhI9jGq7YeVrs3Z9yo0N5Km2MWxUw1z8P+7FlQPL2inWmxUZaFBUYqQzGfgs+Y5/PC3J5X+xO5trr8pTe9+YFHEnhereXS8dtlgQSe22X5dN09ZYGzZ88+vLq6+kmz/C4PSIoD04QEUPmVxzKQFqBo0se1ybm4GYFAJkgPKEymJFLXRI+qpgka0Ju5DeUazLJ21W38HEjSRK46kOIJBQmgol56FhD4mDxg2atGqq/qKne33xZRxwA53uWLe1j19wtOKAcXO1BPjCAqL/ADgAAmXfc5ble1jzhFAII2YyPZXg9SWqksH9Op17K96kJ9usou19P7JMbXsT5+VO8rnyb9BKzrffKMUhdgizAAXV/14H0Ub9mBXbFQG73iCZCh+gnslPNSdaOe2EP1Cspe2zd6xt5qF2MDm6Ly67qysVRtbwf9LZsCl0As4wHFV/VgO0tCJHRtyqf/+KHxai/vUSfA3ye05zPZWO0HuulXNgpgzPkbN76PwDY3J0CtdjjSTkenz5wN8Z7BLa/vnuXx+5fF96gzG3Cy05FQVWJpO25eeOyhtzy2uJilVe17albZuY1N4Llz+y7VfAdZ4PTp029bXV39uSwrbgeWwsTdLlQIKkkbk8bE6d23NNXHIGriBiS8KxG1CrgEyngGKAEcD3jUg0mWdEwoc0ycQAogByih0qJiXWyyZyIGkLzLWnXQ+4CVV6DUBhRBbxPgR+8R68g1aFMXsHAHA7XYkP4BEukPXcMvXvJtUBkAlN6nXdiWY7v28DCLzT30ArMovz60ADsBedRb7ef6HiBVvu9HXOXcjADUOoebBK/U4tr22RYYs9zkAKDcSHkbcizgiDrJuRzLNT3Qqo4Avk+9RNiK6syYA+IAYa7jfy5moNemclLZ9AWxnyjHgC+hG6oXCjz9qmfsx40KkM73kRtMD6XnllZDXk+BaCjLJZq/8Octfu7BM5SjG5bR6quPPfjow4uLWXK176A5YS9XNYHnXu791PYts8CZM2eeWFlZ+1hRFLcBhGGCbZWiC95rXXdMbl11EphhsmXCZKIENqTSSK0B1NheERWQ3IZBYWkV0O5ECpz5WDwd42MPAVkmWD8pA64eRFEZUUZRu1COgBb2x+6CHKqrjmeSxz3LsYCs6iIgFISghqEW85oUTB6AsK1Xgz24oWACuqzuJh4W9zVuelRKIJiBp89xZ/sbBm4SsL/qAYjrb0DMK730IeODmwD614M49ejCmh8L+lt1k/04F3ujEOqaPgRB5ZKUH5XeK3f+bx8qArR56Ad+VR5udX2Oax8FHxtwM6SygHLypXbHN/Dr6+v7BDsQeqHjCC0g5IT2YRP6mpsTwlh8vXx/hhuMMirda6NhgFmtco/KJ1MzbnjAk1q2oBrB84XHHnw0KZ5b9mueLnStFkjgea0WTOcnC1yBBQSew+H4Y3me3waEaMIazM3FVbCt69kDqHcrz6abVm3RpAdYMPEz2QJNKH+AHq5HvQZ2iFXzLmAPn0CrV5F0Hd7X30AeAIr6iVoHSAJlHpQFv0zUuq7+1nu4WrEHIAdgdlVK2kodUAH1vrYeVXtR0rA17nYf3uChHnVS1/KgAjzhUsaGgBqhAL5P+Zu2UzaubMILUGWBJ6CGvuVaPvZS59AG4ne9Wo5Ch5JJX3vQRkn3Mbf0F8cBeD7+E6hX+4h17IIZQIb9VQ79CNDRLsYTYI266fuOmyDGCm31YM3fXIty9T5t9Eq2VzkBYr+QjpsObnpUDmMCO9F+7OsVZK/88nf43mS5jYbjAJ9SPpXnc7a3u1IlzVa9XxI8pXi+ZXExe/YKforSIckC226BBJ7b3gWpAnvBAqdPL71tNJKrPbudiTO4VjX51G0uwDa+EnvoOEEYio8mKhQTJlvUL02SpEnSZyhywBCuRMCmOxFyTQ9YTLbEeQIgTN6qFzvLAJtACUqaBy1gCiig3f5cIBQgY/EI6iSASdwgkHAx8KTu5C31wKz3iH1EAaROqiNg6dMcAeA+zIFFMtgL16xeeyjhBgC4xTY6BnXML27CRYyLV8dTJxQ51LQwllp3s+rejZ9EVSZsAft5JVrn6Tj1Mzc1gLy/HjcUqLx6DjdRbZYG6o2tuAZwqrrRLyiOHtaBUTICCG4pE+DTMYpRZXygftOPHMdNEeBPG3mtMaD6cX3ayY3ORuPLK7ko4v77xE0PYQA+vhcY1fXjdzm3SRVvHMaTScjzOS6nWrLUxnjGKfqiWZfqSornc489+OjjKcZzL8wku6ONCTx3Rz+mVlznFnjllXOPDIfLn8iy/BQTcICAVv1hwuy6WL2L1isqwAtxd17l9C5lTW5aYCIYwsWuZwARNQ+Q7cIhsYVMwEyY3q0PiKJsAi+UieqEwgR4Agd+ktffnIfiS/mqA4CpY1CpgC8meBRgoEDn4/7dSOEFtoEX2gpYexWyq9oCIUCYhyvAciPQ1GfEQ6r+uI2JzQRkVF9SQOkc+tKHK3BNgBPgU127SiIw7JVdbyevajL2KIexgb25EdH59CEAjCKNLVGuAVlujhgbjB2+xoxLAJHyGDt+FT1gy00D42ej2FEPrr7fAUIUY1av8z7qKuEh6m8PzcC4v+nDfhvdLDJ+taqdNgk4ledzOB5ZLYGzTTR/efBc+dJjD771kRTjeZ1PAql6Mwsk8EyDIVlgCyzwyiuv3Lc2HP9iURT3MglzWa+yefDUccRlerc6xzPZ+Vg+D44eZgFUJjyv1FwKkOSmZvEJC1NQDVFYmeCBCoARdc2riV2Xp8ryYIpNaAegB/zomevpGSUT163a5yEICFG5ALHK5hhA16uRXBvIQC1EccSGuNxVJ1zDQCCub+DY9zG2p08AIPqefsX97ccLEOoB1QMX6rG3KzYD3LkB8Dc1gB+Ah1KOok2fcy3KpD+BcxRbHwrBZ12XvQ/FAFjpL26MgDJuJuhHQhO4Hkol59HXKLvcvHhIx96AM/2NnbiGV619u/jecEPoYR7A5zM/xr0iXAgu24WFSrU0mZQ2HI2C8hluhGaplmKsp1a7rz9q7dNuw9Ha8489+MhXJcVzC37I0yVeFwsk8HxdzJgKSRa4tAVeffXVW4fj6a/1e70HNAkBK0zsqFReHQMMUI2YAIEkyiHJuodUPtMkp2t4iMWN7V2hTPAoTN5NDKigpGrC1bWkogJfuIBRiLwKhZtfKhKAqOuwqtq7Sb3rmMUlgAELWgADJn6uhVsVgECR0ufEkgJ5Pm2OX6lOXTyIAi/EKqKaATO42nWuV8ZwkeOKFrwBRsAk8EVfs3KbcpaWlma7K2EbPSv/q/pddeKGANtjB6mjxGASr4jy61NrAY++74Bz4BjlW++rHwg/oI0Aqc+nia2pHwqv2s6Y1vnE82JPfU7if/oSMOUmBrsB/F4h9uNFeWtVftflLnuTigzoZnyrLNVZ3xu9p2NZpKQ6+psMXgO63AT6VFDcDOlYH4Mbxm+7sE/ZLeLYyGw4GQflczzV3u8u5vM14Km7qcqGw9WUTilNQDvKAgk8d1R3pcruVAucO3fuhqXl1d8sy/LBCFS9VoFr8/Y1MbE0cMLCFxQzve8XweBy9pM5EygQw+QMZKDk4Q4EVL3KCrB6FY6VzSg11AWAQG3C3Q/AeBcusAY4UBaualzKgBdgrvPICYrC6aHIx7J69c23CbsBbsA1dQKyAWzCCDxEAC+sqFadFGOoOumZBUy4VSmb9qG0Aae0i+O8W9YrYl6Zpt7dGw+A2CukKgN1FFD0MM17XAu44oZAbfeuau++ZxzR7x4kAUSV5xVBFD9/M8HNDv1CW7GhzvHg6cvmRkdt1vHqFw/BqO76zIdZnDt3LsC4+pP3sQFxtqqXV8RRLf0Y9mPGg6raoPFAaAvfBQAbkNXn+nu4tjbLPDEJO1dlpr3dBa5+b3cpn2GMZHGnM8WGRvtMrJdnT99z36l3HNm374Wd+vuY6r23LJDAc2/1d2rtNlngpZde2jct699qmubhOJHFRUVZFhO1o/Z42AE6NcH4pOm8Dxh04+lQTZkwNTECtbiLASkSuAOc3WTuTMI+hZGuC2wAeECGV2k5DjUK09Neytazhxzcunrfu3ZROrGRV+N0HMokKixg40HTu7xZ5Q9EAK4eAqkjgAus6Bo+BhQlE2XQLzjyQw5bAOlSJaWs0X7ARJ/rfQEV0Icb2r9WHdgDHnvpOA/w9DlAh3vaq4i4sj3UM478ccChV19R4jkOm3nlUscAnbq+PiNUA+BnDPlrML4uZkO+G6o/8OyBletyPm5/XjMGdE0/vhgntBNwpt9QVbuL9ugDxgNtIjSiq973e/EGlDGqHY6CQtrEFGdSPpVqaTqtLCu04KhnZV0FQI03GmaT0fDJ4zcefdeddx55cZt+3tJlkwWuygIJPK/KXOngZIHNWUDgWdX5b2VZ9jDwEYFnGlROFCK/aIIrefjibxZf+OMBOiZu3JlALXDj4Umgg1rnczaSmF51RP1EOWQy9aqfV6n8RAos0RZee4RgRYcAACAASURBVNhGqQXmcL361cC4a1W2PgdyUG31PioYNvEQjKsVl2iY1NudbwBP1ZHj9B5ubNoPyPq6+zRI2Jt8m6yY9koj1wCOPfzqM2wL2KNsd6HMwzvKtn8PKEcNBdB0TDdvKDcyfmT744AyoApAp5+7dvF97e3OjRAxw97FrjpQZxbucLPDGEQ95PoojYwH+oybKI0Ddu3Se7jP9Yy7XG0ghEP11vuAPGOV76sHYmzB2NVrwg/8QjG1CdUbwPY3a4x5AHkdWAuzIqqa55eWbDgcWZNnVuT9dmexLNyQCELrcvK5W28+8e4Enpv7bU5nbb0FEnhuvc3TFfegBb70pS/tL+vst5q6ebNf0NI0ceUxi2SIV/STIUCC2YAW77bmGE2O3mWpGDfcfkyguGRRhnAx4l70oIo6xkQLSHgFx8Okd8mioqESASj+eICbCRcQoy4+FhBw9qCESxV4BG6AD4BYtvJKpuqkawGOHtY9sHYXr3jAph90beAsqFXtlqHcHHTBk9c6lpsOwaAe6osAFGV5QZotbztADIgFmGg7LnCVqQ0EvJubvgWCsDf9wHVQ/xiH3r0PiNNW4kexsa5PLCPufpWLPbpqoL856Y5fzmNc+YVKHjAZ216hZJwQn8nWo8QaA42AIWqv/+5hH/od2zKmuRnTOWqrHlKqyRur4/x45UaA8eJvNLiZiuMqbl2rh1/tLhe7lE9c7VmR27Sc/NmtJ4++584jSfHcg1PLjmxyAs8d2W2p0jvNAp/73OfmFvcd+p2mad7CJB8ns5g3URMVig4uQ79oxKs+QCbA48G0OzF6V6Nf5OLhx8fLAUC43AEHD7MAK+5gwQBlqy2ACICtdm0EybwHqKHu+TbgPgfSWADi412xGyCm872N/Upk70IFVoEVr+R5VQrXPzDchVwAlnqguAJvgJWHcvoTlY6+BKDUFsDIv+ftSD2AZxRDX0/6GeD01/WwxjjxMEm/eXe3/vZ2pl8AQu/mxq2Mgkjf+bEHhHpXtr+5YYGPV0uBPm5sfNt82b4/9TdqJmNDr+krbmC6HgW+W/7mwd84McZZDKXjiYHmpsK3h7/5zlkRdyoq2p2KdCMarqlfhjY3q5RObam5NhzaeBzDFASm2i4z7/VtMhn+0bETt3zdXUePvrzTfhdTffemBRJ47s1+T63eYgs0TdN76eXTv9c0zSNeXZtMRrMdX1CMmDABTxQw1BEmXA9H3s1K0/SeJj/KAVRQigQsghtyQ0oZ0t86j4kUZQZoYOJE7WOi9vDHZ9TPQxUTOaqrPmN1excMdKyPwcP17evgwWUjINJ7uG451iuG1BF1CVXV192DJ1ANEKtMwTnuXly4ALu/OeiqZrizvSINrAEwKIBeDdNnwA/29zcY3b+xCwCO6qb3vZJJTC5AtpHy6hVq73pme1PUQ9mJuGJdh2NRFX3Igx9LOp/6+Q0KGNNeHVVdfOL3jSDRjyG+Iyi2uOFlF/0jwwSQqroAkV6t9Sol477bt6i+Pv4aOOeGJIzjLI+5aS1+V+s63sQpzVIYU63tgsJpMeZzaWXZqqqxot+3sm5sMp3+wa233fIN9xw79qUt/llLl0sW2JQFEnhuymzppGSBq7NA0zTZy6+c+f26qt/qJ+HxeBgKYrcb1D+ACYhAxeq64v1E7OETNYtJVeV349H8QqaNYtFwMwMLKIMqm8Uzmrz1N2WhiKE6ksoJsAMOPEig/nj3I2DnwVB19DGRuDC9yxvXfNd17hUr7MQ1sKlXHwE94iGBJw8Y3CCgeukzARj10ucc79XFrmrpFVfgD2DhukAi0MNr6u7jNj2McjND/1DnmeLWxpUCVpSvcrnZwBb+xog6A1ikJmKsEL9JW7v90e1f1FU/nrlBAO6ohwdZbzv/N8cwNoBv327+ps70GzcfPszD158x7PsCm6uO2I0xjgeD78YFYTRFz8qpkDIubsqbdpFcu5uSxpOUz6Loh9Xu49EkpNIaTcZhX3cpnuPR+N/dePTQt9x/8uTpq/tVSkcnC2yPBRJ4bo/d01X3mAWapslfeOHl36/q5tH1iStuc6iJirgwVikDbqiSHriIr/Suxu6EzfkocUARaiYLIQAyYgp1HIoMuSS9qqP3NIGSHxK3p66H+1tlAAF0M2BBWaiuarf+BiqAXb8KH7hSuR5S9T6payjXu2SxK4CgNupaLFryYI2rl/NVH9Q7XOR+yPrjUT1ZpAVw0i4UWl1Pn5EeirYAK4CvhyZ/M0E7uqojtgaYUCxR9nycJQAMKAJkrDSn//W+4oPZrhIbAMT0ia6lOFJujPRasZSyhcaEV4MZt6iUPgSC8nU+diHlkA9ZIASEmxRCVLQ6PFNsrLbv1II47cmuhUPKndoT3E2DeqhnyggKevuavmJRHWCPt4AbCG7kVCfiOlHi9Zq+8Cv2WdRE21g0FeB7EHOMMgYKa7e7bZV6xmte9MPwE6IGG7er3ZsspFn7tduP3vYdt9126Mwe+1lNzd2hFkjguUM7LlV7Z1kggOeLL/++mT0KMIZJKpPbtJotJPDKD+5InjXh6G8WSwCPTHw+5Q+LVFCpZC0ARNcF4pjwu+CFgoOVARPSxzDxo0h6BUvnkAqIhVPE+QEfvi242nG7e5XQq5zAZZiANWmHtFTrP2EqO7gpi2KWTkjvAQ8+JZXKIK6PNhKKQNtwsesaQCOqsd4D3nS8d98DLUC9V011nIdq+pubEcCQMlGigVEf2qD3NlK8gRi1T+AIJPpV17zH9XEDe4Cnb/WeYFIPQFTHsyite9ODLVBvu/X031xgWnXVeT6TAddlP3bqA9hW6uusXQ0/LcN+5k1VWm2NDXr98FxkceW31Y1pIU5uEfKwt1IV9QeDC3KOYgPZyIcL+L7R+YQE8H3iZo8wEtrEmCFsAntwc+PHH3/TL4AnNxP6PI7nfkg0f35pWU371aM37P+OO+644+zO+lVMtd2rFkjguVd7PrV7Sy3wx3/8x4Mbbrz5d7Mmf8u0UtLnvmmbZiYn1CkmJV6jGuGK9yokahJQgnICqFKWh0PvTtTnwVU+37deMbDGKrMmt7opLc96Npjr2WRcWl6YNXUWPtcyCD1X5XqaJdRLQQn19coUsXioRSh+xM8RF6mJGDCl7vrM2wIoBRqDCz+rQ5oZPYsxsrwJ9S+ryay++lztKKf1rH3eXQwE4JoF/IAh/9q/F+rW2qeqp8FOei076rXspXrMDRZm9ZpMR7O0OOpPXRNY6YIobnxgieNUH+DPAw0g7o+n7rJp93zUOG5ABFqyLXGngA99rPK9cgxc00e6buiT1oXvoRNw8+95KKMPKMO7zrku4xfVkAkMlbTXi1tKolbz3YgwHKEz3FgoEXu/F1RRFGlc4ZxDv+i1j48FlhkrKNDUEfWe9nZvkLCZB1nf74A79QI2UVS96v/q2XMa879+5Mb9f+m2225LiueW/qqni23WAgk8N2u5dF6ywFVYQOB5+NDNv5tb/payLq2X97ReoM3Jtw5xqCa4a/Xs3cm4AjV5+UU5qEuaBJnMmSyBOVy5PnVTmIR7WQA2gZtASeAZwDJvAkDpud+bC88CtxmAsurWpRBSvchf6RUhTaJ+YvdA4+tH/Zl8CTFgUgdasUNQaltQBvhUT7VnPBkG4PPgLDDU8WoXK5qJ3yNsADjhGaVU3Y0yDFiHug+0NKSwaTkO5WJPvdb19SywF4gKgGW/QX9+Vhaw6OHWg4gHNSBG9SAemDp56ASaUHH9ePLHA3s+RpEbF31GnlRuaoA6roUSDniiFmJT+pGvCufx2o9XgA2Qpg3ETNJewE/HTcqxFYPohkbF9eEUHgr1hfNlh/E5Gc+S91Pni4Gnv6HjWBZRYV9fPragrdjC9xNw6WEVcPc3CSieaiMeE50zHk9tPBr9+v798wk8r+L3OB26vRZI4Lm99k9X3yMWEHgePHDj7+R5/ggKJJONn4iYdDAL7l7vttTxuJpVhkCPWEkUrDApTyazPJGcj+sa1SVMfE0ZgNIDJsohCqFASZ9LARWgCkSZfAVhupZfrAEIMNmi3PmcijqGegOpABA20jFM6t51SXnBPtUkKI2qn1ccBXzUezqJgKrXqr9es3gEtc8DJ9ADuDDZAxMoagGc+vlMWRV4esUT8BSYonTq+qoHYQHASheAuZYHYl0PNdMrwfobOATwiY2kLxg34WajXbHNewJM9QGubm5svIruYUtlErrhQZZxtdHXGphmvOuZxVgc7xVn+gfoog/I1JBra0l5Dwb9WaiDj6ME0kJfysOgvdFDKqLoas8VQjFcu8C9zzX9jQ824caAZx8PrfL8d5R2cE36zYM3/eC//75vueGgrK5tI7QPbHVl5WcPHdr3XUeOHFneIz+nqZk73AIJPHd4B6bq7wwLxJ2Lmt/KsvxhwCDAUx4XsegB5JCyBzczUKbjcbmzP7jOuRR4ElsJSKDy6TXgE+FCk7JkT+2WMg1b883N9UP+QO0HHVbVZkp9VIbnsHWf9oluYUX1QJ30qgxQpzpqUmUrR6+wobr5hSssVtGkTFodFDjiTFWmFrFECA2ZD01eXm0jqPrF2Fm5XZXDUW3TLjXz4VntUjsAXNy69A3gST09eAL99FcEMu1QozpIVZON4naGur5e9/tzwa6yo571+XC4ekGCdw+I3t3chRWgiDpzAwOYADm83uh9+oWbBd8W/U1uUA+C3t3MDc/BgwcvUG59XYEur/gBU7wHjFJnFF1vd/1NFgUU0llcsGI4m/WbLCnLQZnU+2FcsCVtzCWbNW53KKstq6OHwNsbONXxug4ubsri5tDfLHmoxd7+JpBzsDvt9/G+jD1AV/VH2SfEQHXg9yHYKHhEhp+46647/maWZUs749cw1XKvWyCB514fAan9W2KBc+fO3bA8HP5mltmDXgUMqlUvKjEs8PBpjvQ+SbTZ0lITjmIzDxw4EOoOPFAGExPwhoqy0YrdubmFUAYTo+qj8jgXuPGqG/CAizyCadwaUOfrfWJRiUMEbFQX4EHHS2nzyh3uRcpWvdjaEoWMfebVHgGmV4682udVOQ9BM8WrdVsKQPWgHiiNlAWY4MqlblFlDKuKQ//5+FOVRwJxXL8AIuCKkkfScIBF7aEPFDer6wFi2Bg4AgY9yPm//U0NgK96cg3VRTcnAKDK88o1qibKJ8cxBjykUX8gDpt2wdN/4fxqcfqRsukH3y/ExEa3+3y7ijx+B2RvxfaG8dWuFKff6yrGdioCdL2eUn7j1pM6R2X69nlIBIypL+qvV6lRrumjjRafebWX7xqgqTbo4W3CuFKZ7LhEmEfozzzXb8Hv3HPPXd+UZdmrW/Jjli6SLHCNFkjgeY0GTKcnC1yJBU6fPn3b6nD4q9Zk98/cuFqs03H/+QmdvzUR6RxNPAAecMDkDsx4sAMKmByZnIMi1MJH2AGlqmZphvwuMyobYOQ6gEwsM6aD6sYB6jPi8aTMssJe12Txio+bBGo90LHgiLoRCweErCtfEcpwe3q3L/VX+cAjoBbLK0P9PZRSF9qgMrg28OVtHxXM9XRQXJPz6DfsjRocVdsmxO8yHrpqGKAKeNL3gB0g6d25EYajgs6NDK5hD1W850HfL/ThBkLl+IViQBr2x570Sxc6GXse7Pmba3h3vldYfSiEj2emvUBcAL02/VU1raNK2J+f9RvH0eZZn1tlZRsTDTT68eD7A/V0o3AG+kHt4gaBGzbe8/DNjQ+Aij3895XjWYCH4sm4mqV5KjKlvfr399577zdnWZbyeF7Jj3E6ZtstkMBz27sgVWAvWODs2bMPraysfqqusrvUXlTNWpNfq7TwHi52knBrMmMnIZRETWw+nZJ32bHaHWUHlzrqCbGfEahiSh6v3AATpMshVhDYAIjZaQUo0LPOlULLMfQtqh8TuJQ8He9VLuqpc1CLmNSJ3VPZKkPAdujQobh1YFUFeAOKvBpFG4AP2oB6OhjEdDx66BqANkAGOLCKXu+jhEY7xet6GPLKH/2E61rlsctPPCfefHAd73IGVvUZ10CZ8+950AQ8dRwKOQq7ylA7CIkgF6s+56aGuuNGBlb1Oeq7yu66oLtgBUwzlvmctvLaL5YDwLwNeE9J0xVWAYzr/XCcMjEoiUClMIqBZU38XkgJ14OxjooYoS+mv9IyOfJ4Ui/Alz6m37EL/cR3CXjG7jqeMU1Z2H+mvoabtri5AAqzjmWMoHySaF7eDf2t7xu/EbrZC56NppLi+Uf33nvv12VZlrbM3AuTyS5oYwLPXdCJqQnXvwVOv7z09sl4+LNFUdzO5BVWl8s92KbTAdY8KDAx6z0ULCY0Wu1VFtSU7oSo10zo+htFT4qdj6sD2gAOnnVt4BGA0QS5uDh/wYKNbk8w2QKcqGoAhFfWfGwrE7tXzDYu+8IFI4CKr78PHSChPtCrOFav6gKxKFu01QOPh8CQmqB9eKhCXQN0vRJNKqAYLrFvBv4eJlG/BBiEFnSVT11PAE4MImov4wlo9+MG++gzQN8DEvDOzYcH5ot9y2ij2kwbvALfdUd79ZAbBr2nfz5kg7rQl6iSXCPv5TaZroVQFSmduua8shi0rnNgkZXnIZ/qQOM9jhktTgrpw1rFXLbW+7rJo/649mUrQhKAbq9IYy+8E3yXuSHsLjziNwCb0Ta11S9m0nn0k+qkpP4KsdG1w3FW29LS2T+755773pNl2YvX/y9hqmGygIUNHtIjWSBZ4MtsgTNfOvPEcDj+WJEXtzHZTlsXbZM1lmlxzwbP1bSy/lxfIo0pDVORFZZp4qyacHy/0H7NpXS38Jr3VR7Hi430eW2KccvD+fF1Y3VZhcTbUooapVNqn0Oi7ay24erIBvN9m+vPm9TZuP5I9VVi7qn18iJcR9dVuaqP6qF6T6tpeK33VX+9rzRSqoc+77ZX9cQOtId6c77ar/P0WvXvFypPrzUFV6Feqh/113PVlLN21aWUrip8rjyqUspIb9Ub9GZ2LCelrY3WbN/CvlBf1VvX1fvr7YgJyuO6JvXfuv1UD66DvVSP9euaKZ+rEp2vtyc0KrCs2hnSbZW1Ff0i1Ev11Ofr/VeHzwVgslsl9bRRzHB8zfF6n/IYH5Q36A1CeSqH49ReytH7lxqfXFf24fqUp2c+1/V9vUIq934RxoGeVS8/jrku9fbjwI/jJo/hEgH06yzEduqhdGAhLVi7UAqQD7lzlW+1aQKwV8p2UMVwAh9+QNgHN3I+kTwqKDdw/saDmw/vNgfsPVxyDqEt+syHbADN3vugcwiX0U2rHoN+YefPn33ujjtOPb64uPj8l/lnLBWfLPC6WCCB5+tixlRIssClLfDq+VffOloZ/XzdNHfqyFlcW3D8aWeVCC4AE+AiUOoNivC5QE87tQhkOF6J6PW+ztP7gKGOA3QoHwDiOtrJRduexJ1d4iInleMBrpxUAdAEnipvPJyE43it8/V+2IJJK/QzAVod6qF66TjqRf31uY4v+nlQqlQ+IKvrUw/qT/k6j/bLLlVTz3aowR7UAwCl3H4xCPWYjKbhWfVSeVXY8aY2Pld71X7sp+PG01GoX2TBaGddZzyd2MKcgDzaHdD0/ahysCd2UXv0flTqyhko009cH4DmehuD61yov+rjy1V9BLZcn36R3bAjx6td0Z6xXtRf4246jvbp3pjwGjsxDrGTylO5fM771JN+VvkaB4x3laP2U8/ujRDHxfct3ngIxkO4Qm5ZHReKyaM+nU5m7nmlXQqPvLHRdDTbAayoc6unMUbYu8KJUe7G9eJ5wEtArCXhDoSt8GuAa5zXMwDWosI29IEbUUDWeyYAX9zyeAUIs5kb9Oz8+fNP33fffe/IsuyF9DucLLATLJDAcyf0UqrjjrfAC6++cP94PP10z4p760zpXnra/yfsH11lleWaAPPaiqawpmhmr6txZcVcYVmVWWml9awXjtNrjps203Ce9Wz2vo7T+3PFnE3qyex9ytH1sl4R0s5MqjJM2Hm/Jx3QpnUVWEev+3kRtubT+2LLcjwJCbvnen1bG49sUPTCdVWe6tdMm9CeQT6wfJBbPanD51bqf2Wopz5X/dQuHa/26Hy9T7s4Tq/5HPvoWeXJeqqfnlX/ln1nz02u7JlZqL/qqXrX0zK0W+ep/guDuXBdXU/2KkdlsOt8b37WrlE5CtfL+pn1s3541muVO98fhHQ+/vpcN2yHWlZm2qoxsqo2EA/Pur7qMR2Nw3VULv2KHXx7ZQfspvrp+upX1XNmj7Yd1E+fL/QXZnbXebK3nmV/9YfGl/oJe+tZ74fx0c9Cf3j7M055Zpypv2U/va/26Dp65jqqr67rxx/jgnGr63g76PqMJz8uZuNf7uZC+VC1o1ZuhTIqTNscpa2LWvAb4ijlFehl1puLN27BTa6z9D1qd+GKwBo/I9QD8ONmUc8+kwBhLkAjxxOO4Rd2AbfEj7JSPfBwG27jwZUyqBfZHQgNCQvqcrNz5849ee+9974rudp3/DSxZxqQwHPPdHVq6HZa4PTp0yfXxqNfLax4AOVKCmAjpaZ1DXvlU0oRSpQUIa9ocZw+7yqhXilS+Yp507MUIk28KIDxtaSuqHiGSbgnl6d2g5Gymod4OLnipezJJcxrzltZWw2KHwqlriMFEwVR9V5bGVp/rhe2CEVJkxKnevrzUMBUL31OfVFEUeIudKlnoZ5SHOV9jyED8Vnt0bNCAYbj0foWiQLPsGd3Zqr/wf0HgqLpFV/sPpoMg/1oj+yOAjjQTk5FbuVEfXjhdS2P+SL1vj6XvXQ9KbR6X1s18lr2R1H0IQIoqF65xX5eAfUKuFdcvYKIPVG8UW7VXyjqXunW+7IHiuWlFE/VU+NZ/esVWfr3cu2gfZSDQkp/8BolH8U5KJ5NZr2mZ1KptZhIN1FVFfPisjhKeXIDSEqF1z/dtAlG29yfUjx1E+Bjo1Egvfvbr0AHDllQhFIKEAKMxPUSx9lNk8SCIuKn9fuksoBQPaOo6jPiTGMasbjNqjYjWFpe+tNbj514z/79+1/azt+4dO1kgSu1QALPK7VUOi5Z4BossPTC0s2jcfmreZ69RRMSConUTwGMd/PxObFhuPtYzMDE52PH/GRJNf3CFlQVPTMR+uawgEPnMIGya5KODzkSW9cgkyOLQbrloNAQ08ZiCdrFNbqrsburejVRM/ES8+YVJN7rdgtxdjyzYIgFNToP12U3TQ2Tv65DBgFvd59rkQVbnIMNab+eWaTiF3t5AGHl+kbxffSVXyjVbatX3FDqqA/HspgHewFRLDoiXRSLgCiHcXepYU8fUwYw5m3uoc7bCDsx9qk340P1ZcODros61KmW0q3MDArBiHlk40YIuNvbNFfav70wG1Vjm5Ra0JcH9TtcZzKdxXf674iuzcI+7OSVSr+ginHmF/mxeI+FSt1FchvZge+Hd7l3v9fAKN8pbcM6nkw+e+zUXd94IMteuYafqHRqssCWWSCB55aZOl1oKyzQNE3+4p+9eONC/4Z987nl42mWZ7nlB+fmsrEqMLFsbk7pel5bmzml8Qlv6//1yv09aU8YrB+lY/7Lf/l/7b47T9mBmw+E08bhuDmbG6yfbROzYTk6kTf2E4PB4L44OcevXnDTtul0mIj9RE1qFibe2UKKNm+hh1A+i4qLoCeW7SdGWu3hwlvCT/BdkPKriuPqYylMMTUNk7a/FquFVZdasaDVeuogHd/rCRpiKic9fJxcLE/J7C/Mteldn95uFxtbHga6q76pVxcsVW5cnSz1SSl5LszTCfB3wbtbH0DC21x/c1z3RqJrRwDkYm3rApsfPx5WASbqHW8clOUgjg/+9vXR38Dk5b63fozGfozjgutRr27b/Zjm2tSFMv253XpIwaytDFulhhjSdqzP+llJ1yfDENISFjD1FPc6UuBpUJ21yEhqeeFWjofvZLu6np2HeO1vOgBP0lBRT27KVH9y0dJOxiLgr/eB2y7k65r6bN++mPXAQ7Besxgq/H6Y/cy+k7d+z5EsS1tmXm6wps+vCwsk8LwuuiFV4lot8Mp/feXA859/9d1P/umT9z/zhWe+tp7Wb6jren7QH/Srspqb6w/6glI52/r9nvJNZ1JM+u0ezooTY8tDtoiMCca16EBwpBpqMvVbMUbXtFeMfGqi2KaormkSwj2GAhVAQ8F/7aMLeoBIV/H0KpPKJA9oqGGbIxA1DsWEzzzgdZVPzt1IXQSiZoui2ut0FTfKRPnyuTk9zHjI8cpkBM4IEZR9KfjoQnt3HHmA8eWhMOKS5bq+PYAy9camHItNPAxzfQ+RXinT+yhoJAfv9pG/8fA3Gl1w8699u7twjq11jHcH+5uWLvx3FbqLfT/pJw+pqjOKpx9jHob9tf24pb3ctGC7jfo5egsq03q7ahJvgOhPna80VNNyrABaO3biqN159x125PgRO3jDwfDZqBnbtFdZlSnp/DDmAdUCtMkk5stsV8krbpQUWIJdvs+K0VXMLjdMG/Uz+WBpL98/FFGdwxawui5QyVhDEddnSqMkAGX8savUtC7//h233voDWZYpsWx6JAtc9xZI4Hndd1Gq4KUs0DRN9u/e/9lv/+Izz/yV0XDt0aqsj8zPLebDtTVbmN83S/b92jKUf7G2XOl3tCp4M8+pa5IFkgW2zQICz7Civ111H4BM3+P2oXvFoIYqlNlqG1VDW9i/YG980xvtDQ/cb4PDA1stlm3an9poMrLeXG5FLwsJ/kNuVKXEmpjlSuFVVbojMqXcUszsuBwH1VQxqIotBZ79TQmqqJ65ydDnyr0qFzw5ZVFouZEA0P1NRxe8Ba6AdpHnf/fo0SM/mrH367b1SLpwssCVWSCB55XZKR11HVqgebo5/qkP/tKPvfrMmfctLi5qqU2Ge2synl7gZl6v/vrEFN+Lbt70SBZIFth5Fqi1WisAZ5zKwmIl9wgLqJTfNqttsDAIC6DOLZ+1I0ePfClvgAAAIABJREFU2sNvf8hOPnzSJoNRgMkQ/zmXhcVwK0urdmj/IZusldZT7tyQBSLen8pFP9EKfi3wUfqpMoaQkCSe3ZoEr+zmxYp2waZUS8Ik8FioyhzjY3IFrMS8oh7jEQhu/Sxr/tse7X/72LFbfiKB584bv3u1xgk892rP7/B2/94v/N7J577w0vtf/dzZbxiU8/3gVptOgxtTf2tJcTem8MImM0El8NzhQyFVfw9b4HLgqcwJSqWkkBYppBFEq7i4rF/ZY3/+rXbXG++0cT20uqgt6yndVYzPVHrdhbnFsPJfwqoeKksr5XNlmsi1kUNMmUVoCbGdgkNc6MSG6jNiM30oDKEyftEZISKkbvIqKKEwIdTDrMrz4ruPHTvyU3t4GKSm7zALJPDcYR2Wqhty7RU/9L/96L/uTwdffyg73OtXg1mc4yweso7xbBdb+by+1WECzzSmkgV2qgUuB55ys4cFQNqVqpcFF7kUTf1OnB+fs4VjC/b2r33cjt953OqitNXpslk/xopqf/jD+24IKbQC+JlSfU1jOi5tflBNgzveZ2cgnta7xlE3BaA+VhqVk8VH3T6gDKCT2F1BKSro/NzcNMvy7zp+/Jaf3ql9mOq99yyQwHPv9fmOb/GvfOA3vv3JP/rch+bqhblmtbb5YiGAZ0ioXBRxb+Ncq5LjIof0SBZIFtidFrgceIZFSoMi/D5oTyr9rZ2L9Lswf2jelqbn7PjdJ+y93/R1NsnGdm58xg7euD8cE1zn2npTu4cVg9nCJSmdZVOGWNB98wvBsIJCbnT9YiNWo6Nmdr0wPiOAX5zkF9fxN+f67A95lgk8v/P48Vs+tDt7OLVqN1oggedu7NVd3KZnfuuZG37z1373Z04/f/brD8/fkGmvnblejJsitirEXoXV5zF5dHokCyQL7E4LXA48ib3UJgmTyciyXh4UTwHfsFyzZmBW90t7559/wm6776QNbdVsUFuZTQOkagMDudwV3Bm2syXNlFVhxy/tfKXfHtzo3Oz6FfaAKTGg5I5V3XRuTN21fpOM10ag2U3ZRQ5alRkyD5iVeZ5/17Fjt/zL3dnDqVW70QIJPHdjr+7iNn32U3/4zf/3Z/7jB26cv+mG5TMr1g/pjmKuSiYF/XArqF8gSlLyXWyS1LRkgT1rgcuBp0JqRqO4inww37eVlZWgfC4sLIQ94ac2sapX202332jv/ZY/Z818ZUvleSsWLOxolevWNuRrivk9ww5bSvelfehDwvqYfknPfpMFwJPFQyifPnaTVEvqPPJ/opzympXxqJ4sMNJvW0ixtH9/XRTZ/3z06NGf3LODIDV8x1kggeeO67K9W+HmD5r+P/ngj/29A8Whf5iv9qxfDMKPvyYI/ejr4fdRJvfe3rVYanmywO62wOXAM2yrqYVE5SQohFIxyaUawFEbBGQjKw4V9vXf9l7LDjQ2ONy3pfF5y/uNra2OQhL3uHpd+7vHnZLCNqFyxbuNHMgNi8X1Wr9BwOTi4mKART30rPP1OYppyB3agqyAVXCs44hTxxXv3fZFnuvzlE5pdw/zXde6BJ67rkt3b4OWn1y+5cPv/7lfXpjsf6Q3GoTk73KJhVx+6ZEskCyw5yzQBU8WDbZZli5rj7D7UVFbtTi1R9/zFrv30XttpT5n03xi1susyirL6zzsXR9yhNbRs4KXZW20Gm56SfTOZ6Q8UgVYcMRNMceiaur97kYHrJKXQiu1lptqYJUFRrlSRTXNPzhx4sT3Z1k2vWyD0wHJAteBBRJ4XgedkKpwZRYYPjW844P/5Gf+ZHG6b6E/Wgj7M5dFAs8rs146Kllg91ngWsEzAF1WWjU3toff87C94bF7bcVWwkKjuqisyTPL6sasLqywLCiffsW60jP59EYqz4f+sNMQe84Tc8pCIWI4L0iR1G6hS/iQf9bfYaFUFVNCNXWA1g8tLCz8nVtuuWVl9/VwatFutEACz93Yq7u0TcMvNHf+9A9/8HML1b7eYLxoCveXMnFFiufFJJA28fQuNVlqVrLAHrVAzNN7qa+9PhPwTZqJTftDe8u73mz3P36/reUrNspGVuV1UDPDLkGVmdCzaHcpqpo6vN/vR9c7Own5WE22HSX+07vKUT+JQ2dxkd+ylXjOblol0jKF8KImLED69MGDB//6DTfccG6PdnZq9g6zQALPHdZhe7m6zdPNqX/2Qx94cn+1P+9PF4Lr64pd7Qk89/LQSW3fcxa4PHjKJALJiY1s2hsH8HzDV73BhsXQJsXEqrzN39nkluFib6KiqVXyISXT/GAGnioPFzswKjc5MEkiefa190nkdS4xoioDBXQ4HAZXO0oniinZOnpFZqurq585derUt2VZdmbPdXNq8I60QALPHdlte7PSw6ebUz/1g//8qcXqoA3KOcurIrrDwii+TJxnAs+9OWhSq3e5Ba5xBzLl38ynVvYn9uA732wPPBbBUyE8ddHE5PNF0Dota70juXYsypTOqLxggwrvggcM9dzdhci73YFPjgE4UU61uIgFSuxwhOtdHSvwXF5e/sKJEyee2Ldv3wu7vLNT83aJBRJ47pKO3AvNGL7UnPrA9//UUwvlPutPB5ZVRdgKL4HnXuj91MZkgY0scA3gGRfmhJvXaX9ib37iQXtAimc+noGnVEotYlQ8+fpe6VncLrOpLsgdDHjiYgcquzk92eRCn7PVb3Tb9wPIsthIrRV0SgkFTHWOYJS8oZnVShH17MmTJ9+2uLj4fBojyQI7wQIJPHdCL6U6Bgs0LzWnfvwHPvDUXLVgxXhgvaZntXUTxF9E+UyKZxpFyQK7zgKZVprrt6GT2YJFR5drcJZL8SyD4vnwO94cwHNUTGySTaxq4gKeoELWStWm35baUDy1ZWa4tlvlHnwvSuyeZReooYJNXOmAp46dxZC2ZXA+MaOkhNO5rJ4XDJOqSTGeq6vLX7jnnq94IsuypHhersPT59eFBRJ4XhfdkCpxJRaQ4vkvv/8DTw2mC1aU/QCer10blMDzSmyZjkkW2A0WuFbwtCzuUiTXuhTPN77tARv1RjauxzYpp7P4yqqqrZoqgXxmRb9nVTO1aTm2fYsHZkCJ4omb3S8YAjyBTVIsbZSnE+UT+PTl+M9C7GjW2NrayhfvvvvetyXw3A0jem+0IYHn3ujnXdHK4UvDUx/6vo8/NTdZCDsWdfc93hWNTI1IFkgW2DILNFabdnGv+lN76F1vtvvefleI8Qz5PTML2/Eql+a4HNuh/Ycsn2Y2mOvZqBnatJ7G2M82qTwudeI6BaJSJ/2WmCScF0ySyJ7FRD6lEvDqFyAJNClv5oKvptoz/ql77rnnnQk8t2zYpAtdowUSeF6jAdPpW2cBgeeH/+HHn5of77Oin1utHCcpHdLWdUC6UrLALrNAiKnMaqvyiT34ngft3refCumU6tZ1nzc9YWmARO3LXq5WVvSykOcz6+dWyNXf5AEIfRymzCSVk60uMZvKASr1nq6PsulhE/VU5epvKZ1+UZFuuvXZ4sKcra2t/cFdd93132VZ9sou657UnF1qgQSeu7Rjd2OzBJ4f+d6ff2putGh5LzOpFQk8d2NPpzYlC2yNBUKaokuAZzVprD8ft7LsZbk1I7NGe7znEyvmetZM5e6OW2cCm+wqROoj9nKX8gmI4mpnFyPSL6kMEtBzLOooiqqOYcHRoF/YcDj87ZtvvvkvHjx48NWtsVq6SrLAtVkggee12S+dvYUWEHj+zD/65FOD4UJczW61Zcaq1i2sSLpUskCywK6wQHB3h20zpzPFc1iszhTPemrWm9Ne72XYwWjO5k0LkuRqbwpte9RYrxgEW7CgSBBJ6iMf24lL3ceAomh2dz+iPGBW8Koy5WJH+QxllxNBaEogvytG495pRALPvdPXO76lAs+P/uNfCOAZVrFqpXpyte/4fk0NSBbYLgt0Fc+veIdiPFeDez24u6vcMu3ZrpRG09L29fabFiSNbWR13lhfW2haMUuB5PNwSs0UWJJUnlXtKJoCUH0ugEQN9cfoPOURJY8nrnxiQ4Mr38KuST89Pz//v6QtM7drFKXrXq0FEnhercXS8dtmgXNPD0994oc+GVztUjwFns1l8sZvW2XThZMFkgWuewsI7qbCzE6Mp8BTj142sCZvAoRWk2lQPMtqYs2gnimecrX7LTN1Hm5xgSPxmVIsWVyEasmuRrjT/Up2gaWUTs4nj6jKJ2VTvxfyfv7jW2+99XuzLJtc9wZPFUwWkHcgWSFZYKdY4NzT50594od+ceZqT4rnTum5VM9kgevTAmHl+WXAU6vXw77oVW29qm+T6cjyhSwonuVoav3e3AVxmVItybiB2ul3NeI9WYQ924FVnxPUu+6BTVRPQWmA2DzEe/7vx48f/5Es6yQzvT5NnmqVLJDAM42BnWMBKZ6f/OFfeKq/Nj9ztacYz53Tf6mmyQLXmwUAz26MJ652KZ7La8thhyEtLpLiOZ4MA3hO6qnldWZF3g/NQr1EtWRVOzsR8drvyc6+7QBnd693fU68qK6hc+WWRw0d9Av5fP728ePHf+J6s22qT7LAxSyQFM80NnaMBYZPD0995P/6+acWpwesVgyWMpkkV/uO6b9U0WSB69ECVa5tM6f2pne/yRTjOeqtzVIoaXHRYGEQoFIxngJPxXgqnZIWF/WsCKvaBYfD4TAonwsLCyGuk33eu4nkyc0pW7CqnWcWHsnFruMU3zkajcJxUl11HeJIV1dXbf++hTLP87917NixD16Ptk11ShbYyAIJPNO42DEW0OKif/V9n5iBZ4rx3DFdlyqaLHBdWkCgJ/BUjCfgqcVFcq8LNvcvHAwr3MM2lZOp9euB5YXFvdyVWWNaB8Wz61IXIOocQWi4RhUXK6FwqmzBpN+HnRhOVsLjTldZ+ptzWR0fkskXIa7zO48fP/7h69LAqVLJAhtYIIFnGhY7xgIonguT/UHxFHgmV/uO6b5U0WSB684CYZehQovXL0wgD3jO9xdtUkX1Ua52xXiGbTaLaXC1a1V7rZ8ifd7rhfaxiAhAJEenwDEsZprGPd7lvpeySdwmC4YAUlRQjMaOSHpN2ZnV4xY8P3LdGTdVKFngIhZI4JmGxo6xgMDzw//nx4PiWTVlAM88UzK99EgWSBZIFticBXC1a+ci0imVTRljNpuejaaj4ObWzkX5tLC6Ka3qlQE853tzVk5DSqMAg6ibgkydQ55OH8PJgiK50Yn/FGT6nYuI62QVvFomdVQPlNGwFWfWTP7bVplJ8dxc16eztskCCTy3yfDpsldvgeRqv3qbpTOSBZIFLm0Bdi6Sq/2+J+4OMZ5yrwv6BsV8AM+wbWVeWD1UGrfasnmzSse0Oxexat1vh6mrCiClbAKOPocntcLt7lMyEcuJm53zfNqlsN1mNZ0KPE+ePPmh1M/JAjvFAgk8d0pPpXoaiue+8mBaXJTGQ7JAssA1W4AE8mU2vmBxUXev9hCfqSQwY23VW1ndr0KMZzUuZ+mUvKucJO9SKQFPkskTq6nPiOdkz3Y1CBf7Rrse0WDc7nU1rbIs+1u33XbbB67ZGKmAZIEtskACzy0ydLrMtVtA4PmhH/i54GrXzkVa1Z52Lrp2u6YSkgX2qgUEfFI8u+CpdEoBHse1FYMibofZmA2auQCeWtUuxVPplNirXSCp8oj1JG2SB00f9ymbs+KdZ2JFUUFRTf2CIhYpBVU0a/T4uydPnnx/lmkrt/RIFrj+LZDA8/rvo1TD1gK42ufH+2aKZwLPSw2PvJNjf+PcU3UWN4LarufLDXDq5Y/TD5dmWX0W/1IbLvw586/8jHypcy5Xl6v5PGt0Z7T+CNu8XvShY/X51TzHXWPDQ27fK61c1oQrbWSzKy1itxzHqvaN0ikR45n387gIaFraYrHPil5m03wSFE+Bp7l+9nGeAkNWtRPXyUp1Yjf9wiNiN4MK69Im+d2LlKJJYCsVNYCudm9rmh+aTCZ//9SpU6Pd0i+pHbvbAgk8d3f/7qrWCTx/5ns/8ZTAs8qq8HvfhY1d1eAraExlcVGD7BAWH0iB0euw0EFr/jPH5vXsb1yJgjbxGtveb/VzU9Xtri8tpMX1EybxJuQ7tFhnAEvt1I9WVufh/WlemhV63VhT6c/cekURYKAuY2Ga7K1obFqWVjaVZUUeyg/XaaLtNvvQGAxpcwbzcTVzZbN8i702sThle/Dk73U4vRrgBFCjXeJNQ7STyvVxhsFWWRb+qcVCTql5ISuE2i6LXUP7N2u36+U8v3ORYjzvffupWYxnUC+zQbBXSF3UJpDXzkXaq32wOGeZzNh+5/T9C8e1Cd7ZZ51cnGEctuNRnwke2atdfaZ/uNxZrBRuDtpFS3yOm518nivLK79x/Cvu/ksHs+z09WLXVI9kgUtZYPO/uMmuyQJbbIEEnq81eN1E955W94eJSRSmRx1BNADH7Fu+EXhucSd2LlcUuZXKR1MLGgXNvVDnqAQJKgWYQGLUAzPBZwueY5uYFKm+IK9uLKtizkSrImz1lO7GQVnYYzBsMziNu8DkgwBum34U0c5awVxPo3s2uE2V31GgEeXVuNOWe65Dm+S+vVAVvZp6qIiijudf0EZXSKEFKMGWrcapwwXq+qc/ymZPh6ugeDa90h766ocCeK5my7M8noX1Z3u1D4pecLVrr3aBp/WyAJ4avus3e/GGib3YWRzE6nbc7nqfVe0AqV/B7v/m+8DKePoTt/7K8sp/Pn7Pqffuz7KXr2b8pGOTBbbLAgk8t8vy6bpXbYEEnq81WVA9pJbUEdbY3znASPuaszyA4r7Omt66u/aqe+TaTggwpv2um9qyOk7WRdabqT5KmSVlMkJafATMalVPvZv3e0E1akq5HeP2hVJ5yZkoZSmsFlY4QZ4HtZMVy2Fyv8Zdg6Wgqh1BlXIAgvLVtdBr3e3XAp6Z9Soptm2bWsVT12SVtewpVRkVNIyBrDb9F0AmWnTPPkJezXavdhRPJZBny8ysLkyplVhcVJS9kEC+GdRWWhVc7QJPQDHEjJYxFZNuRgBQ7K/35DrXQ39rfHYVzVnfFcVrPveuemB3ZWXl87eeuOud+/ZlL+7ZjkwN31EWSOC5o7prb1c2gecG/Y+i1rRwprgzAVYWv9pBHbngW+7lvSwoZt1YxK0aZYKwuogO4CzLA3xGSIoVjsqRQgFata67dkLHhcYBT3UMLcjr2Y4wrCgOvBrssQ7kMVF3TOa92QegL+W5atXOsCilmlheRBX6yh5X72qXOXqWh5uOWYxnsFe0n0qsplVQNmUXXLPUB9f8ldVvdx4FeE5tdMGq9obvkQNP09gcmfUHhdlcY6NybHPFINjXx3CGXY7canZUz5Ceqd0CUwDJ6vWue93v9S5IRSVVD3TVUZW5srzyzMmTd799377shd3ZS6lVu80CCTx3W4/u4vYk8Hxt5woaA6DJhRwi9+qQXD8CZ1RA/WOmb7Uu3muNcbyW4SYlM9Q4k/e3haOmCApslsXXUa10bmoWxkhlbHJrJrnN9eYtz7PgHi2bsWVFKDBA31QAKF0zpMPRm9ks9lWTeKnNuDf5kO1iXGnRhgXIhZ3PdtUKtQaaL+tSZ7nU1T63lXeLi+jzIG4Gu8bwBO25EBfMxBhghR1orFx60dMmjbNDTpM9lEBervY3f82bg6t9LV8JKme4aajy4GoXMCokQ+ApxVOLi1ZGq7ZvbjGo7D4RfLjJaZoAlmydKXUTVVQqp14DnIDlRjGefhX8Rp/r3JWVlc+duPvUu/dlSfHcIcNuz1czgeeeHwI7xwAJPF/bV1IHY+qX6LYWW9V5bU1Rhzg+djuJYqHcspSRXehiFxgJkrbwWcpk3uvF+EP9qwrrBfBUxS2on/1iECrs4VPAGtJpNbkNmgXLFdLZVDa1idVqd08wUYb3UIjCMu5KC2nighrFgGrxUU/q1SYfuv58sWB1WVtZl5b1FDYwtdJq6/VzG02GoX0zu85CBYTU7UPw2rZlM89qZ0ho3t5gBBVTLnT6uY5xriGEQX1b5UEl1mIsPaQ472XwJI8nW2Zq5yKBp75TYdyVUtCbGLqhr1frahd4jqtJ2DJT6ZR83CUeB2I9BZ8+xRKpktRPrFJHGceV7ndCutTiIn22srry9K3H73pHUjw3+UVOp225BRJ4brnJ0wU3a4EEnhdaTkphb9ALe0mX7SKbYpCZuK3OFIEWFx5FoBGXrrvVpYCFNc55VEavLo3P63V8BGOBkXCwLhtrxlqqngUA7Wthh/bBbtXCsGJb7nkHnto7u56GlUnB/VkVExs1Q2t6tfXnYoxd2I6wamyyOrV62tggmw870uia1eTaFE/VLcSYZrXNLfaD+zXrN7Z4cNGW15Ys70WwXV+VH/THdTAUeOaKcb3656qorMzitWcqp1S5doV0UMhaVTYrBZs969vA+uGOJIYBYNPNfid3+nkaG5OmNFztrGrH1Q54xgVrtc3ZvGVKHN8rZ4uLtGUmuTUBUKAT9VNAqfdGo7j9JmonSeQ5jnAI1FEdD4zqGADWr3BfWVl57raTdz++uJg9v9P7I9V/b1gggefe6Odd0coEnhd2o1yEa9WKDfYN7ObjN9nd995lp+690w4cG5gtxNXLswcKWAypXH+Ig7ZzfQn1WTJ7/gsv25N/8gV7/qnnbO38yIqysKLqWx5WbsdKAkpVXgUg7deDuHq/31jVr2zYrFixmNvdD5yy+x+8307cfUto7/BLU/vTP/oz+9yfPGXnXjlv9UQ5GAViUgI39zMYFj2FxVGl7T+0YEePH7X+Ys8OH7nBTpw8ZivjZWnRod4ozRGi44Kg9cfmQF43F2WmzAVxJbXKDWmlmiaGKDSNvfjiy7ZydtnOvnLO1s4PrdZi7LpnvaYXYkMFUVcahborfkQ6jfCudq1q94pnBPeeZb02Q0Td2Hy2YFU9Davas35uRZPbcC3m1pyfnw9jkR2KBJGK0cRdLoBcW1sLuT1D5oM24byP8fSLkXDBo3iGcaQQiTZ2GyBdWVl58tZ77npXcrXvxhG6O9u0uV/c3WmL1Krr3AICz4/8g4+HnYusZzaplFtv867S67y5EbRIz9Nur6f3UEnKXmkr+bI9+sQj9pUPfaUduL0vMS2CZa9tnecbIG+WdLzlue3+FSCbuRb7ZmbnP79qv/KpX7WzL56z+WYxQJLUuphORv7OJrizg8syK4IitDRZssHBwrLFxr7p299nN91x2Gy+tQXrdqZma8+V9p8++4f2u//+s3bT/hvMRrkV9cXHELF67ELDYiI9r9VrNuqv2J333WGPPf5WO3rXTWb7YhsCJ4dl9+5vD/0XrvGKx15teCfHM5C7BMnridm5Z1fstz/zO/bc558P7uL5bNGmo6kVOQNlJ3wbvjx11M5F3XRKrGrXzkXyCGiMKZ2SbKeFY2UxDYpnT/G9ivMtFOcbB7LfBpPvsJ5n4RBNTPml47X4bXV1NaigOo/QECmdFyyMC2Nf8cnxpoLzFxcXbXl55Y+PHzvytfv370/plL48QySV+jpbYLunnNe5Oam43WwBgedHv++TT82NFq0pmgCe/V0+cXqXGu433Hn1fGWDE337y3/zWy0/aGbTmJIxE3DBUnzDL6Z4xhUo2/eQZ306tX7Rj3Uo4wY+9UtmP/eBT9ro7MT61cCKOi7ukIKoBUm43MPuMAcXbVgu26Q3tu/5P/6nAH911Vi+KGOYTSdlgMtci47kMT1t9h8+83v2H3/nP9vB/LD1q0vfvKBIzVIStTcD42Jkg9sKe99///V2422HY937ukSMr9WWriFt0YxF411ASGHk4f9arN+F2S58qk5qnqB+aPbLP/tv7Qv/9ekA9HK7h1DGTSq+11Lt6+Xci61ql80CTE5jjlQ9iPGUSizw1JaZWtU+ncR8uWEDgXZRUfeGJd40xZRhs/sEd1Mp8NT3QN9tIFYLmsjFq3M2SpcW4kQnk987euSOv3DgQPbK9WLXVI9kgUtZYDunnNQzyQJXZYFzLw1PfdKBp3IoxjW7u//BxKbJSA8pIvNHBvY1f/nddvyBm6MBJF61IFk1iodUnsZODsyYWCcev90+1iyuwsfZq7jToukFgBYQ/fYnP2t//Pt/YsV0EFzqWiCjh1ZiRwrIwqr1siitWMjsbV/7uL3xa+4Jdgie7CLu0qPyA2SJH8bRRstfHNnPffATli/1rF+10HuFw2jmIj1k9ug3PmT3v/MrIuBOS+vP9Wa7A+m6tE3xpP4R9196PR6x5Nf0qS9e/RxTRwY1+Rc//ks2PD0yG2fWz+c3HWrwetR+u8vQ90ohK1pcRB5PJZBncZF2LlK8ZwhdKKs4DtstMxXPu9CfD4onqZHUHpVJwnhWs/vtMLsAig30nRYIy2UviNU/4kFDiq4WbMlRy43QtJx+cH7Q/1+PHTu2ut32TNdPFrgSC7xev35Xcq10TLLANVng3NPnTn3yB38xKJ5h5Xa7EPuaCr3OTyYhtSY2TWYCz5AmaDq1o/fdYu/9G19t+Y3tIp1BYQJO7fiTFz2rrAxgHuGnzY3ZthcQukB922pbZLWN67GF3XWk6DS1zWVzlk1zs5XoHv6FD3/amtXMimlhfX0mZamOC2ryfmHZILfzo7OWz5v9xe/4C3biK2+2wJi92upcWBvhc2ADK0Sk2s1apLZi9k//0U/a/tEBG5Rzl2x5V60KC6J6Pdt366K97zvfa72bM6ukVPVl69rKSvbH7hcW/foB54Xl+v5s16uHtuu/kKqqKaxaaqzIM/s3H/mMffFPn7N8WlivntvT4Blc11qMV0ztwfc8GGI8/c5Fc72FAJ5hDNRNAE8pnpNsHFa1K8ZTP0R8Lz146m+5y33M7UYDDRWUfJ+on1rxLgjVwy8YYzzqtyGkBJuWf+/kyeM/mGXaRyk9kgWufwsk8Lz++yjVsLXAuaeHpz71w596qrc6NwPPzS4M2SmisulOAAAgAElEQVRG1cSiBQqajGaxnWUZJpy7H7nLHv3mB21wc5uoPOzHHeceAc76khW/eGW95YKV7QVPia6lTeoYayhIyqrM+tkgKHSrz43tX3/401YtmWUjbS+p1e8x92bIP9mL+TrHNrS5A337hm/9ejv6phuia7mvIsZxBxpTLJ7+07aaUU2V8vkvfuBDlp/pXxI8gyLWLgIh1AEl6uZ7brL3fve7wrXCNTOzyXgad6wJ3nQW/bjR9nqqzEqd1MLlrC9nQjbYGd3EQfGV233Z7E9/9yn7zV/5DzYo+yF2drd/hy73XVeMZ5mNg+J53xN322QwmsGm0k9p8Zge2qs9ZFFoyuBqV/YIxXhWZexnUpehfpLH018flZL32DozZF5oVU2+537lu8rH2xGyKDRN3Ka1rpsiL/7OsWNHfjwLAdDpkSxw/Vsggef130ephnsYPFE8Z/koFQZZlkFJuf3BW+2Jv/FWa+ZqG46GtjCvpezrblfyB67PRhFCWMvzGhftZhe3XMt5bY1CoveiZ5PxxOZ7iyH15Uv/3yv2Kx//NbO13GxNOT4jeBLjqZXt43JqxVxmh48ftG/9q++z7JCZ7Y9hB0qSA3hK9QvJ1MssutsLs3/z0d+05/6f5y8Jnn71MYoUcXjH7z9mX/fd7wgKqx5VWVvRa+M3ib3cKBJko1/dTS4uIgdnN24UIJ25+hXjquwAY7MvfvZl+/RHP20H5w5ZU2qF/d6dBnC1A55SPMf9YYBNAWA/nwvpyuJCtnXwrPuV5QNp6BE8+Z5qHLC4SM+43P1uYuE72sZ6clNDbk89h5jndrER3g3AU8+6EWUMSuXM8uJ7Thw78i/SRJEssFMssHd/cXZKD6V6ziyAq30wXAiLi/aCq913v5+spH7MHe3Ze/76O+zGOw7MYvxGo4nNz0X3nBbV9Adu1XL7bb8QROOSb4GLYGUrnyOtRaVwOp2E+Mjw1lRcmNsX//B5+8WP/rL1pwPrTQch/jMkf1fMXZvKKCy+GOR2+NgB+9r3fY0dvGcuKJDBA1pEV7seszhPXU//pma//LFftxf+04uXVTyZ5Nl/nXi9Ew8ctT/33e+yZr405WMvJHOSj1T7wAOh8W5g/fE6guesUL/IiDhfuf1tErTeEDv7/7P3JuCWnWWd7/utYe99pqpKIKmqU6eS1JAECcHuBu9VRAgEQUC90o8M2ordyqDAdXj6atu2XhWw+yqTtiCtggIhDAmgAk6I/SgJgowhmEAEy4QhqQxVqaoz7L3XeJ//+63/3t9Ztc9QZ586p/bZ385TOXtYw7feb+29fuv/TggzQILRDR+VY7f/q1yya690l7pjnVykN2JoaBVl8pgnPUZd7ejV3kk7Cni7py9SCNVzQIy62uFVQAF5JBfB1Y6yVCvFeBIy3XalbugGvtPYNuI78Z22bVxtshLON9dVXwdWrNdqtZKyKF+6f/+lb/OXCm+BUbGAB89RmSk/TgF43vxbHzwG8ISiBfjY6WoNlRBejFhSRTuWRPPy5B/+dvmW77ha0LhIXcAVaHY7mTRbZ0MnT6O6Cmp/CCq1rubCXQa/GiBpM7X1ol2BnevqtaB3trqqdSZ7G6vc//gDT6Zb1Qevc5FbP/hJue3W22XCTEkzn0RWkRaZ10do9wx7dIuO7D10iTzzuc+Qxqx1s2t3zADghf7t1v+srTNRdb9KMvqLd68NnnSNaqHxKuSBMXv7r9krT3/Fk7SYeJ7l0ohsrKi6SgOU2SltJn1lT8uf5ykZru5kre8TCVuFSPvuXN7xe++QyWJaC+rHUSXXjvHvC5KLoHhe813XqKs9bXYVNvX7FDR77VeRz9YomxrjuZQvymJ3SXZP7eopnnS1MyudMMobRlaj4DnFJCPGb+MvgRPfb8R4aqvOquYnQBTbZtxnBaudvMxffHB29p1jPIX+0EfMAh48R2zCxnm44wieq813t9GWRz56j3z3v79eph8BMKugC50R4fatkl1WP2eg2BQSQEFEWSG4oZsiaZRoRrz2N6+KUeqPhdKe/Qc9Ee5swN2kNLWge5miXzkzyvuACqekrk9lTrdRtejUzKJqu9g/cou+lsnb3vR2VZgiLadk211qb3pQNjYV2L9JmMrM3KR87wueJZOoZVoNeQCLWRtV+/vw2z4ix7/w4EDFc1m3JKcUDiopsKD3vkdfIt/z8uskj5SD7YNcWe0ciUZIxrduf9gJtZ5qyw7xpT47qI8bryAXL5lQNS/yiQ9+Vu667StaoipPbAH8cX5oshqqK1RZ7VA8O9GSllDSkkimIQvtBVUe4WrvnO7K1PSEJhehgHxQGFU8WTQeLnLcoABCUWMTj3a73YvPZItMVqnAdql6spwSANTtVsRYT73fCm08N29EgyDqFGXxkrnZvTeM8zz6Yx8tC3jwHK35GuvRjrurvT75aZjKfHRKrv63V8oTn/REmTnQ6hcud0orLVuvXricMMm/ADMIn81COuWStEyrcr9XaqUDTQCpRFL0/pG41AKWfagC/GFfVDKhYg5wB0taisTIyqkSdDKRL3/8brntk1+QU/eflqhsSlgANm2vbBc8FT6xatRV8HzmDz9DZg62NOmD0qpbxrQHzlWC0TDgiTjT/d+ytw+ezCdmSdDKzojBRJwpKgxA7YRiVuV/9QvMDx0j278Z6M019k+gx9hOiHzu1jvkc7d+XtL5XOM7oeiZkNX1x/enheDJrHYXPE0RSjfraswlCsjnS4VEcaDJRQVCPpJcotBWmsCDSYCsfIC/AFGolExAYiIRFVCsR/WTHg2+ZiF5qp4sHs99hWGc5EX+kwf2X/rH4zuD/shHzQIePEdtxsZ4vOOY1b7adCO5pmhk2rXn8OEr5Mqrr5RoIpapmUmZ2TMl3bRrFZKqALZe4LhBqJOqWuaS4sIaAItiiYpJBc59114sZZBqRjhItKSbfBl4Ws7F5pfuT2T+/nntr66uQyh8YYYrqu4R2cCARgpsKHVUmkzHANXnweMnpbvQldMPL8gXP3uHzJ+Yl4unL5aiW1brLe95rhutFNPtB89C4VgfjFaowDPNUlUVEZMM22QPlxJPOAXrN5hUNLAGa6VEu/CZnxR58L6H5M7P3SX/cucxKdsi0/EuQaJ20ulKGOPOoK+SjtvPi6t4IsYTvdoR44nvhcZQxpO9mp44d6HAJ2lHmzRkWCbJpRG3eiWT2JOdLUtd2Kx3NnJjtvEc0IoH63UyYcmND6X7HtuySqjkURi9bHbWJxeN27k7ysfrwXOUZ2/Mxk7wjJdakptcE0h2eoznWlOMWpZJ1tWEB/SUBuDgvbgZSABXe6XEcDt9z2ogCHeMmpHkBTLKC8kTsFxTilYm3//j3y2TlzRVzbHgaR8s2GJhFr3BbWmif7r1LrnzM1+WfCmzcWpo+RIZdVnCRR70XOXYCorbw71py8frxT/JJe2m0l7oSsM0ZGZyl6TYlsIqf6bq/c2tArp94AlX+1Mlj2ySCYzEFuzLCtsA8MtC0oVMbvmzW6VcQukdW5S8ar291jSv8rmVlO182H+YV6rDsP3ph8/IyftPStEVmYynxWSB5Ekhzbhhi/GP8aPuah8EnqjjCdVS8kImwylZai9IYyaWtMzU1R6YqNfGUu89qkl1Sh71SiWxbzsrTjCZiF2J9NtRFPqdYCY8yyzhNeGU8aRJkhVBGP305Qf3+XJKY3wej9qhe/ActRkb4/G6BeQBWEgucsS8sbOMQlcnlampKb1YddOORA30+kNB81QCgF9he027wGkB0sIkSsWUAZKSAlv6pWxpOZn/9F9/SKZnJyxJ2U6TVt10XMj6DmIy2yL/+JHb5LZbb5MwjaQRxLaMEZIi4GJWVzkA0rrrbbtLC59gSmSD40KM5J8G3JaF0SSiLEmkEZ9d3B1g1QfpQNJwu1ztg8HTFm13yiphvEjsOZHKu994k6SnMwlyK0+WKPg/xK8wgN7eEWA7/ZQv2qdIbQtGTZKBXbs2IS8MbW9wNBsY54fGS8JlXhWQR3IRzn8qnqjjCfDU70ZRynQ8I+3OYg88WU6Jmeos9E5wdF+79TkJnr15qvqvYz0mGbkAyoQ219UOTwG2U+T5L1522dxrfQH5cT6TR+vYh/jJG60D9aMdfQuMc8vMQbMHmGsGLSmyQpMNtGS4sX3CASJ6cauy3PsKnP3KAwb1ERhVvaK4lEQ77jRlKViQF/7i82TqgK0LSvDE07AGngr+qcinPnS7fP5jX5CoE2m9zUwTgEqFG12PgETwhKsdHwCG0I4QmeAAJMTR5db1OzExoZm9fGjYIktCIVlcc2O2EzxtjGcZFT17IuHJgif6djpJU6g6cFLkhte/W/JTSNpCMXtrHwD4RsI8rbzqRrFaS/W2h3I/xna8UhBCllNeVmATagmfEFn3Y/5gy0zEeELxRIwnSygB2LXtqiYa2RhdhKaUjUIbH8Qmkoxwbwu6V0q29TbwNVtnEkgxJ/rVqpRNN2GICURupzI3Y57PGU+aJtn/jKK5Xzx40LTHfCr94Y+IBfyvzohMlB+mSPt4+9CNTq/2JE8lDtw6PONlJYBn2rWubSQvIIsdoIbOPlqGBb3MqwucSosOpljwDKQRNrWGpkSppDmUzwlZjOblBf/PD8iug9NOBru1LcHTlgiyCUOmI3Lrhz8tt99yhzSSljRMSy/SmlSTW0UN4Kkqa6V04mKPRxMX9tS6fcsy1wzgAKJtGFYdg0w1dNt1vgeeVcwpNrN9iqcFT4kKkQrkoR4jfADxssuy+HOR7ITIu377JskeRlmeWFVdNJvB1ACiN/KXafSua1/BU93+ULpDSYtEzxF161ZgROAZr2/M2UerMZhVr3bGeOLGC6EigMbpiV3STtpquxglstookQWhv6Ou9mbY0HJK+JwxmS5c4nsINz27Dqmyr7GZ9maR79dDYvAZ/uF7je8wa8jitQup2E6SJB995KHLn7/bmJPjPp/++EfDAh48R2Oe/Cjh0T3ePvSOX3vvscl0RrOlAZ6Rynvj+4gCm5DQSboKblAJ4XLFxY6Zsfi8Fx1Z9ruFo10igFBjDeNM7Rk2WrIUL8hzf+775KJDaAPUVzxdVzvBU2NLk1A+/qFPyT99/EsSdVoSZnBAGsmyRIIYLRmZjX42eCLpCDRpL8aZhAifQKxqpjoTc5OkrJKU+vBpj2jbwfNlAM++stkHT1igirEtrM3TB0Te/dvvk/zhUhrGur6DytWO42Bs5rn8VfavwJX2cL8NmFvADUAKNxbIyIYNWY5nfL85/SOnqx0tM1lOiYonyylpw4YolmQ+lemZSWkXS5rVjrAShIaw/iYhEzdOuInatWuXLC0taWwmgJG1YLXHOjwSUdRLJiK8uolJrgufMZ8su8TuRosLC7ddeukVz5iZMQ/4+fQWGAULePAchVnyY1QLADzf+cqbj7W6Uz65qDonrAJo1cN+58Ozs5TdbHZCKErFhAUq8ZdSRMi+RqZuIO14QX70v/ygTM/ZOoQakykoEW8TyQmj2B8qeUoayMc/9I/yxVu+LM3upGawK2xCzauSm2wZJDtGbC+tpNM4t0qoffSVOrvs2bWfoCXah/2Lmp7blVx04FF75el18AyR61xqNQBrsX49ze5Dubz7DTdL+bCRsKiAG3GeVCg3oHz2WmZWNrQm61cP4E+Hjam1E+gqx2NextMmtjm92tkyk3U8EeOJGyGttZlmEqShFpCHqx3gKVCttXBsvyQS4zr5HmM1mfFOFzz+AiZdkGTheKyLOqCDis67LnwA8cLCwr8cOHr4u6aMuc9fKrwFRsECHjxHYZb8GNUCHjzPPhGgbvZdtFU3oFp5nD7YucgGaDMC1VPhEKWP0MFFAlmKFxU8dx2Y6oOKC54gF+TO6K9HJkUayCc+CFf7ndLoTlvwrHLhoYjqBZgxpWgpGSCj3RJsv8RS9VpBFyWU6sdqf6pGCTwrBOzVWOo+lMm733CTFBV4oosS4HyYh51/AHt1Y8CQip69+1sn9OMdhiyMO3jCFnS11xVPFpBHcpEqj0Vpz+1QtFsVXO0AT8TaunU4aXGWUuLNFxsP1F/zfbro6WZn6SSCpp5PQaBhKFQ/sezCwsJ9B+eOfNvkpPnmMOeSX9dbYKss4MFzqyzt9zO0BTx4DjZh3zXrFoXsL1svOeWqnxbmcpEgkzIwkkloFc9feJ7snpuqYM8W6ukpnhV42iDGQqQbyD988FPyxVvukkZ3ytbsrMoklWhl1IsNBa0GEJEsfGpSjU1C4kPLmQ/Iwu/LuReg4oloh6rnfImyVAg/qOqfWvi0cnT3RCrvesPNUjyMmFft+arAstEHqwPoPnqK53IArW+7l/de7XbcwbOe1c5ySnC1A+qa0UQvw50tMwGe6FzE5KJeDS1Mc718WWDDLTjPdKMDHAGWblcjFp1nDChjOVmCicXl9XSq9oOxLCwsfHPuyIH/c9JMevDc6JfJr7elFtj4r96WDtPvzFvAK56rnwPsQHP239VENVXBBNAJ+CwlLwGeS/LCn3++7Do4aZnQLac0qDVkR+STH/qM3H7Llx3Fs9DrsQuegCO47BGvmaGEDfz2Bj02VyhgXql4ln4H1fK0STnb5WrXzkU/dZ3tDb8MPAHUVQyqDl4NUYHneyU/LRLkkfaNHwY8Ffsd27Fc1XIQxav+z7wHz+Xfojp4wtWOAvJMLmqErbPAE+crwXMibunNFN3rLnjiOWM7B5VbgnKJmE8qm4j5xHvsbMRtEjx1vqukJAJsa0Jd7V+bPbz/O6bM1L3+OuEtMAoW8OA5CrPkx6gW8Irn2SdC342+XvDsQ551vYKZMjFBrm7fooxlKV6SH/v558v0QVxULTf16nhWPdXJgQq1qOP5oc9pjGcjmZQACUOI19RSliiHVEqovl28Eek+M6ieFXgCR/kAmPYfZ/881RW67S0gv1e+BzGe9nAtH1fllKzuWLUZVWIQ6Z7I5Mbffq8Up9DpqFI8q/jAjXzF7Ry4vdnP3oq1l2PTfiDwRna5I9cZ5GpnHU+UvdISZSh7VNoOXEWZactMKPZoHIAYT40BrQq/s4QYwZHlj+iOd+EUMZp47XYrYlxnfTtu0hE+07JLAlf7/D1zs3NPmJry4LkjT9AdeFAePHfgpO7UQ/LgOWhmmWRjM8ZZssgC6eCYT1dhRMwkLrIh2lcGRsoiqhTPF8jUQXQtqhTP6pdCc4K0/7h96Ot2YMHz1jsl6k7bmp2I0zS5FAZN2Nm9CGMKVfUEeGI72HsvqQikal85B8rjsG8pSDkSLuJUkzDd1l7tZdQfEmBEj1eifjmlig/TE7nc+Ib3SH4a4NnoK55DwOCyWM3KLstVUJqygs8h9rUTf1fqnYuY1c7kIjTgQoyngh507DRU8ESMJzpzlWlh66PWOg65rwmMg5KLoIgSNKF0YhkkGzHjve66169jVftTXfJlBsXzS7NH9j912kwf34lz5I9p51nAg+fOm9Mde0QePAdPrY3xRAtMC3j8uzJ4OgktZahlmAIAUwWeVvF8gUwcrGqkQvEkeFZomChc2UpC0o7kkx/+lNx+y10SJxOq5lmVCAXtoXhCGVJstMlMEmqcpwVXm0hks9jrCUQW4SwoU9nDwn2VD5170m0Cz33fslee+YrrJAsLiaoYSwuewGunc1FVSD47Wcq73vBuyU9DAW7oITEjeqNfWirezG7XrHUHzAmhjAE9O2RhfPu00+YrKZ6qWGZGwVOTeirwRFewIs7FoDQVisdXJc2gbLoudY0RbTb7lR1MlR2PhglV3CehVBOZosjWWq1qeLKQPJVStxVnD1bjQBYWFv/x6OHD32eMeXCj55Ffz1tgKy3gwXMrre33NZQFPHiebb71t1s8O3vaio4AT5vVrskLRUM7tyC5yAXPnmu9Ak+UScejB54f+ox84dYvaQF5U6K8TBUzihhOgGeVZW3jPOFutz89ocIX4LMqFF8BHPe3KnhWfdy3DTwffYk88+VPlSzMJLKWkLKyi8Z4Mm+qAs/yhMgNvwPFM69c7dZNO8zDQG5FyfqqMD/VYNiTj97MI5RC34TbuF/Capj974R16+CJGE8kF+F7wRhPfDcAniYJtB2tq3hGYUO/O253IbrPGa9JeCQw6vaq7HTX1c7lsS3GdhJOdeacZDQtxxSKLC4s/PWVR6/8IWPMwzthPvwx7HwLePDc+XO8Y44Q4HnDq24+NpFMC5y9GkPoBZuh5tf2bM+lCG0cm8kteP6H//KDMnVZ5Wq3rGIfVbIRYUaz0tuBfPJDn7PllJKmhAo9AE9kydsVtb1lVXezNIBP+z5jNvFqcGGh5a723sZ0LEZDC7YvuYi92lGEqupDz7qdOBj+qwTb8kGRt7/pXdqrPSpjqwwPMXtaraAIJYhCyaJMljrzWizeZIE0pSVBHkgUhNJNuyIxepLntvQWoAfhEIUtxTTuD5giDxJB56Kj33GFJhexTSZaZi51l1S5bISRZIu5FuEPJwNZ6CxqjOcg8IRNGfOJbmKMyWTGOlzpbjcjAic+t61MbckkACgTlFwY1Ra5BdRWLbH0hm63+0uHDh3qjPtc+uMfDQt48ByNefKjhEf37vaht/1/79HORRrPCCbxMWtDnRtBAdd8LnkFnoGC54L88C8+T6YR49n7hehlz9j9uSDaFfnkB2+rwDOWqIB6acEzV7ANKlc7cNPWHcX/CoNC58OBz/aCJ3u127ag/WQixlNqmVNL3KnI0gOp/Om7/kTap7o2q10Ttzb+E4xjbwQTkiQdDTeIm7YLDuAo6EQyEUyKyYwEcShJ0bHgWWVaYzxlXogBuQyFv0Odftu+MrPayygTt45nP0Qhkm5mwRE3SflSYVu6TgbSzRMJtCuVTS7Se6GqP7vrHmebTLrXCZQsHk/1k73ZWasTGe8sscRSSq6yqvGheVoWRfGzc3Nzv2uGLQq77bPhBzAuFtj4r964WMgf5wVjAYDn23/TtswkeA7JLRfMsW3XQDx4PiiNrHmW+d3YSQKDJqIgHhZJHZKLllPSrPaz4bmu3qrrPRe558tfl1gA57EmkZjYdi7ayANjDFHQHCpZnki7uyT33/eAgueJr52Uh755QmusTjQmeuob9tmMm1ImVuG24Lux/W9kzBfiOoNiPJlchFAUjZkOEJ9cqqudnYsQUYIYzwL3WEGg/3Cu6Lwao0olYRSfsY0t3qdbniomFE8oo/iLB/5iO25yEffBDHiosFLmWZ7nP3ngwIG3Xoi29WPyFhhkAQ+e/rwYGQtor/ZX3qTg6V3tmzNtHjyHBE/U8WywegDmxEKcDeu0/2VFplCCOFB0cApsnSlbowohnowzONe/3BEL+juu/fu/fFI+8XeflJP3npaFkwsyFc9IFMSStTOJg1iKLFdXb4a07TF+uFntcLUzq52udpgnbFhFE+CJEAZkkqOOJ5KLIOwDPJlprmdAYc8BJgOpS7zKVsf7BE837tOFUfZ2J7hifaqmzILn6zAQuNdfPDs7+84xnkZ/6CNmAQ+eIzZh4zxcgidjPLVkz7K6j+NsnY0duwfPTQLPXrKO0w8dST+abuRk4aNlaFlIbKCGOXU+3aZT5wCgOW7BylRCg25RRvK0kBi+YGyvI3LLX3xSvvCJL0qUNKVR2rhPJHoBZgAx4w6e+NagVztiPB973WMVPLtxW1VOTQSqwBOgB/CcDKc0uWgpX9RySg1ktDsF5N2EIKiZAE6WRqL6SXe5WzieSid7tWNu8B6LyrNwPEsyEW6LPD0VBMGLDh48+P6N/QL4tbwFtt4CHjy33uZ+jxu0gKt45uiT7MFzg5bsr+bBc0jw7LnaKxWTptWOUIVk6AqlUa5wzyNH34InQJEJSRudRCuappLkiTTChqDYuaZ15aWEKI3VEVl8sCN//+e3yN3/9DWJ06ZMIu4TlQXKTAqnleNGx7AT1oOrPTPdHngiuQ5Z7YA7ZLWjnBLc5JIXMhVNazmvTtlW8ERyEep4EgwZr4nXjNkEPFK9JHwyaYjudKyH561Wq+e2h+sd701MTOh7eM6EpV4caLftwXMnnIRjdgwePMdswkf5cF3w1Lg4U/qs9iEn1IPnkOD58uukjKoWmQzsdAM8kXhe2nhKLX8T1Op7aqr/xiZRwbNILahowKH18at4Chc+hNZM5L5/ekj+7G0flqgTSctM2BqSodGkmdg4lQs2NoyRXmtQAXlktQPmAYeTzWlVP9W1XYraDzGeaZAoeObdrFdAnp2KYJBl842IijDU7fEcAEC6dTmxPECTme5YHq9ZC5SdkbBtwqdmwheZd7WP9Bk4noPf4E/eeBrLH/X2WsBNLmKMp89qH25OPHgOD56o6RhWdTzdOvc6M3Sbu2Uzq7aj+tmQ4Gn7PAWaNd+LOkEb1DKXEC53ZNV3RN7yq++QqNOwnXcQc9iyHXIidN0Z88oQTC761qd8q1z9xCO9Xu2aUW4aqnjqVBaltsxE+TGAZxGUUiS5ZrWzXBKLvwMqAZGwMT9rt9sKnkgKcrsZ4TkLx+NzLKflm6p2mm5BeY3LzTLdLvbRbERILnrZ7OzsHw73S+DX9hbYOgt48Nw6W/s9DWkBgOeNr3v/sUZ7QpOLvKt9SIOCVXw5peGy2l9+nRYTXxU8XQDllBE+K6Fy4zNp40gBlCp1Iikav+rwCKC7AP6dEfmTN/+5PPz10wpOOpzQaK1KLSQ/xuBJxZOu9iufcEjBk/3ZtcECXPGO4gmVGclFYTNSV3tZLC8ez+x2xnbiLxOMGMsJcHRd61Q0qWZijlhNAc+phmI5uP2ZjNSIwzLLsp+Zm5t7oy+ntPFvkV9zay3gwXNr7e33NoQFTt196tDNr/2Qgqf6vWyfxSG26Ff14Dmk4vmy66SMV3G14xQD22k8ZWnjL+EHZyJ8LTT0XM5Im7TEFp1QLq2rHVn0+H5EJpZiHnUnA3nLr7xDorQhcdpQ920Q2QSjcf/+aHQiRrIAACAASURBVGylNlBIezGeBE/MRdLOzspqh6sd4JlJLpGECp50s9N9DhsDOCcnJ3vxn3oqVGWXOM9cjwooP+f6iPnEg0lGBFS20wyMlm/61bm5uf9hjLYJ8w9vgQveAv6qfcFPkR8gLXDq7vahm1/7Pg+em3hKePAcHjzFiojLWy9VyUWAQyiSBMRcSoUVbVupvnH64M99UrFtJBfpPgoLtAq1ulXUDUXtSRF5SORNr/5DmQ53SdAJJU8KaUzYWpKDu0Wd+1hGeQ1ktbvguRQsqBqskJeKBHFVozPLVVlG56IsTGWxuySTjQnNandLKDG+0+06pIXqnV7uTA5iPU/W62RZJiYrsWsRlmf9TiqqWDYKDTodvbXVav3Mvn37Fkd5HvzYx8cCHjzHZ65H/kiRXHTjb7z/WLzUUkUHWcO+nNJw0+rBc0jw1DqeK0MnwROAiHJHWsuzKqNk+7Rb8DyHCkrsWqrnf7dMJKpgE9vHtyJEJx240FEnNBX59Idvk9tuvV1MN5JGGUveKaTVmpQsSwQtpcYdPl3wRMtMgCey2vFoxZP6XGEvy6VolwqeZaNQ8JxuTfXAkwlDLHnEYvJafL5KLqPCyRqecJvD/U4FkyDqlmXCdhHzCXc7O08xdhTg2e12/3zPnj0/umfPHt+rfbifQ7/2FlnAg+cWGdrvZngLtI+Xh278jRsVPNVbWSKwf+OK0fAjGv0tePDcJPCsnQq2eifVToihVvFqheg2E1gBVGMxN0ydy1XWAO5YlGmqaoNmIsVJkc99/AvyqVs+Lc2yJelSIVONaSmTUhqmKXmeSgHw3GDnpNE/++0RrAaezWhCs/+1AQAK/3eNtsyUZilJkap6jRsIKpp6EzGgfSZBkp/RdgBIqJraDasoeh2NCK8AU2wbLncsiweW18QwdDkqcyief3PFFVe8wBhzcqfMiT+OnW0BD547e3531NGxnFKrO6XgiYv7uMeoDTvBHjzPH3hibvLCZpfrDRJgM3H6tw+Z1a5SJViE3Y94D9YWufsL35Avf+Gf5e677tGi8VHYkLSbKXhinSC33Xgyk3rwXMXVjuSitCpZ1QgjCbNIs9rhakdWO8ophYEFRzyoaLJnO13ldMVT6eSy/NxVQl0IpVIKEOU6el5VxemNFMiC/+zhw4efZYx5YNjfA7++t8BWWMCD51ZY2e9jUyzgwXNTzLhsIx48hwRPTS7qm3TZDypbWFbtMdOThdz6kVtk6WRHQmRLwxWOkjwb/BVGRnqIOpxVXckUVFuUUiYiyalUFk4tSrFUyp49e2QpadukIrh9MyNxYWEpRYH7MVY810ouKjMjJjK2dmZRSqNs9sop5bBbhmL9ffCsf0MZj8n4Trf3Opbl526MKN5jctHU1FTvOSGVveA1TjQQWVxcvOPo0aNPM8Yc3/xfCL9Fb4HNt8AGf/I2fyB+i94Ca1mgDp7e1b6Wxdb+3IPnZoBnv1f7QPCEygnB6mGRP3rdDZKezmQimtJkkbrrde0Zc5ZQlz00r1zyINNYU2TOS24kTCKF22bUkqVOW0zDKKAi9hPaXFhEUpZGoXPcwROu9pXKKSG5KGpG6tpOO12ZCCY1xpN1POFqR+ciutpZDomucgCkq3Jy9jjvbrZ6Pf6T5ZSwjU6noxnybKmJmE9VQ4tM5ufnv3rllVc+yRhz3zmdP35hb4FtsoAHz20yvN/tuVsA4PnOV958rNmZlNzkYqIqa/fcN+XXqCzgwXPj4HngUXvl6WiZ2ajCPtze6zzDet2MSumeyOWm135A8tMoA4YWmmilOdxPcFAaKQCbcPM6yiXqSyIMhUlL+BzLYXk89P+oQTnGaqeaoCylCFEAIJFrn3ytoI4nWmaijqfCZFJqOSXbHUrU1Q5YRDkliW0B+Thq6udMDAJ0smUmAJFueLU7whuqup6I0XTjNvkZC85rm06RXjcjLssuSIDRmelJOXP64TuvvOpR13vF0/+sj4oFhvvVG5Wj9OPcERbQ5KJXvfMYYjwBnhJqi5YdcWzbdRAePDcPPNGJ3Ubi9SsrWfADYuaSPJTL+3/rw1KcUlFSk48iAKJ/bJsFAHt5YBXja598jVz1nUcVPFFOSd3ieaBqtaqPRSlNmZSytJ2LEOWQtXPNSHdbWrrudbrHAZt4EErZrYhqKNenG51Z7shkB7yysxEL0fdKKkkhi/NnPn3kyquebYx5cNsM6XfsLXAOFvDgeQ7G8oturwWgeN7w6zcdm0imFTxxzaaCs70jG929e/D04Dm6Z+/mjHw18GTnIo2PLUXBE+EM6moPc4nKuJdQ5I6mnkRE8GTnIpZeYq1PrMs4UDxnnU+2xlRAzvNevVC66lFOaWlp6eNHjhz5AWPMQ5tjEb8Vb4HzawEPnufXvn7rm2gBjfH8tfcem0xnpAiKZa7DTdzNWG3Kg6cHz7E64WsHq+70AJ2LclU8r3zCkZ7iqcp1lVxk1c+ip3h2paMq6UQ02QNGutTdOE9ttYkaoNq5yqhyyXhQvM++7IzvhELKskpcFttgFjveY9Y71qnA86OHDh16vi+nNM5n8mgduwfP0ZqvsR4tYzyheAI81UvpXe1DnRMePD14DnUCjfjKg1ztbJmp8Z+paIynPvJC4gItLAuN8QR4xmJbkGJZljxiQhFew1UOmGRZJLeQPD5nchFbZrIHO+I78Tnrd9LFzn3gNf7FUYDe7R84ePDgjxtjTo/4dPjhj4kFPHiOyUTvhMPUzkWvep/GeGaSaYznmOdGDD2tHjw9eA59Eo34BlZTPAmeqkhmuTTKCUHJTtTxLKNCS1dR4XQVTyzPhCM3ztNtjUn10i0+76qZLDoP87ptOOm2x3sAzyzL3jExMfHySy+9dGHEp8IPf0ws4MFzTCZ6JxwmerW/7zXv06z2tEw1q93HeA43sx48PXgOdwaN9tquq/0xT3r0suQiutrRq10VySxXV3sYGlU8UXwfMZ6rPdjiEuvXy2cxgYjxnkwwUhd65VKfn5/vtdTEflw3voJtlkBx/bXLLrvsvxtjbGsj//AWuMAt4MHzAp8gP7y+BQCe73/t+3vgGcSog+Kz2oc5Rzx4evAc5vzZCesWYdHLameMJ8spIavdBc+WmVJX+1K+KJ28LdPNmWV92KlOugolFE9CI/u2s2A8+68zcx0lktSFXrnnXbXThU5uLwpNmSTJyy+77LI374S58McwHhbw4Dke87wjjvLU8fahm379Jk0uQla7W5dwRxzgNhyEB08Pnttw2l1Qu6y72peCBW2TCdCbaExJicL7KNae5RLlTVlaWpB4OtKEJMR4Mj6TbTLpZoeiiVjNRsPGgSJDHc+pdNIVjzhOqKGAUCqdbtwoIRbbQhF5LIeHlmYqi9SY8KUH9l/6xxeUUf1gvAVWsYAHT396jIwFPHhu/lR58PTgufln1ehssZ7VjjqeSC5CHU9VHoOmZKXNKo9MIFA8sywRaZaiLUpTewl14zHd9pdUL7EMM9zxnKWRWBaJoEkwBaQCNKGEugXpCbFOPc8lE4Yvmd17yY2jY3U/0nG3gAfPcT8DRuj4PXhu/mR58PTgufln1ehsUbsFmaznar/6iVcuKyAflJF2MYLKONFoalY76njmUSZJ2dXkIqqPzDhnaSS2t2RNTixHdzmeAyyhdlIhJZDir1uQHm53QCsTk9i5SJVQkTNREL5o//5Lbx4dq/uRjrsFPHiO+xkwQsfvwXPzJ8uDpwfPzT+rRmeLgEKCp5tcBJVTSyRJrDGeColxQ4q20ax2gCdc7eh5T1c71UuCI7YN5VLV0ihSo/A54BGf4X1AJf5ifcR4Yr9stUlXPdVS/KVrHsunaXoyjoKfmJ2d/dPRsbof6bhbwIPnuJ8BI3T8Hjw3f7I8eHrw3PyzarS26CqedLUDPOlqRx1PbV0ZxT3wRDklZLWzgDzd6zhyFosHeFKtJJQCNgGdBE68jyLyWBZudK5LVZNwStc63e9UP/M89+A5WqebHy0UfW8Fb4FRsYAHz82fKQ+eHjw3/6warS2yZeZjr3tMr3ORC55ILgJ4NsJIk4ugeKJlJrLaJ+OpnuLJOp6EQlqBMOm6z/EZ4z+1HWcQ9LoauclKbuF5LMPC8gTZoigWwyB4yezsvneNltX9aMfZAh48x3n2R+zYPXhu/oR58PTgufln1ehscVDnom7c7iUXoVe7oGqb06u9KDJNLlpKF6UZtHr906FSup2JYAUAK0so4TO2z3RjPelmZ1Y84zmxPbjcFXobDd02PsM/vK7gNQuD4Cf37bv0raNjdT/ScbeAB89xPwNG6Pg9eG7+ZJkykAIZvCESGkqRItDkih/9hRfI1MGG9Yloeyj8Q49S/IM/0RlLR+QfPvw5+eItd0iz25KwxEq2BE3G5bFmWYhgH7r+Jv30mFLSMJGZA1Py7B96lh0zOhwGy4fI8fcOpRD58B//lRz/wglpZM2zDAu72GEWPfenHk9p1SlAwuy37JWnv+xJIo3+vnhU9ihhM5qrlOShXG567QekeBgDNFUM4SbZYfNPjbHYok0uKiQzXXnMkx4jV33nYQF4so5nnpQSNSN1j+dJKnHRUNUR5ZSQXBSWKOJe9hKE6nGeLAbPrHW3VzufE1C1fNMEOiNpNyL9/uCxtLSkcZ2EWsSBYjk8jDFlYIKf3rfvkjfh+VhMmj/IkbeA/9Ub+SkcnwM4dfepQzf95p8dm8p2actMX8dz+Lk3UagJDVEjlsLkWirGTJXyIy9/gUxe3hCJRDLpol6MvdAh2aIQzeYNQpEyL8UERv7u5lvlzk/9s8SdprSkJYHE1gVpxF7ElfhKMVJIUII/sT3Nyt3wA/OPBI8iTOXiuYvkKc9+slx05YyCp3JtWAj+6yRtaTUmxICiMxxKKNIR+cv3/I1843PHpZnYi/igByGAsXpsaYhl93/LpfL0VzxZwdN9dNNEojjQY8vKVGITS1hGsni8Izf/3vul+0AuM+EuSbuZmBB26APqho3hV9yQBbTneSh6Dl375Gvlyicc0nJKLnjGLdtrHeWUpGskzbpiWiK5KSSSUIpcVIEEkOKBuEyAIl3mjOdk3CbjNAmcWBfLEE5Zmokue2bJYwz8x21jW0EU/cLlc7OvN8bkGzKCX8lbYIst4MFziw3ud7dxC6BX+7te/X7t1Z4UiYBdQkdR2/iWx3fNMjCS5pk044bkZaoqTtFI5SU/9+MSPFJEJkXKMJMUqiigUWKJJRK9xIGX8AuyIPKZv79NPvv3n5dwqSlxDji1rkEAZx4APO0KWLwPnhZlNwqfAM88TKSbd+QRBy6W5//Yc0R2ici0SA7CjEVS6UqE8UpQ7Tu2405FPvj2v5D7v3hiVfDECAEELnjqqI2RfY/aK9/98idKFmQK0mFs4TwvM7ULbo5CPUMDCfJQkocyefebbpLkZC6T2ZTkiYhRSPbguV3fQOtqLyUPkp7iCcUfcZ12MgN9DpiMg1AaZVPyItVe7Z2sKzMT05KlxbJkIWauMxOd2e3MbNdtxbGqpABIutoJnm5tT6qidfikvTT5KIzfODe37xeMMe3tsqPfr7fAuVjAg+e5WMsvu60WaB8vD934qncqeOKiLqGxXmD/2LAFVDkJjDTjSLpZVxXEJOzIT/7nnxBziVg3cpxJR5IeRBUl3o5VPcSjOCVyy199XL78mX+WsNuUBmod5kbCMFYIy4NMSvUC1sHT/vwMA55QFhPTkamLJ+UZz3m67Ll6SlVaiQtJQJeVmpgXpbSClpgs6I37vb/7JzL/r0sDXe00KOEAoAAwIBQAJi4+fJE86+VPUTgHaMKWSZZK3Iil1ACGTAHX5KE0wlgW7u7Iu/7gPWLmQ2nlUxKVoWQm9+C54bN3c1Z0wROKJ8ATiiceKKeEYvLadSiMpGUmpMTMhqm0045MNiYkTfrhF1TEXdjEOQQIxTnEYvBUP5l4xPOMNzU4l3C+IcaT0MnMecaKKjTnuRR5fuvFFx98zq5d5qHNsYjfirfA+bWAB8/za1+/9U20ABTPG379pmMTybQUQSEmCqTMPHkOY+Je6ZfQSJInUkaFXlSf+2PPkYuv2a3gCRhV0NfQSbiQS4nKWExh1GUtiyI3/N57ZOHBJWmkEwJnOxRAvWBWiifwEs+t4hmIqWI8NwqdPOZu0pGJXS053TklL3jR8+QR10LyFJGJQjLJJZGuBIrMocRlQxA1oI+2yJtf9VZptCdVoV3pwYs7gcHNMp7c25Trf+zJsvvgjKpiUDwBnDgjsyKRRtCwIQUQexOR2//3nXLrX3xC3exx2pSsm0kZecVzmPN32HVt5yKreD72useqqx0tM92sdhMZq0yaQKI8lgKKdrPU8wtCPhRPN4GI8MgWmYRInEOMD9YbLnw/yuXfALrSCaLcbn15wifeX1xcumP/vkueNj09fXxYe/j1vQW2wgIePLfCyn4fm2IBgicUT4CnVzyHNyt/ADTJogAIFVoq5rHffo18+w883iqeUBDDSsETIyHwMQ+sepiLnLhrUd79R++WCTMhpmOd8aFEqhIFsZEcaifiPCEMlkBXvESCzfDQ1QybWtYmayTy3c95mlz2+H0iLRFpQtik4hlIBIUWIXiAwFxk8atdufGP3iNx0pKwGssga7KfNpVOgqeqTzOF/NtnXCvf+uRr1E55UajrHKGAeYEWi9U+seFTIn/7/lvk7jvvkTCLJcxjKXPvah/+DB5uC0wuAngixhPJRVA8CZ6RaWgBecy3hogkgWR5ojGeAM/YRBrjSRBkaSSMCs/Z4tIFR0Il1mG3IwInl+Nr/Q4FQQ9sGdvJo8b68/Pzd8wePfy0aWM8eA53Ovi1t8gCHjy3yNB+N8NbwFU8c7goA6hn/hQexrKASFVdAqT9FOpihOu6dfGEPO37niqz/waBntbljs+VIUFWTHQ/JfLX7/2YfPVL/yIzjWnJFgvNam+ETZuEESLOs0owqsATfml0fOmD58ZUa8w84iRbU7G0iyVNCnnhy35Epo+0JM8LCSerxB0os7mxPv1E5OE75+WWj94q37z7PpkwM6ueQwAA18VJW8NmSdSV5v5Yvve53yMXH9ndr4qMQ7ORBRZ0z4g8+JUz8rG/+pgsnlySZDFVFy7cqFkBOPaP7bKAusThOq+y2q9+4hFJGp1echFukBjjCcUTWe1QPIs4l26eSCtqiv4Q4d4stIl6butM3rggVtM9jxjbWY/d1GQn3NRU22N4B5VPLs+/FjwX7rr6qiPXGQ+e23Ua+f2eowX8VfscDeYX3z4LEDwn0xkBePqs9uHnIqjcfWEYSVbkCopdSaRTduTQoy+XZ/3g9WIeUYGUZcV+EvYZkc//3ZfkHz/2GZG0lFY0KSYp9PM4jGzyhNiMdrCfJU2bzb5Z4BkHLWm3F6Vo5Opef8TBi+XpP/A0mZxr9Co/Kfxht/j7gMin/v42+czHP6tdZ0wRrfvmxYVQXPCTMpFOvCRHHn2FPPb/uFb2X3OJLeXEpKsKdO/9/Am5/ZO3y91f+bpMBC0JTCgBgHaAq3X4GfVbOFcLsJwSFE+AJ8opuYqn3owlSS/GE+o9WmYiuQiKJ85plk3SChGRPfepjrPuJt3qDNuAGsq6nPiMwArYxMOFTfeYuF28h+cLC4t3zR04ct30tFc8z3Xu/fLbYwEPnttjd7/XDVigDp7Is/ZZ7RswpLMKcspLqINhJCgD1Gg2NeatXbQljwvJTSLPfM4z5eJLdkujFUto0H86kVMPPyx//id/KWGnJQ3TkmQpkVbY1GSvMAgkTzMJApvVrrypqieehBrjCRKEemo/37jiWaSlNCZiaWdtCVuBKp+IUX3stz1GrnnsNXph1sLeWSBfufOr8sXP3SHtM23NdG+GE6h3tGpNUQCBG2cH1ye2iUSRtLD9upfSBWle1JA9e3fLgSv2y8HL52RmZrf861fulrs+/8+yeLIt3dOJzLR2SZHmtjRqVauRsDHcLPq1N2oBxniinNK3PuVb1dWOGM9O2lEonJ7YpYqnJgcFYS/GE4pnUqBUViRlYVVxgCSLvRMy2W2IyWkETK0FGsd6buGcYhcjQinPOxwXQLReaslNcluYX/jU0aOHvtcY8+BG7eDX8xbYSgt48NxKa/t9DWUBgOc7X3nzsWZnUjOXAZ7e1T6USfs9c6HaVHCoXmKolKiRGZSSFB2Jm6FM75pSWFyYn5ck6WjXliBDAk2EEFCdi17MaJU04YKnJdCqunuvDNbGwVMVH4VaKKsWYosgkyKAGn42zDKpSeNMAb8ogaR/N/4zqElUppAUvbsjlNlJqtJRNoEqyhsSIaazUla5PNR6VbWG2PdwM+/XpmLI5CLGeCJkA5nsNqGo0XO1S15oVjvKKSEOOmrFUqYoamsVT7cHO3urYx+s4wl4dVVNQCdAFTU/8cBnKBbPnu1YD4DKm6d61yNuN0mSWx75iMuQ1X7Cz6q3wChYYOO/uKNwdH6MO8oCLngaJK0g5nBjYtmOssswB2N7DCkC6f9RqVP5sHKPa1Y6uvWE9gJqykLVn7LIJDBwU+M9o4kXBEH7jNm6fcXTthPiT07VAWmDamfvmCvoXGaDASeFjgbvV/F4XH61xKK17AqIRJYzwBclo6C0ZlGiISBqUdglB5Rbd77bDQnLwLbD7H+t8fnP17YAk4tS6WgdT8Z4so5nmZllLTMBnkgu6kpHggZS6BAlHfaKxfdKHBXwItj36yomAZLLQvnU5KWqF7v7mgq7mxGvJZSQyFap+UmS/OVFew7+hz17zMNrH7Ffwltg+y3gwXP758CPYJ0WQB3Pd736xmPxUssrnuu02foXC/pxmMqNBEMbR4bahYw9w0UwhIteVc2qo1GvE2Z1JzCoe98ydW9zwJOQR9Aj3PEvj19bXwI8AapVhj0+Gwb8giLqlWLKg1zhE38ttEONh+oJdXU5dCrge/Bc/6l5HpfUOOSqcxHLKUHxTIvU1tGMJhQ8FSDFaAF5JBcBPCUyqniGgS0G79Z51fMxsNnwfK5fq0oZrVdL4LpMOuJ3jUlJ3I7rwmdXrbLI337ZZQdfYYxZOI+m8pv2Ftg0C3jw3DRT+g2dbwuwcxHAswwBEKV3VW6S0QtkqjsPq2BWSROBrXPZB0+AlH2tUKq/IlQ2VwDP8+RSrrusAXo9V7pzPGzb2YPP6rNhXN1UPAGY6M5kYRLF8teW4b2rfZNO3CE3Q/Aso0xjPFHHc9HMazMFKPuTzWkbdlKVU0JWO5OLEDWSLHWlEVtXeT0DneBJ1RPfFbc8ktvBiN8tQiqz1lmOye1qxPJKVEilNG84eHD/LxljUFXXP7wFLngLePC84KfID5AWOHV3+9D7XvO+Y432hCqeuHiv4xrvDbiqBZYrj8w+p+scMqjCXNUnGpuy2eqlut0NClc69Tit2tcvit0Hu81RONeazNUUT3eca21nfZ9byLWHe3bPdaqs22mP9R3H+C5FVzvLKSG5COWU6GpHtSvEe+JhilJDK0xQajkl9GpHclqzMaGfA1R1OdyMOYXh3XhPFzwRv4n4TrdEEtcFVOLhLu/2cKe7PYqissiLnz9wYN8bjPG/huN7Jo/WkXvwHK35GuvRnrr71KH3veZDCp5e8dysU8EBQsZLqpvYbj80sRRZrq53Xgzz0rqtozAUNHEhcqGovwtZimODYjpdN/x5UkI3yzprbcceL2JcLYSGRRUrW7n2+33q7ZasGhsui/fcaFb/WmPzn69tAbeAPGI8AZ4op6QKOUoiFaGWVrLhJUYLyCPemXU8AZ4xanlC86/iLt2uQ65rnMuwSgKLzbtxoHSfM6YTcErgdI+G+4jjGPeAL5ud3fv7ax+tX8Jb4MKwgAfPC2Me/CjWYQEonh943QeORYtN7VzkC8ivw2hrLOImvNj4R7bGZK/qRhWnZlVPcGJetcIMkVyUIdwhsPXke+5mRSwHtAhdVYJP1T7Tvjt8Vjm2Qvc2Yyf1Il8JQLZ8E6GvPy53vY1YEvtCFjseYdHQeNGgsBnzdO3b2M9+5j4SjbAcKgHY/a/PNb+R8fl11mcBxngiq50tMxHjSVc7wVNvxrpGQsR2Ngrt1Q7wRHKRnl9Vsg+LwDM+ExDpwmg9uQgAimX5F7CJ19wm68dS5SSUVu9ncRT/1L59l7xlfUfrl/IW2H4LePDc/jnwI1inBaB4vv+1H9bkIiie4AnvXFqn8VZY7GzwtJCkKKmlhvoXVitOVlCl1FRKjA5EKCeDG4Fe0gwgr5+93s94Z+yjzeg+n+BZL6fkJvoQQjcXPJHdH2oGOwVd26f+7GQjD57DnbObufYgVztaZlLxjIOmJGiRiVCTopSyIxI3Qm2ZiQLyDSQWVXU8AZSAQsZjEiaRpc5C8QRKLEOAhDudyyKmE+DpwqrWoTVGt8vsd3ofpCzTIAh+at++S9+6mXbx2/IWOJ8W8OB5Pq3rt72pFmCM50QyLUmRaK/2YZJDNnVwO2Vjg7LR3WMDUFYuee1BVAFmP6rTForvxYiuZJc+nW265erufu7gfJwrZ8dvMuZzuQpbH8My4N90C/gNnosFoHgixhOK56O+66gWkIfKqXCXB9JO2lrsvRFGvRjPTtnWGrfNsCFpklt1dHKyB51ULalWEkgJjgRPLVFWQSW2gX0SVNEFCdvEA88RD8oY0Ha7XdX/DBIJzEvn9l/6tnM5Zr+st8B2WsCD53Za3+/7nCxw6nj70Pte9b5jHjzPyWx+YW8Bb4EVLMCs9kHgqQXhTUO7GAEQcTOFGE8kFwE8M8l7vdq1s1GlbFK9xPpa87Yse0XhMQxCqLZdrWI48b5bm5PlmRjfyU5HLLfUL0YfdExgXrp/7yPf4SfZW2BULODBc1Rmyo9ToHje/Fs3H0Ov9rRMVfH0rnZ/YngLeAts1AIAuTIyyxRP1PGk4onkIsR7AirLLFfwjOJAEtNV8ETLzCi0PdfxgNu82bTJRurGr8CT8Z6s40nFk1nrtf34TwAAIABJREFUrBrBZCS8dmNBWceTJZj6oBp2xMhL5mb33rBRG/j1vAW22gIePLfa4n5/G7aAB88Nm86v6C3gLTDAAq7iiQLydVd7nmjrBFUsizSTIA2l2Yq1S1VaZtq5CB28WIcTYKjLVhnubqF4QijrewJGB4Em64Hyc2a/A0bRYhPvUzXN83JJAvOSKw7O3ugn2FtgVCzgwXNUZsqPUxXPm37zpp7iidyXsNfz2xvIW8BbwFvg3C2AGE+0zGSMJwrI9zPZI30OxTNPUs1qbzQj7dUO8ITiieQ6wCFd7SyJRDd5vRtRHTzdjmB0seMvyy7RzU4XPreHI82yrBuY4CVzc/u9q/3cp96vsU0W8OC5TYb3uz13CwA83/M/3nNsOt8tmWTe1X7uJvRreAt4CzgWoOI5CDwBfo2wpVntqj6inm3XnOVqZ1Y7XOxUK5ko5HYgctVNtzA8s+BdUKVrHeopVE6tI1plt+M1lzXGlEUpL5ub3fu//MR6C4yKBTx4jspM+XGq4knwzE3uyyn5c8JbwFtgKAvUk4uufuKRZVntSC5CVru6t1GxM4u0jidiPNG5KCiM9mpnEXiWRqKrXWNIy1LX53O3dSbd6VqsvtYdjElJjB8FoBJEcdCMAxVT/tyB/fv/p+9cNNSp4FfeQgt48NxCY/tdDWeB9vHy0DtfeYNmtUPxRCkb72ofzqZ+bW+BcbfASuWUoDCinNJSd0nBMQ5CQa92dC7qSkfLKbFlJqAQ/6BGouwRwRB/GaNJZZM1Ot0YTyxH+OR8EFSZZISSStPT0z1VFctrMlMjftX+/ftebYyx3Qz8w1vgAreAB88LfIL88PoWaB9vH3rnK28+1upOCRXP81Gb0dvcW8BbYDws4BaQR4wnW2YioUjjLMtIk4uY1Q7FE6U0UE5JIiNhGUiWFqo+wtXOTHYqoG4dT7rP3RhQWNmt+Um3OrYFpdON78Sy3AbVUcBomnTfftVVV77CGLMwHrPmj3LULeDBc9RncIzG78FzjCbbH6q3wBZYQJN5glKKMNXkIoAnyimhhBIgb7I5rc81IajKakcdT7jaAZ5wwCPGcyVXOWHRbYFJ8GSLTdbkdF3wzFqnCQiaGBNd71RMu53uTUeOXPFiY8yZLTCZ34W3wNAW8OA5tAn9BrbKAh48t8rSfj/eAuNjAbja8yARlFNCr3bW8dRM9aDZy3BHchFjPJHVDvBEjCd6tQMImVjEdpZUPVmz01U84SIHTBIe63U8mZTEIvSYDS4L8MTyWrapzKTT7Xzk0GVXvMAY8/D4zJo/0lG2gAfPUZ69MRu7B88xm3B/uN4C59kCqj6aQsHzMU96zDJXO3bNOp5wtaNXe5THvRjPMhR1tSPLkaCIdVgGic8JpOy1DpgklLpJSFie8Z9uiSXGerK3O9VVhdI8kXa7/dEjhw4/3xhz8jyby2/eW2BTLODBc1PM6DeyFRbw4LkVVvb78BYYHwsMivHsREtSGJuNHkrcUzwlL3q92tvFUq9Xe56VajBNRnJaX0KhhLKJ7Wgd0DzvAScz1vE512FXI77GXzfT3S1K32upGYosLS3dMbtv/9Omp6ePj8/M+SMdZQt48Bzl2RuzsXvwHLMJ94frLbAFFlgtxrMVT2qMJwAQrnYoniinhKx2KJ6I8URyER6agFRlmmN5vEZyEN3iWrqp6mhE9zuTj1jjsw6bcKsDYJm05Kqi2HZroiGLi4t37j+87/pp48FzC04Xv4tNsIAHz00wot/E1ljAg+fW2NnvxVtgXCwAoKuD51KwoCon4LAZTWgBeY3bzAstp4Re7QRPk4smF+HBskd0rbsKqJssRIhkjKebXMTC8+xS5H5GOGUMKfaDsSwuLt6xf+++66enp+8fl3nzxznaFvDgOdrzN1ajb9/XvuKGV9/0lVYyGeHHXlUIY9UGPnBCw/FV/7t9hgrgfMNlqfq70kjqy/nXy+3m7eHt4X6P7PlgEGOJ3wDEWepvwXq/b/iRKEVKI5nJJA27cu2TrpWrn3BUunFbSyhZ17ftRhRFAE+RqDAKmOpqN4VEJtJe7Xi4dTcJh/iNgjKJB1VOut3xGR7s74512JUIiUPMXu/9tuH3zlFN9fdPcoDnlw/sn32Kd7Vv36+83/O5WcCD57nZyy+9jRYov1ke/N1X/v7tF5lH7pFOKKEJJQ9SKYO8D572WiKmBJT2ri16YcID77kPXDyGeaCG9PKH3Q+uafaxwoWw2m/Z6zU/nmBV4PgrcPB/LUCdix0CPa8HAdfOf9+UFXhWxw/wLI09bp5XgDlVIIvcdvoxtlC7fjMDkTBuyHznlER7GvL46/+dHLx2TpaCJZHYqOqZdQqJo0giE0ocRtJtd6TRakhaLMlipy2TzUkFT0Aie6jTfY59MM4Tf9mjnclFCwsLMjk5qbGhWJ9A2m63ezVBCaxUR1Whzasao0EgYRDImTPzn96//9Jnz8zMPDjMb5lf11tgqyzgwXOrLO33M7QFynvKi974mj+4Ybdc9OzidCDNuCkoawLw7INefTf9U5wsaD1jFhAtOA5z4V4JPO32z35UoEvgVaWmD8iVCEMxZsf/VesbOw/+77nZwT23xu28GfR9501l5fl2zFNou0swaS/7vMgFFIr4zYk9E7JoFuX65zxVLjq4R9phR1VQ3JQGBRRNI2ViwTVNE2lONKQMq0QhCXstM+li13O6KBQ0GeOJgvB44DXepyudbS/dIvKEUCqoWK8eA8rjwNiSpPuhw4cPvdAYc2roH1m/AW+BLbCAB88tMLLfxeZYoCzL4J2//t6f7T6Yvuai6JLg9MNnxLTCysVmsXLZBQkXjjLQC4j+eNeGATddUIbVOhtViAaD54rAWX1gFHbtqMYdPMf5+IcBxnEHT5w3eVDUvte84bOXNuveDiTQ4Juq84/+LuBGp5CkTCWYCKX5iKZc/389RRoXNyQJO7pduNvDMlZVEeAZmkDyMpcwDhRYEV+ZdTOJo6aCIcGTLnS3UHyv2Hu3q+AJdZNASXc8lE+WUyKkYjnGjrqF43lsjTiWTqfz6sXFg6+65hrfMnNzrjR+K+fbAh48z7eF/fY31QJ3feSe6//2g3/7xxPZ1ME8LSUI4x5YYkeVQ723TwVRgmf1l/om3JphAfBcSZ1c39CXx5muoXT2wLOnv65vJzt4KQ+eG1O8d/Apsa5DI3jyFk6/eWWFmAytKUtVKhH1XUDldMoeZSYX0yrlgdP3y+Of/Di5+nFXS+uihu3DHiIDPdPfhmbUlDzNJQpwk4sbxULaSVviZkPyjnWRM/ayXsOTrv56nU9CMOt58oC5PiAWKijbcHL7HD/d+TiyPM9/em5u9o3GrOz3WZdB/ULeAltkAQ+eW2Rov5vNscA/3PQPE5/7xJ1/FKXx8yejaZO0+7gJlzljLit9w76ufo9d5bN34qvqubGvQbGO3/n+pmsu9t6wsP/hwHdzLLt9Wxkm0GGjOvVOWG/7ZuzC2LPW2jSI50SIAmOroW72g7mhVirk5fh1yHvF3XNB28tUislCgmkjT7z+CQqdu/ZOy1IyL2VQVnU8EdvZkKSTqBqpewtK6WZdaU60JMhtspFboxP7cwvA4zn+0cXullBiL3bGd2p/+GrMdK+7BeTddRWoy7IIw/CnZmf3/cGFMSt+FN4Ca1tgY1fctbfrl/AWOG8W+NJH/+Wqj3zwb/7edKN9E2a3hEWjlzFOFuw53MrlwAfFov4YBnxWO8jlWbbWtecCD9Y1BTJi/dfQx3huLMb1vH3JRmTD9vvMJCN0ErLfJVPYX4DQGMkK+xtgwkDjOrOy0BjMJEykM9GWxz35cTJ7+T4p4kwu3rdLOonNWA9NKVmSS6PRkiIrJQpjSfNUgijUEktwuQu8LujjXthtsie7mwBEV7neIjuQimVZ1xPPAaHMfMeyhFFCLLfNRCZsqxHHXRF5yf79e98xIlPmh+kt4K94/hwYTQv8zR//3Yvv+vxXXtNMdu+Ochu4rz/spcW4HoD2OPPs7HVVTKoYsZXKMK31/mrWs4oot4CM+mJZmSebaR+OveKpUNCrRsCqBP7vekIQRvPbu5mjrqCy+p6HFXC6t3KqRgZGgRGqZ4oMd8RtTpWy6+huedTjr5KwIRK2jMzsmdTfBFMimaiUtJtJI2qKMTb+stPtStSw3YzyspAysQXe3d7qPTd4VS6JnzPhCOWT8Bwlk2zCUqrbAFBS8cRzfI4HlU/GjtLtrh2RomghCOTF+/bte89mWtVvy1vgfFrASy3n07p+2+fNAmVZhrd/6I7nfeKvb/utRtacs/DCTPVAQeZs+Fw+HOuq68eAbmSwVllZ7iqv1xbl62VZ20iJ0J2fvf5GxjGq66wjWmFUD21Lxr3BKJEtGdvW7aSveOJ8ckucBaFIAqALSzFQKgGMRSGtyQlpPqIhj3/Wt8np/GFpTcTSaIUST0TSaEQiBcojZRIi+dAgPhQAaGRhcVEmp6ckiK17XYvKV4lCVC97GeeVutkr6WSMwiTWI1jib6fT0ffpimc9Txadr7fidJONGnE8L1K8aP/+/Tdtnb39nrwFhrOAB8/h7OfX3mYL3PmnX33+bZ+8/f998IEHH92MWjLRnJQyKwW18KYnZ2zQf9qPseKPON7HBQUxYK7rSosy9+r8BcueYzn2TsbzVjyh+wpD24eZ62o2bFWbDxejiamWqhpJlkqr0VSlJEtSTU4oy34N0m025cDdu2VcNjI+qjQrrbvdP0BrHd9a4x92/Y3Y1F3n7MCRc9visOPfzvVxI6eQp+XIbBBLDzpNaWM/Q5F22pEiKCSII0FCUWtqQg5feVQOX3NITgenpWjlUpSZTEw05aKLdylwZklHE3vybqpAmGVVW8xmQ7LcqqZQKePA1uDEOACPcJdrK8tWSycCv0NTU1P6+4Di8NgmfxtYz5N/61nx2P6ZM2d6tT6xPn5PsA1mzAfGLIiYFx844BXPczvz/dLbaYHt/t3fzmP3+94BFijL0ix8YeHRn/v0F6+740tf+uml+cUjM5MzAdxj8/OL0gjR5zhAkWejQftFKRlcbVBEbXC+LSxdBfQzSYDv8aLAcim4GOA9gGQcxGIyFHG2bjI+4GJnnT787aYdVUtw4cOjf7FGqgLAc7gi9qM8jf4HaLjZGxY8h9v79q4N4Cy0YLx99GvyWi8GvoewTxkVCpxhK5YDlx+QI1cdkandu2QpX5K8kUoRFgqerVZD9uzeJXmeStrpSqMZSSOK9TcjzyvAreI5ESeqCqWxN6743aBqyVhP/iZQ8cQYCZ3ajrPZVJCksklXvOuqd9VO1+VO1XRyYqJTFOVLZmf33rC9s+H37i2wfgv43/3128ovOQIWuPcz9z7yY7fe+oKiWz52anrXZJ7kcWnK2JigEUgQGkRZGv1/TzXAxcN9oF6fCUN9CxchrQIYhvZ5EEqaZXLqxEnpdhKZiCajKIrzNMvUAxYEAWRUaTZbOS4OM7t2yYMn7g+CILpycnLyim6W6ncO7jkoI5qgcFaF0REwtB+it8AFYIFCbx5ttycLnqU2IsDNHEJccJO5d+5S2Tu7T5pTTVsmyRTqdWinXQma9hKI1pPTE5MKnvBC5ImNu0Q+EgESyUlVRSaN+bTxmPZ3xC0MT5c7M9nrMZrcHqCSWe064qKoSj/1n1PZ5G8Gb2jpsSnyvChL+b8PHpx9sy+ndAGckH4I67KAB891mckv5C0w2AJf+YuvNI8+82jy2c9+Nnrc4x6Xy9/ZgE/zFNOTQMubyvDuw/e9wkTRb2RZPoXMWoCndfHnY11A3icV+SSq1ZKooDau9Ll+z7QdUdVmtEJIflMBnmErksXOomRFJnEzQi6feiBUsYwsPCpAipGZySnZvWvGxnSmmYShkbxI7Q1iVdw9z6yHJIoaCopZlqgrnAlD+IwhOYRGtstkSA+LwmMdKp/MjCeA4i8Tjgik9L5w+9gOQoWSJPmFubnZ1xtjLuy4HX8R8RaoLODB058K3gJbYIE77/zKy88sLv6mMeGU7U5ibLyooCi1z+r2AOoB9Fy/B/jasnyS+xXut8YtLQSGImFkVOkEgNKlje+hxmXnhfZiB0BOTUwKesDbeMtS1+umaQ88i9Sqkqjtie0sthd6MZzMSKfSyZAc/CWEMpudKikB063ViffceE/GGbstNFloHi0zl5Y6rzMm/+VDhw51tuCnzO/CW2BoC3jwHNqEfgPeAmtb4O4H7/+V4/cd/9UoaoS4aKSpLcOSpeMb37m21fwS3gIrW8BmsPfDZNyqEVwrjG2tzCJLrbIZwjVuOxnledarwdmMGjI9OSWthgVKhbxApNlE4mDaSypEMqFVSKtQnBLKqI35pipKsCWI4rVVZ+3l1nW14zWWg6qKv0hKYgtNTWCskpQYe47fDMSGcp0CpaKK/I+uuOLynzGaaOQf3gIXvgU8eF74c+RHuAMs8M37TvzqN+775q8EQRSaEPGd1pUX+lK6O2B2/SFsmwWqzkUoS8bsdrfElPZXR9egUrTlpYJenmoZszAsJSkt8E22JmV6eloaYUPjPRUVkZyEqhMKqlbpRPZ8meWCtxU0q7JK2Adc34BMPGdxeGzGTS7C+24dT/fzQQXo2Y7TrbxB9RRZ7rtmZqTTab/l8ssv+1ljzOK2zYPfsbfAOVjAg+c5GMsv6i2wUQt8494HX3n8/gf/G9qnID4swcVLlRPbeeVCfaxVTmitca9Vbmet9c/352sd31rjH3b98318a21/2PGf7/XXGr9NJKpK4uqzSgElfRa2s5BBLGduE5DUxQ7lsUikDBGKXcjk5LRMT81IVGWtl1AnTSmdzpIWjEdWEWM7AZ4QMZHxnpfWda/u9zjWmpxQL+G2x3tLS0sDyynRHb+wYF31TBpihjzGiCx5wCXGz+x21x6qpJYYY/t/X3rpkefu3m1OrmUv/7m3wIVgAQ+eF8Is+DHseAt87d4HXv3A/Q/9UimBQUYsehhpZup4t2nf8fPuD3B7LcCkHb3Jq0qoEZaNFJJmSzLVair8NZsTOth+LKVtgdnNUvVMQKmcmJjolUCiyxzvAxJ7tYHDUIGRqifLJbEGMJZjWSULs7YcG4BVa4NWBendQvN017MWKMu9oQzU4tLibVcePvoMY8wD22ttv3dvgfVZwIPn+uzkl/IWGMoC37j3od+4/4H7f6kUW8uzQFIRwDPyX8GhDOtXHmsLrNX5ql6UXdVRZrKX6DpUykQjVqBkL3Q3iYdKpI3L7re25LIEVbrQAYSAULfZBN5jD3b8JWAyQYiZ8KzpSTB2Ox7RfY/tukCLMlILCwtfmj1y9KnTxhwf65PBH/zIWMBf9UZmqvxAR9kC99770Kvvs+BZVRm08WaFdi66cF3to2xzP3ZvAaqMhDlCJ16HppSZ6QlpRqHCnGa4o9NZ5Trna7xH2GNSD1RJFzZZkxMW145Hue2WxrhPt/c6VEsthVQpowRQZr+zzBLLMFH5RKIRlc9eMlNkZH5h4Z65/bNPmJqautfPuLfAKFjAg+cozJIf48hb4Gv3Hn/VA/c/9N9KExiky2oB6ippwYKnbfnn/3o7+PNg878HKF+GRCHtIBaggUNTmnEo01MtvRV0oZPZ6HgPgEfXOLubASIBieqGr2Iw6dKnC5ywCAjF8nTHu2olIJI1QgnITByiwkk3PcGVGfNYT930cSCLi4tfPXDk6JOmjLlv5H8o/QGMhQU8eI7FNPuD3G4L/OvX7/v1Ew+d+OWyNAFSivDQC5nBRXbzL7QeYD3A+vMKZZEAlUjgCxQ8gyCSKAqk1ZqUOA6lEUcSlEVP6WScZi+GsspSx/uMvaR7Hd9fN4aUdUF7nY6qVrx007vbBoCy2xHhEnDKbTL2k8omtkkohSuf4QBI1F9cXLxj9sjRp3lX+3b/yvv9r9cCHjzXaym/nLfAEBa455v3/9rJkyd+BXqLJqOiV0oAt16/x/sQm/eregt4C6xgAcIc62wygSeOQjFVD0w3rpPqIzZnmz3YQvR8TgBk3U3AIf4RTPmcrnRkuNsuR1kv9hPw6LrjsS1mulN9xf6plNL9j9dwuTNkAKWfAJ4Hjl7pwdN/A0bGAh48R2aq/EBH2QL3PvDQL585s/CrYRBG9iJXdS6CGrNWhsQoH7gfu7fANlqAKiNLElGVpNtccnvjx7JZ9fJQ+K4yThPLQaV0FUfCKOM2sQzd4owHZcH3HiyWZS8LHusxtpNjpGueY3Hd80xwcuNQFxYWPjm7/8j3z8yYB7fR1H7X3gLrtoAHz3Wbyi/oLbBxC9x/8szPt5cWXxVHjaa9AAE8Syl9YtHGjerX9BZYwwKueuhCpZvZ7kJnPQmp3W5rTU4+8JrdhZh1DjAlEDKDna50rAdIpApKiGUmOyAWn7lxo3iOMbnAyp7ujDmlCx77mZ+ff+vVVx1F5yJfQN5/I0bCAh48R2Ka/CBH3QL/8rWvvSyO4t8KJZyyiQNxpbLY7ii8YNEtyAsVExzYwYQlV7ANPNySK1iWSkj9fZZzoSLDcjC86DLOjBm2g1yHzPjlstgWL9Qs84L3uK/exb0qys3x0q2JY+JxrLR/uiCp+rC7C9sacrzu/vncHW8vJi5ArJ9te4h9Mkt4teOHyoWxYl+sz4jXgBDacZB93f27tnD370IPt8E5Z6b1WvsnxGB52otKHI+T+3Qztd3j5/lCRdAFqfXun0XOmRgzaCzYz7kcP8GNCiWTa2gjxkK6bSr53C1hBMDDceBB2MN4UfAd22YGOd3m+IyJQXSLc9zYBjPaeYzcJsaDc8MtmeQqnZxvnrd4zec8R+nqd7/L7FzEc4KflWWZFXnxMwcPzr7Z2GBW//AWuOAt4MHzgp8iP8CdYIGv3nPPC+Mo/p04iPfwYmNjuuzRrQSe+IwQOAik6sWpzxU868uvFzxdkKvD7LmAJ+sdEnzq++eFnZBK1yd7V/Mi7YKfu3+MjYBFu7vgwzqPK+0f4wOAsMQNC4UTzDh3VKxWAu+VwJPgO2j/rCG52v6xXYKnC34ET8L+Svt361zWoQ42X+v4B+3fBf+19r/W8a8Gnm6tTDx320u6N1Y8ZzBnLjQSZl2Vk/PJ85DnGeGbcM+EIYL8IIhngpKruro3Gu6NG2NAeaPA/RNgXWB1x10WxemiKF80N7f/fTvhd9Ifw3hYwIPneMyzP8pttsDdd3/9h8MofKMx5iJe4HnR5cW5rni5yQq84FHxw7K4GBFOBqkkLlTUVShXHcO67KTiKojr2b+byVt/7l5k3QsnobVeB5GZuwQpFyTooqwrnu4+CRvnongSXlY6fle1I1S6qjQVqNXAcy3wXWn+B6mpTEAh+Lj7X0nxdFXGuuJYV87riqcL0oOOn+dI/fjd83WY43eVWhdCXVc1SxfhpgAPQiL2S9c0vye0NefdPWf4/eO5BnUbbnXeWPF8dLfP+eB32h0jVXl+NwcBqDuf/IlyQZgeDnozXNW1guj78jL/8YOzs3+1zT9xfvfeAuu2gAfPdZvKL+gtsHEL3PONbzwvNOHvFUXxCKozrmqykquTF72VLuQueNYvzG4CQl0RrINnXXFbr+u6DpsuqAwCT15Aq4umggGVITert75/Kp6EbV7Uuf+VFM9BLljsm8rSSoor9w+7wKUO1RH7onsdkIM+3Pi7muJYV1nXAj9CreveXm3/GFcdDl3wHqQ+u+rnIMXRhdq1jh/7rx9/HfzPBXzrx78e8MQybmgAv1+0C/4S+giB7rnpAqF748UMcve7AXu6bnRsG+cF54vg62atc5vufvhLwvnhcfPcrLvd8Tne440Cj6010fpGkZX/6cCBvR/d+K+TX9NbYGst4MFza+3t9zamFvj617/+74Mo/H0ReSQuHnFoW2fmVdMiXljcCy/VrI242t14T7rxXdh01bRB4LdWjCcvjHTvUvFyIWQ9iudarnaC90qudhcUBime6wG/1Y5f56pyOeM5Xe2uOstj3owYSzfUgHGtq+2fULXRGNOVwJMgtZ7j5xwNivEk4LsA6YY6rMfVTnd+/caKc0C12l2OaifHVD8XXVc24dGdP7xHlzaes1C8G2OJGw8kHmE5N6sdtgOQux4Nqpj8+SMA83vPGynXHu5n/F2g4t8/vvi4lMWP799/6V+O6U+rP+wRtIAHzxGcND/k0bPAsWPHvi9uxG+J4vhShSGxXVFMYAG0rjjWk4tWUjxXivFcD3hiHCvFeLqqEdUkLl93nbqwuVngWY/ZW8nVzgv4SornRsGT+3fhwQ0XoC1c8B0UY0nwcmNi1wIvV3HkPqmE8Vw5l/2vpjjWwa/uat/I/l3FczOOfzXwhD2Y2OOey1Rq0YMd5wiLs1Mp5E2KOy/8DjJjHPCI5COCP0NSOOf4jJnng0IteMM3SOnkNuquc1eNdm9C6jdYhN1mc+JEkWc/ceDAvj8bvV9FP+JxtYAHz3GdeX/cW2qBY8eOfX8Yx38Yh+GlvECqYhPGOg4CG5UN13U4SPGky80FT8IJYWwQVODCxnhPKkhUfFxX91qKpxsb6CpevNi6yRZ1V6Yb41k/Dvdiy5g6jpeqEJVAN/5ttdAAF7zc+DnabrXjx/IsoYPlFxcXFXQAHAsLCwolruJJW9RvFFygcAHeVeLqMb7YBgEKsYaD9u+6+gcprrRRff8E8rXA81z2P0jxXMnV746L5/+g43dVTvc5YdJEYS8+mdshnLPmJpd11XmeW43K88DvDs8xHDeWJ1y631GME/NPRZKg6p5bVCZxXroPQjS/oww1wb5cGOZvBN6jax/bgbJKAMZ5OTU1faIsCg+eW/pr7nc2rAU8eA5rQb++t8A6LPC1b37zBWFg3lRk+cVujKeYsLc2XYdUvOqdUFzwGgSerspJ9YYXYRcAVgLPjeyf7kjX1c59EWrWC56D9o8Ltas+8oJOW6yleBIqV1IcXTsO2r97LIQlF9gH7X9QctNGwY/75PESnlwiBPMvAAAgAElEQVTbuiozxubONed/0P5d8Ob5Ulc8N7L/QYrnRo/fddETDpedcw174+beqGHMhEICNj5n8hGfY7mk3VHA5DmK9QaFpPD81nWqIvJ08btJSPwyu9DrutndGw1+X+thAO7NAPaL+YRySxDG+PDbYIvPxw8Xefmigwf3fmAdP0N+EW+BC8ICHjwviGnwg9jpFvja177xH8UEv91oxLtxIaFqwucEJCqGBAYqH7zo4nMqeK5CSSUTn7uxji4YuYWuXdc090GoccvOENi4HUIXx8GLJC6QuLATErmNukvRHT8BgcfGcbjKkXte1F2WtIM7trrr0rUbt8v9ELa4XY4HdiDwulDirkd7r3R8qx0TVS9XFa6f/3UYWcv+LqBxuwRA97h5XhFQuV13fYIdldlB9qXqVodwHjeBzz3PXPh054XbqJ+HrvvaXdedL8KzC8x4jn+APyqJBDg3ZMPtSFRPTuK5wZhOQh/PDTepD+PGcUKVZswyY2NZO5TuesZmuoq4G8PLerH1mF3WFOU5yt+PNE3beZb/1OWXz719p/+G+uPbORbw4Llz5tIfyQVsgWP3fP1HApHfbTabe3DxcKGA8OkqIzwUupXpssNrKi24WCK5gRBEdYrr8KKHCyIBEioJ1BO+phsZ62AfbsIGlSRCBhUaAi9dwdgP1puamtILMMbjKkw8XmxvtfETVlywxroAWryH/WAZN8GDBd15Icc4uB26KdczfqzDi75bgofKGe1PqMFxYjy0pauoDho/xlDfLrZBNy1hj/aj8ua6VlezP8dP9ROvMVYCFLfLOeP4MWdUU1ez/2rjp1uaMEs44o0OX7vnJdZhRj7t4oYNELxof97guMfErHNX4XWrJLhx0jxG96aGNnYVY36XCJj8jLZntjrhHucASy7h+DFfTEBzFU2CKv7ypoywyjminQjWnEOe4+7PG99rNptFp9v9r5fNzb7OGGO7SviHt8AFbgEPnhf4BPnh7QwL3HffA/8xSZPfjqJotwt0jDWjwoWLkAsuvFjTJczPqbJQcXMVLBdiCG5UmNyyL7jAMQPXBRRe3Kkyueobt8NZwXpUk9xMXrrzeYEmmFGZIoy643dtwP24YQkuoLvxehwvbUCA4r5XGz+VsUHg5gKu6/50YZTLULXDXxdusB6XcaGyrrJyzrgfwjLXqW/XvTEBhKw0fvdcwjp1GHXt7+6b9l9r/FRv3fG79qdyzJsOnvv111iO4EkQdeHPPe/qtiOgcf55jlGFhw3raje3wZso3rTxe8XYXbxmYhLWYVci7oPfH55jbi932pv7oArqqqK8YeJ8uqo/z30qt666zs/0hiDp/q84jv7z7Ozs0s74tfRHsdMt4MFzp8+wP74LwgKnTp158en5+dcFxsy4Ll5X+XQv4i6YubDpAhzeZxkXuhx5kSVguGojLux4jQsZLlhQarBPvMb7VPxcdYiqFS+e7kWdF7+6KstMXxcg6gDEY2LW8ErKLvbLCzVdo+748bk7Xl6cCRA4RoxjpfETdgiOsEsd3F0QrwOoO36OlcBBcOJ4GbPL17ATYZrA4YI5FbHVxs86mq4NCOWce6q0VPMwPqqUw46fdnbHT1vynBqkyGNOce6yDzq346rTPDcxRzy/XeUfx0Bbcs44f7w54JxwDqnoU4HkawI2xs7z2r2ZYDkvbJ9qo7tNKp+0A2HVXY9eAN6U8Zh5bvImjtt1kwpdFZTHiGPAWNIsfc/hKy5/qTHmzAXxY+cH4S2whgU8ePpTxFtgCyxw6tSZnzh1+vTrjTG7qHLwwum6P+vqDC9CLrhR4cFnNsHAulTxPi98BDBeKHGIBEu6b93XvPC6CiUBajWww/KMKSUEUOEjeBJyCCD18fP4uR+CES+wGC8ebnIIFTKqXCuBG4G2bhde9AcplgQ3Qi3Hz3254we4rTZ+qsru+Gkn3ghwP4NCAtyYRNrDdblz3y5U1lVlVxHmjQuOCesOO34XKgdBXx2kuV+Mg2EfBDyq+q493dhL105choDn3jjQPnjPdaMT7Dif/K5hGaqRXJ43hxw/Ic99nzcGmE8XPF2ApL3pYsdf3mxyfAy3wL4Iwu42+J10w0g4Th1X0r350OWXvciD5xb8kPtdbIoFPHhuihn9RrwFVrfAqVNnXnT69JnXB2Ewwwsj4dB1U+JCRTWwDptYz1U+CED1CzIvpFRuqKS6F3F10VW9q92SQNwmFSOuQ/Wu7vLH8u7Fn65rXty5HR6X6/IkYLrA6YLKoBg9F2KZfEK7YHuuWx3LEqzWGj/BHH9duxDmXTUaz7mfQaBOOKHtXAWVME9QolvaPQcIJNj2uYyfNwBUBQnqdRc/7cR91+1/ruN31fU64DPmsg7D2AeT0Thet4oDxlgPdXBd+O5NgBuO4tqarnHOHW1O+7rvu54Hjgd2o3qPdZi9znMY8dE4LoaYYHv1DHf3JoPKJovRw1ZQ5F0A5rnF7zm/I1T9XZugtBcU48WFxU/v33/42TMz5kH/O+wtMAoW8OA5CrPkxzjyFjh1av6lC4sLrzXGTOPiQmiqXwx54eTFEX9dpaMOo7xwDXIl4z1CAf7iQknIpFqKZdykDlwMXQWVMaEuQBKeXEWSF0RsHxdEvKayi/ETPAmAVIKYiMHX3DfGRXDjdggxjIt1FVVX8eXF2j3mlcZP5Wgl8CTguDcEhAP8dRVV2oXg5rp1CbTYn6sIu3PkwhSVQc7ZRsfPc201+68EnusZP4GNAM4bE84jwWuQCuueHzg+NxSB4OlCMufV/Q7Qnc9jIHzTrgThOtDVAdn9PvK4qaoTRPGXkMnzBsswZIXgyePgDSDPLY6JNnFDEfCcx8dj4XeFN4msHcrx8e/i4uKX5g4cfer0tDk+8j+U/gDGwgIePMdimv1BbrcFTp469dKlxXYPPOnadi9gBBJcUBh3iaxpQqh7waVblmqjq5hRjXPfo6uPyRG8QLuZx4QDV9Wk3XjhphqL8bsXaLoQ3eQLjoNKVT1Ora7ouQDkqpju3LkAQRustJ6raK00fm6D0MeLP4GHfwnZVEC5nhvvVw8V4LwRql3F2r2xGHRu1udwpfG7NwGuG911N7vnD8e4mePneemqzdgn4c51FRMw6WrHZ/WbEZ6H2B7AGzcnhFT33CTYuX3ReVNCyGM8JVVfVx11wY7LY5+u2919TQCFCo19cl+0KcCQN0N0n3NsrjufNwG0j/sbwJhQjoE2xb4Zr4zGBVA68duA5c6cOXPnlUcPX2+MB8/t/p33+1+fBTx4rs9OfilvgaEsAFf7wuLi68uyVFc7Qc0FHVxE3OSJunqDixAuerh4U2XBRWh6elovQIQkKjVclqom49R4UcPyjPNzl8Fzbo9gSkWIiikurPjHwtZ4zg4rblwiAYTrzc/Py8zMTC9kgO5CGpcXbhwfL8h1V6zrdsR6VFQZMwn7oI822yXCHgQBPHcTprAM4WLQdmkXqpguRBOeMFbYkfNH9ZlqNLvfAHTwwNgwBlcFBGDRltgHl+E5QLsAbhjOAHtj7jFuzlc97IDzRsiy3W6m9JgJ/lRXCUKYEyyDz93EJncsVMZ5TG42N8bAskL4nHbFttxal0wuIvTRBQ0bEbKwH84r3sf4CaG8GaAiyDmiC991ZXN8rhLK8xTrMSyF4R0cM48F+yRE0k5YhiqoC6hUp/EX68OejKemzaleMmPdhWiMAZ/jM95YujDO7wpd/vPzC3cfnDvynVNT5t6hfqT8yt4CW2QBD55bZGi/m/G2wEMPP/zCxfnF3ynLcg9VKqoYuBjS1ea6uamk4ALkuiIJAHyfaqarcPIiiX25KhFVwHpMIWfHVdqoZPECR7WP2+AF31V+MBZeeLkcjpPufEAYjhFjIiQR2viaF3Y3cYrb5cWe9qCSReh2lTyMi65gwiC27WaTcz38daHNHYt75tbtw+NwFTVuk7DHkAF3DO780B60N2Gd8+qqfa5qTNDi2Ak6XIbjpksXrwl3BDDOLUES++J5ReihTQloVLpxDAQndz7d4+Ex8yaC8+jCIu3jQib2RWAngPEmgevye1AHT7esF79r/I7xpoygSNDkTZgbf0nYI4TyO0Pg5TY4z3WFnecQb/RcAOf8E1wHnUe8yXHPP86X+31dmF+4Z+6qI0+YMh48x/sqMzpH78FzdObKj3SELXDixKnnLi4tvllEHsELuQtFdL/xwkz1jDBCl6SrbFHNwrr17F9eNLk+VUEqL3yN/VG1wjZc9yihtR6fR7WMbkuCEdelYkpll7UOCUjuvvmem9lLuAN4UNnltushBbQbxuiWluL7UMhYqBz7oupGtzTGwgs8QcZVPvEZl6GdCAkMjaCiSjXVdZ26KiyhmwpjPeaW4RUYJ12uBCLCKGEH26Brl8DJGwMeGyHLTXipHw/Xpe1c+2K8cOnWQwjcGxE3AYzxwAQu7IuucsI4FWQX+Hnu4j1XWcb2du3apfOKf1BhuW2e+zxvCNKEPN7I8SeDiiIhkec2557nNKGa5w8hk+Dq2ppzw31xHy6AYj2qpZxfLIf5ZXUJnCNUiBm6gW1wTO6NqXtzxPk9c+bM7Qdmjzx9etrcP8I/kX7oY2QBD55jNNn+ULfPAidPnvnepfbiW4wxe+sXM/diQmjgSAk7WAafuRD0/7d3Lz2WXWcZx8+lqtvt+Na+xG67YxvwB8ggiRTIACUIMcgg38ACJkiRHCMhRTBAQiAmKDAlEkJglCvKnBEDJAQMkJiQASBFSgdf4o7dF7eru06ds8lTVb/ux1tlYiXtSlf3rsmps/faa73rXWuf9V/Pu/baPcC3OtKDrsEJDPYDHDnnqV3ldp5UsIYE58EHdcxg2+oPxRGQCM23OggcDPgGXCoq9Qys5nuv02NH0oOchueGeyHqfB5VN5DecE+9BUVHwQXw5oMxpABJapr2TwgWWLXqC2CBKqCMLWzPMYpot5m8Gw69nQoENVRRoz093yDZENf9rv1PUYxd/A8KTSDUzeSgvwvFN9Szz6Qk6ZNn/tgrb9Da/pAnv/eWUR5+04+Abqua3YeBsntPW7Mn0KgPU4TZkk99X1vxadKmP5gUWTfaaqqQe4M/n/h9SD5Xrl7553NP/tIXHnpofvHn9ws3lTx54IN7YALPD+6rKeXkgZ/aAxcvXvrczvWdV4Zh87TBowEJWDa0UMaElw2kHcoGRABNniAoA5oHlKhC1J5WQ4/KG9A0lAKE8WCo3A67U88AT9Yter0gwKQadajRYJ/yDdxgwoCfgbzXHFKQAgKpc/6so6MegwS+tu40aceqXr63HeCPv/kw6eQDhtoXgTGA34owEMm18YuN4FPPAId1imzTdtYlttqd+vAnOHVdvlOcW3EFSck3bSJk3v4GTrGlAU2bNeDJL2ltM0SlB23WLVKEW30HsA3FfNzqrw3vtQNVMNf1khMTmYZdSmP8rf/0RK+Vyp5YmZzpxyYf0miL9gc41yd8yiP2a+ecM9nRR8E2VT3p+55R9maz2dt59/rfvfDC81+az+dXf+ofqOnCyQPH6IEJPI/R2VNR964H/veNN35lfWP19dl8/iy1zWDZAwoo5SkDqzQd1jbYg41AA0XFdQY3g31DpMHRYO97bzAPCLvl2l7QJV+KnLCiQRsYguleSgAEDbIgK3kKPTo3hmBwxC8G7OSRMLFyhNg7JNsqI9CMfeCZmgb0U6cxoIPznjDwVS9h6AdkwB2YoMrynbWt6mSCMC4r6YV+gbM0yTPleJe89Zjsj99SP8CX9NTwzoO/ehIB+oAeoM51OWa7oF7HCOIbzrVpym41FnTHD3l4KnZ2+6V8yicA01Z8SXXsdcLWrLpfUqb+Zd1v9yft3ko4RZLf+LCXKEjj/u5lLn1/5rz7HcwmHw+asSXH2ND33uG9dPHG9RsvPf/8x741n88PMpz+Jg/c4R6YwPMOb6DJvLvDAz/4wRufHmbrby4Wi2czeBioKGnUlvEgE3UmANWKpsEuShVgAlHy7pAeeByHiTsk2Opmr3vsUD9Q0iK5phWo5AdEUybIAAOtvql3q4AUsAZPkMFWYVCDtnzY3xDeayCpUgAIDHQ7dBuoq2NHtRPooQYCeApWjrMB1Cdf4MkW1wMdbdoPRym/AYQ/4xOqZyue1GEA1MDGf/0p/NwQR4GVR/u/y0xdQLBJDkV6rPYBMypf1z++8eS7p949XGS9aa7vh4Jim+8NsCm/1wlbw0x17zXN3Vd6rSrb9Af9ms+Fw/m2oZMarj/YTaGXt/RkQl/suvGRvja+B5fL5X9t1qsXz58//693xy/lVIt7wQMTeN4LrTzV8efuge+/9tonl8P824vF4nmDtAGpVRQDS4fxhFfBV4eB87/1YSAx6TwRTDXMuQ5zpxxr09iRYykLxFKIWs0TPgVCgRtPEUvPDvkFnjOoRsnK9k+2SgJR+bTGLmUZzA8Vnf3vAFXdU4bN512vHrFHmerdymdUwORJUWsASh4dzncOlIEcbZF1mrZT0mb8JfTaat94vaM6dng6+aX9WgWTpz0tKZzU87HdfBsbAlLs1VeSn+2eGuKT3mSnlU8TmqTVVvzv4Zi0d873d/XLZ9reNlIpJ7akHTw0lGuTxlZOyQ9IumconZRvZea8fpiyki8wBv18IXTfkxT3g8mcdgL3QvP6IjXaQ0/USfeHiU3SmTSmDA+7WT5jKzTbilGNUx+Tx67raKI0rFarf7jv9PaL586dm95a9HP/lZ8M+KAemMDzg3pqSjd54GfwwIULr31qa3vr23t7q+e8ozqDTAbagBA1pNeLHaW2GdgMuJ2GQtTr2/qhCXt+tnrWyh64yWAJKgAfqFRuD8ytwgHD1G2s7DRwWwIgNJ58gUI+k0+Hip1nr8E4dWErpdT1ICk+o8TyR0OdujXggy55dcg/NoAbIEAJa5VP6Fy9hH3jF+2sPmA39cl11kMCPnn0JIDCCGxAMpCMLdIAGZMCaUGYyQ910oTFvqH87XqqOFXPraEvtC3jyYo6tX86DK5P85H0SZP/xzaD0ZTZaqV2Mjmzr6sn+CnU7FBOPv0PwpNXL0dwj1FfnaNS65cpw0NXyuEj9xJg1n8tLUj7Jb/e61M5Kffq1at7Z+6//08+9sy5P/oZfpqmSycPHLsHJvA8dpdPBd6LHnjjjR/98mwx+8Z6b+9ZoWfQ0VDRYciko0oZCA1W0gl1Aynr6ihcHSr0oFGrZ50fxbBDfqANkFiPZ19OqilQoz5SqtS1B+SU6Wn4Hoz5Qf8AquA3eTfksj3HGrbYar1h+w7YtUracAdG5CnEHFtAKCWq4ZUCCfRim8mEPJUDWsE7WE1+1sZ2mF0/6U/+BlrajE2UULZ2X6P+6iNtFz82aOkX1DhgFrvBtGPjsL+XGPRxabVTymqf8nmOJ//89XpcSnJPVnpvVn3KdSlHP+w2y/H4rwFdu1NMk15+7ALhJgfjJQVjtdPShe6v+hM47nWg0vUa2gZ+9+R6vY6U/dL5809/9V78TZ3qfHI9MIHnyW27yfIT5IGLly792rC3+dvVavW0gTfmt1ol9GdwNBhT6ZI21xoUqSGBQIMwAAJ+ycugKwxqzVyvqQSyPZgnnbwBJvCTL6DokHRDSEKIyaPDr0L+yStqED+o91HqmwEaQFHFGgqAKTUOHPsOdAzi1tKlPPDDb0KsOefBIHW2vMD38QNWICJ5gBN+Uk4DY+wCNeA7n96+5Ly2YS9AacXOOZAY/wMrPtPP8hmwa/CkvMoTAFPjQHOuaeW2wbsht9U9sMzuBkwKYo4BtU7fa2SBZ867F9xHHT7n8wZ//ahD9z1x6VB2rmd/K+V8lPpb0tJ9t+vfk6aOPrifui9Sj01w2hbtys+Htu1s1sPnz59/6h9P0E/hZOrkgdkEnlMnmDxwDB64evXqZ3dX61d2dnaeGStlgMJAY6AcPzU8DpMaWPMpVEnBacXRgNahxAZJ0Ah65NuhTumtbYvNtunJ/2ALHINJrqWOdbiyYXkMsGBgDC6gRb4NYYA1ZbAdkDTEyNPG6oA0fmrA6nCq/NpHwtHAs4GZsir86wlufnFemWCLYppP6zF7otJdVR6tcrY/KHFASFlUvLZRufpC+931wD626l+tmjbgyYcCbymCPNSDv13b/QW0OWcCMQ5Zs7W3gjKpsCbTw0Ox14QNkPekoycI7j82tY9aUc5x9Ut9eyJg8hafC5nnPFv1PZ/9G5Bj/Kc80H0I3K+e2l5+fFrfeQw/4FMRt9UDE3jeVndOmU0eONoD167tfmI9rL595fKVXwBPreIAI2HQDED29DOwAkcDGyWTCjp+apZyAvCEcb16EDRQYoRUk16ZsacVVaF2sPV+oV55GrypnIAEvMQWYUf2ti/amwb+Vu68/QcctcoFKBrQ1I1aljzHinJDs9Bzg6F2ANH8D6LYD9JBUM7zJwgcq5GB4aTxxiZ1BZQg1PFWtsfgPQbMBiTQ/OCDD97cVuko5c/aVuWb/IBCEx3t1Of1O4otuGInxbWXh7QaS000AWh4bV+PwZMqKzxPne3tsECgvtHg14CubPXqyYX2T3oqqDanqGrv2NTgqU94iMzEhB0N5kL71nze/I1YLv7p/NPnfnU+nw/T7+7kgZPkgQk8T1JrTbaeWA+88847Ty63Tn3t0qVLn7MuziDWAyr46gGIimgQ9HAFxY4SBGQNfh029RCPp3BzzuBHTQFhrYwKhwIdg7I9H/thDmnAEXXQm3M8vKM+gLNDkA1azvexzpu98uUf9W81qUEa3IA2+07yH2gAao5rm5y31ydg6PA6MEj6gLXQfPzdWyl5JSU/gfQxnOon0rkJqGi9RrR9yz8AqfsHRTXH1L/VaspbT26OgjBK8Fgt1ofalyYHDaA5RoEE+SA3Sw3yhHv3QTDbMAqwx6HsHNc3xso5u6ip4E46x9miL2j7HPeaS2m0D5W1l2j08gD/tzIKbMeToK6TiZSJ0XJr+cq5Jz/64on9UZwMv2c9MIHnPdv0U8WP0wPDMCx+vNPMn166fPnLV69e3R8Qe9BuNbNDp63y9XqxpM/13joDPgzeFBbqm/WO1g0GNgAJ9ajBwyDqk1rTkNNPIoOt5GEQzWfSe1MMlU04Ejz0IA82AUADA+hUR+omKOAfgBPbQSho7IGc/xzj94ZsYNTAk/RU4NSttwhqeM01SRvfZQ9KSpy3FHnAivrrTUtUOBv5dz/Vnq2AAhITiFZcqYra0RPdNpQHu+DNJOhwDeF+0XzH7z5BN/9rzwbjXtLRk6pWGHMc4LITlFGJTXTUW5/tEHfDL2W9JyU9SdCvGvjkqc58oH+453Kttswn2/hF3fSFfriogVz/bL+5pywRYZ+8PKy1vb09DJvNl5955tyfHefv2FTW5IHb4YEJPG+HF6c8Jg98AA8Mw/DytXev//nbb789z2DlFYZAoZUg4UkDj8Ewn2MAtdbSYJvzDaQUrZSTh02yd2D+QJkQJPBsqAFBPTgmf4ofaEzZjjfAJc8MpvbO9GR9jnuHNgUnZSWt72OFD1AavCl6XN+gQM3sMCXwUT/gB7qSlroGLNQf1GkXIDA+3jYD0itXruy3R4dbgQ+b2t78b4sd6pi2bSBsJZjtrdipV3xq4hH1ObY3eJoAsY8trcjpL8nTkg1vGNKP+AII69f6bivQ/lc/MJ/j4BjQjYE2dmonYCpcb00lxZZfbCQfm3o7pZ4oxc5WxrXN+O1G+qdJUvJIuZYd9Cs2U4dMTmIfu8f92nUNm/J0DDRLu1gufnDt6s4XXnjhuX//AD89U5LJA3eUBybwvKOaYzLmbvbAlSvXfnszbL56/fr1JegZh5EBHLUw6UBkzvk/x3tfQmAH/sYDbYMDgKMygVuKIoUng2VvkE7x8SQx1c9aPGvqwIA65DoDJgWK+mmNp9CnNY8UVKHN5BUAyODdD4pQk+Tb5bAXIBi8gTt4FCbPd6CcNB0qZY8NxlPnhIFbhQXNNsi3xGCs1DaIgcwO5fKFjfBTN0pzbB1DaPyStO1/MNnLMgAnGDcJyHdtTo3lE5MGkwJqX74nP9sdxW8py760Od9vDeolBvzK/w2J7gd9NJ/WLuf/fjFCrgPQsdNT9tZGx0/pX0DTpG0MgO4ZT/jbiSDp+NSkzGRRWSBbZIJ/UnY/8d7t674A6qIJgDTX9o4LJkEp6xCw15v18M1HHnngpYcffvitu/k3c6rb3emBCTzvznadanUHeuD119/83fVm/ZXNZrN/343Bx4DUIUmbzQsjUhoBWY6D0AxWDQQgqZUcamHKAEoGfoM+UDOotz0AqJVAgyTAauUUCEqfz7EaadB2rhVNAzalUVoQTtFyvgG7gUMdA1QUNCpZ14/tlNyx3faLBJXCxEKu2sknOKfwgc4OGQMhtgMkebdyKJ9cQw0DdWP/AxbKZQOevpe8+Rh86i+Wg7APKCnXxIVNSe/NPKA/5QjnO2aykev1HZOCnvxo49hjWYjQvbC49Pns15MmXa5JWfxzFHi6B6i26p5r+x41ORMKd/+Y8HSUQF3UTV5gupXULMHQvrFTPVqptxSjVOsfbW9tv3T+/LlvTu9nvwN/6CeTfqIHJvD8iS6aEkweuD0eePXVV/9is9m8DAD2B8Lh1i3YYVKAAjAbwAxyrKL2tBIm/C6cncEQdGWwFFYFctanNQSBXGpXPj3NPk4PLmIDRUsa+QjBgwjfhY8pb2CPzR3CZZ+QakOaAVz4NiHOhx566OYrN5UDUsFD7AW9gA6EdzieCppzHuyihLY61nDPB92D2NkhV3DS4eUGHyACjPSBDs82oACyzoO/9amcA0f8yg+uk0/bCs57UqRNqbXAXdtRmamLlH1+lr/v/BW7qLyWH3S/4Qf5uxdyPVt6YtQTCgDovgOMJl76ybg9lWnCp2y+A/PaXoTAveN6EyDprenVH5XbcLwfTdisv/7wgw988ezZs5duzy/TlMvkgeP1wASex+vvqetCdrgAAAyISURBVLR71APDMNz32muvfWM2m32hQ6Lzxda+R3oANfB12K4VO+ACIAz6DYPUKOBJ9er1fAbphg2DMPgzaAM8qo0BHLAI6VKihNuFnSlF8gGHIKaVvAZrb2YCtlRhIV52UGLBBrVQmJZdDc6tIjeo6KLC7tqnH4DJ/xS2bg9g5Vp+726vrmCr10jyT9I43mqafEAR1Zb/2QjsYiPA7EkG/wNDkKNMsNNqZvIB4iYF+rJy9Qd906Ql19oiijLf6x71l7ajFdpuV/4AjuC4VWYTtZTr/ujJBcAFm55QV0frNMdqZc7Hd8p2P1BETf70J0tg+N4SBpMgbcMO+bXC2wrqbDb73oMPPPL5xx578Lv36E/pVO27wAMTeN4FjThV4c73wLVr185dvHjxO/P5/NOtsC23Tu2rTr0mz6CWgTSDTpQ7oVwDW689Myi3F4DWUaqiQVf+BmeDKqjJ4JiyAwwAqpUvg7uHV0AH+xuYhEiBDTDrMG7SG9RbsQMg1tdRVNkEjlIf5YyfHGc3wKFQgkaKImBNnpThVp78D7RAaYfo1T9h5zzIZULAhv7Od+1XMJ3ys8Y2eQMb9rYaZwIhj/fzf3zPTuBpoiHMCwb1kfiLL0BZ8hdipkgCWBOEBnCTBGquvSvBcvIFZt3uPUnRLt1H0gbs5J8Gc4psT8zcZw3/ybPB05pZPjap6YmddvCgVavpPRHpvXjVga/067Tf+4FnK/u7u7tvnr7v1MvnnnzyG9PenXf+b/5k4ft7YALPqXdMHjgGD7z11lvPXrt27Tuz2ewTPZAtlgfbKrXi14Oip98N9tTQhq4GGYpJKzqeau91bAZ14CQPa/8MjgA234Fqw2LSe+pXnh26NNCD4x7M/W+gdj3bhb3ZD1Bih/V7Dc1j4Eoaayz5pQETGDuX70AqNoCG9j0o1A7qnzStkjUQmSy0gtd1AYytcjbsjhW2sXJJFe76y8saW3Zrx96VQF/qkHHsA0MNeOzmd4oyG2NbPyzTyji11ARHO4JJ8NhtFHhPO7gPlJNrPBwV/7Y6rB6g3vIPyyLAt0kZ/7dqqQ9Ttvm2+xHYTJqewIwnB85T2ztvbZnPo0LtNVnZ29re+spTH33iD6Z1ncfwgz0V8aF6YALPD9W9U+aTBw48cPny5Ud3dnb+fhiGz75H+ZofhO0MRmP1cxzSHofKW2kbAwrfAx/lGuz6uLQNIQbWXMeuDJ7UMvBHsbEWrwE31/Z3g79B2LXqIUQMOsEJ1S/Hc401lrEb1AL6QFdsCZhY4ykNFZMdSdsQnzy0BbhJGdYXCiGDm07Ta1s9iW7dJbhiL4ADo+COr4R4gbMwMmhTxzycQuU9yv+5jsJOcQNkyYuiBrrka+Lxnr56CKPqwHcUV8AI1vK9dxmw7APIW/t41MRJ+4O2+KUfEmqV0sSngZPi3WF9ba6fgMgG4fH/1krzv4mZCZnIw1GhdHlRjfv+y7HemSLnjnq46Ob9uN5cOfPAmS89fvbs30y/qZMHTroHJvA86S042X8iPJAN5F9//fW/2mw2v3mgtC0O1okNw80teY4KN2az+YRrM8Bl4G4FJgNuwMPaNQpVq1uUN7AARChT+WzQogIBDyqngReMdsg6eXsCPulAGrDINQbqpO08rf1U94YBKpNz0lpfCJZAmno0tArdjkOrHdIV8u3lAIBXSJmy12teW2HstZEmEpQ4gN+KGmgbg2+DnonEGPTUv0EMmMVuuxlYT6gODfeOdei5bfK/LYG0i7bUjxqggF0+s9UU6BOqtzwBjMqzwVNf5sPYmfT5S35ZM6n/aHcA54cgy0PSB2Nrw5w+K+SvLyY/imqOxX/8oiwTL0+WO56lELHVdlZJ596hnrvHlJ+2ArBjhVj99bObE5ZhuHzffWe++OijD3/tRPzgTUZOHvh/PDCB59Q9Jg8ckwdef/2Hvz+bz/94GIbleh2lbT6bHW4vRImzl+Bya2sf1gACNafVSmBD/QGFHgwxeKd6/X/DmLB5K0hAgVKTsg3OIEqo1vo5YdTY0OvlUnbKyHUNbQ3QwtY5Ro0D2sLXB7B+oG6ypUOYFMPY5W1CrRazgS9A23K5/Z4Ny4X1U17yAfaUWflQovb2dm8+ZJS8e92iOmgX6hkF2cNJgIwimfRAF9wCZ/bfCvNu9tvWsgVgyJaGu0Bkh60DWLPZ5ub2Vv0WpoZ+k4aU0fDfaiIo7PWcIKxD9rGH4kgNHq8r1T+pgK28qyc/8He3Lx/oM86BaT7ZvycOQ/bbhxu869/g0cRtPTtQxi3fsKfsYjjY1qoBFXAC3wPQXLyn/6bs/Une3u571vD2T1G3+TAMV++///6Xz549+9fH9HM1FTN54EPzwASeH5prp4wnD7zXA6+++uqvr9eLv5zNZ88GPvdVss3B+s7FYrEehmFntVpdWi63/me+mP/i9evXnxXapuaBwVb1hJ8bPFs9fb92MMAnbSsw4C5gEPACnq12AVaAA0h6sAVY1EDAmE8gJ+/AByUPGIz3p+SDnO8lAW1L8umNy62bk56CBOr39g7Ai7/AqhAq34HDfG+VMOCWNgK+fNSQQ7mMLVTPW+B7oAa3qguqLGXoicIYvCjnfNa+0BZA1iQhab3GNJMfMEXxpUC2Cg1EewKk7aitNl7XPvqq5Qvddxv+AGLyO7wXbvqp1082RIOyDnW3spzr3CNAUNu2qnrqUFHd2t6++aS6ugLNfXA9BM9eVrLv18X2fheh4vIxcL1l/3DzNuwoxGxY7x/ny/zffqdS//itZ5ceeOCB33nkkUe+Nf2uTh446R6YwPOkt+Bk/4nxwIULF84Mi63f2qzXnxk2s3PL5fLM4cDzo8VicWEYZt/b2pr/y0c+8pH/vHHjxvbO7u5vrFfrF5fL5aeWy+V92Xi+B9cAD5ihuAAjqhKI6NAysOlBjupocAYBDaSuG+eZNAZkqp3wouMGWwCoPPaC34ZhkAO2AAp4Ax8NZrHF+k/HKcMgAJwdAPGB8tQDv3qylWIGfBs8A24Ux/ax+moX8MPnHSbv0Cw4Szp2y6uVTYAW+9nFP+ojj1vq6N4+0PVEZRgOlGibuuec0DaoAz/aww3HHiq3t/kA7dgIANnYcNmw3RMroejuOyP17+bylAZP/bKB8ZafDsCv7dgH08M1w4kw9F8rmMlvtTl4gMmDUyYWy9ly3xbH02b9xquerIk6sGEY1sN8ttkbhmE1DMN6kxt8Pt9U/47Ru5vNZmc2m/33mTNn/vDxxx//txPzgzcZOnngfTwwgefUNSYPHKMHhmE4/eabVz62WcweWw6bxDoXwzB7ez7fe2O1Wl1++umn321zLly4+MwwXP+9zTB8ZjbMnltuLR9bLBYLg77BOddQDKl5HbJsKBLmMxDnMyohODoIwR6oisKhBnhv7mmwkk74naLk+xi6gJbyrX1jY/IDLw2fSe9a9VY2mAROHqgBC/2EOog5ALWD1y72gzm9LAAcgU0wB0YTQqVyAa0Grw7Rx/bkDdAAOzhKnvlryBor3MoHMQ3O/Gx5BnDltw6T62MBT8se2NplWh7B9p7QACQhcT4HW3ykrzT06a+gjSra/rLUwaRAv70FbsNBuHq9vrlNFEVbe5mYudZkAjha6jI7XK4A3qnA1Ogbe6ubyrZ22u9zq83NN0i5/3ymjNOnT2/W6/X19Xp9ZT6fX0tkYz6fBzRvbIa9d1Y3di+cOrX13dOnT18chmF3Pp/vLpfLXJN+MCyXy0RC9tbr9ZvDMPzHU089de0Yf66moiYPfCgemMDzQ3HrlOnkgdvngQsXLjy6Ws1emM02Hz99evuT8+XWc7PN8NH1Zv3oMAyPLhaL+8OiGQgz0GagBlMAsgfrBhwDq4EWRDme68FAtrZJ6D1ppJNXX5/B216IBnJrQKmXAJatyqF8gr8c90BHrhUOZgtoBssUVw+QJJ9AdewGKOp2EPI/AEHrFS0t8LpNgE/RsmxAHU+d2tp/TWQUQxDVG6ODayrk2BYh+lY1W7kD1EAz53INcAs45w9odf6pE790+BygHuwzessvAT1LHgBuK3g9oenJA/CkjOZ78k4bHNUPqfZgENz2JCLn8uCO9qCQU2xb5e5lEPykrcG2fshXFM0onvt5jZZQrFar4dSpU6vFYpFTO+/svLt75v4ze5v1Znc+X+zNZsMyKuXejb316dOnb8zn853tra3d3d3d1XJra2dvtXdtNh+uLheLd9frzQ+HYf79+XxzebNY7M325juz2d7O3t7m6kMP3XfxiSeeeCvAeft+MaacJg/c2R74PxoY9rtRQP0RAAAAAElFTkSuQmCC;" vertex="1" parent="1">
          <mxGeometry x="-10" y="299.5" width="670" height="373" as="geometry" />
        </mxCell>
      </root>
    </mxGraphModel>
  </diagram>
</mxfile>
